<?xml version="1.0" encoding="UTF-8"?>
<!DOCTYPE svg PUBLIC "-//W3C//DTD SVG 1.1//EN" "http://www.w3.org/Graphics/SVG/1.1/DTD/svg11.dtd">
<!-- Creator: CorelDRAW X7 -->
<svg xmlns="http://www.w3.org/2000/svg" xml:space="preserve" width="353.956mm" height="250mm" version="1.1" style="shape-rendering:geometricPrecision; text-rendering:geometricPrecision; image-rendering:optimizeQuality; fill-rule:evenodd; clip-rule:evenodd"
viewBox="0 0 35396 25000"
 xmlns:xlink="http://www.w3.org/1999/xlink">
 <defs>
  <style type="text/css">
   <![CDATA[
    .str2 {stroke:#4D4D4D;stroke-width:103.931;stroke-linejoin:round}
    .str0 {stroke:#7A7269;stroke-width:148.476;stroke-linejoin:round}
    .str1 {stroke:#4EB87A;stroke-width:178.169;stroke-linecap:round;stroke-linejoin:round}
    .str3 {stroke:#4D4D4D;stroke-width:103.931;stroke-linecap:round;stroke-linejoin:round}
    .fil8 {fill:none;fill-rule:nonzero}
    .fil21 {fill:#22A858;fill-rule:nonzero}
    .fil23 {fill:#4D90BA;fill-rule:nonzero}
    .fil4 {fill:#4DB9B4;fill-rule:nonzero}
    .fil5 {fill:#4EB87A;fill-rule:nonzero}
    .fil26 {fill:#584E43;fill-rule:nonzero}
    .fil3 {fill:#69D2E7;fill-rule:nonzero}
    .fil11 {fill:#6D5B49;fill-rule:nonzero}
    .fil7 {fill:#7AD0CB;fill-rule:nonzero}
    .fil24 {fill:#84688D;fill-rule:nonzero}
    .fil2 {fill:#9C958E;fill-rule:nonzero}
    .fil0 {fill:#A28A6D;fill-rule:nonzero}
    .fil1 {fill:#A5E4F0;fill-rule:nonzero}
    .fil28 {fill:#ADD65B;fill-rule:nonzero}
    .fil22 {fill:#B0BE79;fill-rule:nonzero}
    .fil29 {fill:#C2ECF4;fill-rule:nonzero}
    .fil12 {fill:#D2423F;fill-rule:nonzero}
    .fil19 {fill:#D6B88F;fill-rule:nonzero}
    .fil17 {fill:#D88F48;fill-rule:nonzero}
    .fil14 {fill:#DD6966;fill-rule:nonzero}
    .fil15 {fill:#E0A66D;fill-rule:nonzero}
    .fil10 {fill:#E6E6E6;fill-rule:nonzero}
    .fil13 {fill:#E88E8C;fill-rule:nonzero}
    .fil16 {fill:#E8BB90;fill-rule:nonzero}
    .fil25 {fill:#F1F1F1;fill-rule:nonzero}
    .fil6 {fill:#F59551;fill-rule:nonzero}
    .fil18 {fill:#F6E8D0;fill-rule:nonzero}
    .fil27 {fill:#F6E8DA;fill-rule:nonzero}
    .fil9 {fill:#FFCE47;fill-rule:nonzero}
    .fil20 {fill:#FFDA75;fill-rule:nonzero}
    .fil30 {fill:white;fill-rule:nonzero}
   ]]>
  </style>
 </defs>
 <g id="Layer_x0020_1">
  <metadata id="CorelCorpID_0Corel-Layer"/>
  <g id="_1804821616928">
   <polygon class="fil0 str0" points="37438,10880 37119,10880 37345,10007 37838,10007 "/>
   <polygon class="fil0 str0" points="44631,10880 44951,10880 44724,10007 44232,10007 "/>
   <g>
    <path class="fil1 str0" d="M44172 5080l-2845 0c-162,0 -292,131 -292,293l0 3149c0,162 130,293 292,293l2845 0c161,0 292,-131 292,-293l0 -3149c0,-162 -131,-293 -292,-293z"/>
    <path class="fil1 str0" d="M40742 5080l-2844 0c-162,0 -293,131 -293,293l0 3149c0,162 131,293 293,293l2844 0c162,0 293,-131 293,-293l0 -3149c0,-162 -131,-293 -293,-293z"/>
   </g>
   <path class="fil2 str0" d="M44712 10126l-7354 0c-132,0 -239,-107 -239,-239l7832 0c0,132 -107,239 -239,239z"/>
   <path class="fil3 str0" d="M38297 7827l2398 0c188,0 340,152 340,340l0 450 -3077 0 0 -450c0,-188 152,-340 339,-340z"/>
   <path class="fil3 str0" d="M41374 7827l2398 0c187,0 340,152 340,340l0 450 -3077 0 0 -450c0,-188 152,-340 339,-340z"/>
   <path class="fil4 str0" d="M44972 6330l-479 0c-211,0 -381,171 -381,381l0 1821c0,47 -39,85 -86,85l-5983 0c-47,0 -85,-38 -85,-85l0 -1821c0,-210 -171,-381 -381,-381l-480 0c-211,0 -381,171 -381,381l0 2795c0,211 170,381 381,381l240 0 240 0 6916 0 240 0 239 0c211,0 382,-170 382,-381l0 -2795c0,-210 -171,-381 -382,-381z"/>
   <g>
    <path class="fil5 str0" d="M40450 7606c0,123 -1918,123 -1918,0 -133,0 -133,-1464 0,-1464 0,-147 1918,-147 1918,0 147,0 147,1464 0,1464z"/>
    <path class="fil5 str0" d="M38377 7578c41,-41 106,-41 147,0 40,40 40,106 0,146 -41,41 -199,133 -239,93 -41,-40 52,-199 92,-239z"/>
    <g>
     <path class="fil5 str0" d="M40615 6141c-40,41 -106,41 -147,0 -40,-40 -40,-106 0,-146 41,-41 199,-134 240,-93 40,40 -53,199 -93,239z"/>
     <path class="fil5 str0" d="M38377 6141c41,41 106,41 147,0 40,-40 40,-106 0,-146 -41,-41 -199,-134 -239,-93 -41,40 52,199 92,239z"/>
    </g>
    <path class="fil5 str0" d="M40615 7578c-40,-41 -106,-41 -147,0 -40,40 -40,106 0,146 41,41 199,133 240,93 40,-40 -53,-199 -93,-239z"/>
   </g>
   <g>
    <path class="fil5 str0" d="M43527 7606c0,123 -1918,123 -1918,0 -133,0 -133,-1464 0,-1464 0,-147 1918,-147 1918,0 146,0 146,1464 0,1464z"/>
    <path class="fil5 str0" d="M41454 7578c41,-41 106,-41 147,0 40,40 40,106 0,146 -41,41 -199,133 -240,93 -40,-40 53,-199 93,-239z"/>
    <g>
     <path class="fil5 str0" d="M43692 6141c-41,41 -106,41 -147,0 -40,-40 -40,-106 0,-146 41,-41 199,-134 240,-93 40,40 -53,199 -93,239z"/>
     <path class="fil5 str0" d="M41454 6141c41,41 106,41 147,0 40,-40 40,-106 0,-146 -41,-41 -199,-134 -240,-93 -40,40 53,199 93,239z"/>
    </g>
    <path class="fil5 str0" d="M43692 7578c-41,-41 -106,-41 -147,0 -40,40 -40,106 0,146 41,41 199,133 240,93 40,-40 -53,-199 -93,-239z"/>
   </g>
  </g>
  <g id="_1804821615424">
   <path class="fil0 str0" d="M49412 7705l-2650 0c-201,0 -363,163 -363,364l0 504 3377 0 0 -504c0,-201 -163,-364 -364,-364z"/>
   <path class="fil6 str0" d="M49744 8248l-3313 0c-138,0 -249,111 -249,249l0 1019c0,138 111,250 249,250l3313 0c137,0 249,-112 249,-250l0 -1019c0,-138 -112,-249 -249,-249z"/>
   <path class="fil2 str0" d="M46467 9766l3240 0c0,132 -107,239 -239,239l-2762 0c-132,0 -239,-107 -239,-239z"/>
   <polygon class="fil0 str0" points="49388,10880 49707,10880 49480,10007 48988,10007 "/>
   <polygon class="fil0 str0" points="46787,10880 46467,10880 46694,10007 47187,10007 "/>
  </g>
  <polygon class="fil7" points="35353,10695 83,10695 83,174 35353,174 "/>
  <g id="_1804821610176">
   <path class="fil8 str1" d="M28371 4779c0,0 -396,-1231 902,-2093"/>
   <path class="fil8 str1" d="M28368 4779c0,0 -155,-1586 844,-2585"/>
   <path class="fil8 str1" d="M28307 4779c0,0 351,-1391 -648,-2390"/>
   <path class="fil8 str1" d="M28307 4779c0,0 451,-1881 -548,-2880"/>
   <g>
    <g>
     <polygon class="fil0 str0" points="32863,9273 33134,9273 32244,6920 31295,6920 "/>
     <polygon class="fil0 str0" points="23701,9273 23430,9273 24320,6920 25269,6920 "/>
    </g>
    <path class="fil9 str0" d="M22942 5245l0 1634c0,107 86,194 193,194l10467 0c107,0 193,-87 193,-194l0 -1634c0,-107 -86,-193 -193,-193l-10467 0c-107,0 -193,86 -193,193zm10165 1513l0 0 -9477 0c-103,0 -186,-83 -186,-185l0 -1021c0,-103 83,-186 186,-186l9477 0c103,0 186,83 186,186l0 1021c0,102 -83,185 -186,185z"/>
    <path class="fil10 str0" d="M27309 6327l-3111 0c-119,0 -216,97 -216,216 0,119 97,215 216,215l3111 0 0 -431z"/>
    <path class="fil10 str0" d="M26992 5897l-2531 0c-119,0 -216,96 -216,215 0,119 97,215 216,215l2531 0 0 -430z"/>
    <path class="fil10 str0" d="M31753 6327l-3111 0c-119,0 -216,97 -216,216 0,119 97,215 216,215l3111 0 0 -431z"/>
    <path class="fil10 str0" d="M32214 5897l-2531 0c-119,0 -216,96 -216,215 0,119 97,215 216,215l2531 0 0 -430z"/>
   </g>
   <path class="fil10 str0" d="M27464 5052l659 -1551c235,0 256,0 491,0l659 1551 -1809 0z"/>
  </g>
  <g id="_1804740163184">
   <g>
    <polygon class="fil11 str2" points="4069,9273 3268,9273 3268,8471 4069,8471 "/>
    <polygon class="fil11 str2" points="10954,9273 10152,9273 10152,8471 10954,8471 "/>
   </g>
   <path class="fil12 str2" d="M10437 2931l-6653 0c-673,0 -1218,546 -1218,1219l0 3878 9089 0 0 -3878c0,-673 -545,-1219 -1218,-1219z"/>
   <path class="fil12 str2" d="M10288 6315l-6354 0c-368,0 -666,298 -666,666l0 1047 7686 0 0 -1047c0,-368 -299,-666 -666,-666z"/>
   <path class="fil12 str2" d="M12883 5404c0,-588 -477,-1065 -1066,-1065 -588,0 -1065,477 -1065,1065l0 1223c0,258 -209,466 -466,466l-6351 0c-257,0 -466,-208 -466,-466l0 -1223c0,-588 -477,-1065 -1065,-1065 -589,0 -1066,477 -1066,1065 0,588 477,1065 1066,1065l0 1720c0,341 276,617 617,617l44 0 404 0 7283 0 404 0 44 0c341,0 617,-276 617,-617l0 -1720c589,0 1066,-477 1066,-1065z"/>
   <path class="fil13 str2" d="M11444 5404c0,206 167,374 373,374 207,0 374,-168 374,-374 0,-206 -167,-374 -374,-374 -206,0 -373,168 -373,374z"/>
   <path class="fil14 str2" d="M4244 6173c-233,0 -233,-2287 0,-2287 0,-156 2288,-156 2288,0 222,0 222,2287 0,2287 0,189 -2288,189 -2288,0z"/>
   <path class="fil14 str2" d="M7719 6173c-233,0 -233,-2287 0,-2287 0,-156 2288,-156 2288,0 221,0 221,2287 0,2287 0,189 -2288,189 -2288,0z"/>
   <path class="fil13 str2" d="M2778 5404c0,206 -168,374 -374,374 -207,0 -374,-168 -374,-374 0,-206 167,-374 374,-374 206,0 374,168 374,374z"/>
  </g>
  <g id="_1804812081760">
   <polygon class="fil11 str2" points="16646,9362 15818,9362 15818,8666 16646,8666 "/>
   <polygon class="fil11 str2" points="20418,9362 19590,9362 19590,8666 20418,8666 "/>
   <path class="fil15 str2" d="M20504 8868l-4772 0c-163,0 -296,-132 -296,-296l0 -3968 5364 0 0 3968c0,164 -132,296 -296,296z"/>
   <g>
    <path class="fil16 str2" d="M20238 6577l-4240 0c-100,0 -180,-80 -180,-180l0 -984c0,-100 80,-181 180,-181l4240 0c100,0 180,81 180,181l0 984c0,100 -80,180 -180,180z"/>
    <path class="fil17 str2" d="M18668 6051l-1100 0c-80,0 -146,-65 -146,-146 0,-81 66,-146 146,-146l1100 0c80,0 146,65 146,146 0,81 -66,146 -146,146z"/>
   </g>
   <g>
    <path class="fil16 str2" d="M20238 8343l-4240 0c-100,0 -180,-81 -180,-180l0 -985c0,-99 80,-180 180,-180l4240 0c100,0 180,81 180,180l0 985c0,99 -80,180 -180,180z"/>
    <path class="fil17 str2" d="M18668 7816l-1100 0c-80,0 -146,-65 -146,-146 0,-80 66,-145 146,-145l1100 0c80,0 146,65 146,145 0,81 -66,146 -146,146z"/>
   </g>
   <path class="fil17 str2" d="M20788 4867l-5340 0c-135,0 -244,-109 -244,-244 0,-134 109,-243 244,-243l5340 0c135,0 244,109 244,243 0,135 -109,244 -244,244z"/>
   <g>
    <polygon class="fil11 str2" points="18264,2696 17972,2696 17972,4205 18264,4205 "/>
    <path class="fil11 str2" d="M18527 4077l-817 0c-167,0 -303,136 -303,303l1422 0c0,-167 -136,-303 -302,-303z"/>
    <path class="fil18 str2" d="M18711 1507l-1186 0c-68,0 -128,44 -148,109l-487 1564c-31,100 44,201 148,201l2160 0c104,0 179,-101 148,-201l-487 -1564c-20,-65 -80,-109 -148,-109z"/>
   </g>
  </g>
  <g id="_1804737816848">
   <g>
    <polygon class="fil0 str0" points="43016,18093 38251,18093 38251,17724 43016,17724 "/>
    <g>
     <polygon class="fil0 str0" points="37857,20849 37620,20849 38399,14819 39230,14819 "/>
     <polygon class="fil0 str0" points="43299,20849 43536,20849 42757,14819 41926,14819 "/>
    </g>
   </g>
   <path class="fil14 str0" d="M40936 12758l-1710 0 0 1218c0,161 130,291 291,291l1129 0c160,0 290,-130 290,-291l0 -1218z"/>
   <path class="fil15 str0" d="M44178 14937l-7200 0c-145,0 -262,-117 -262,-262 0,-145 117,-262 262,-262l7200 0c145,0 262,117 262,262 0,145 -117,262 -262,262z"/>
   <path class="fil14 str0" d="M41428 14121l-2693 0 0 0c0,161 130,292 291,292l2110 0c161,0 292,-131 292,-292l0 0z"/>
   <path class="fil14 str0" d="M41291 13851l-355 0 0 -874 355 0c104,0 187,83 187,187l0 500c0,104 -83,187 -187,187zm-44 -689l0 0 -311 0 0 504 311 0c32,0 59,-26 59,-59l0 -386c0,-33 -27,-59 -59,-59z"/>
  </g>
  <g id="_1804737809296">
   <polygon class="fil0 str0" points="62752,24518 63086,24518 62848,23604 62333,23604 "/>
   <polygon class="fil0 str0" points="57026,24518 56692,24518 56929,23604 57444,23604 "/>
   <path class="fil19 str0" d="M63230 23664l-6683 0c-143,0 -260,-117 -260,-260l0 -5658c0,-144 117,-260 260,-260l6683 0c144,0 260,116 260,260l0 5658c0,143 -116,260 -260,260z"/>
   <g>
    <path class="fil0 str0" d="M62978 21454l-6178 0c-60,0 -108,-48 -108,-108l0 -1386c0,-60 48,-108 108,-108l6178 0c59,0 108,48 108,108l0 1386c0,60 -49,108 -108,108z"/>
    <path class="fil11 str0" d="M60048 20653c0,88 -71,160 -159,160 -89,0 -160,-72 -160,-160 0,-88 71,-160 160,-160 88,0 159,72 159,160z"/>
   </g>
   <g>
    <path class="fil0 str0" d="M62978 23330l-6178 0c-60,0 -108,-48 -108,-108l0 -1386c0,-60 48,-108 108,-108l6178 0c59,0 108,48 108,108l0 1386c0,60 -49,108 -108,108z"/>
    <path class="fil11 str0" d="M60048 22529c0,88 -71,160 -159,160 -89,0 -160,-72 -160,-160 0,-88 71,-159 160,-159 88,0 159,71 159,159z"/>
   </g>
   <g>
    <g>
     <path class="fil0 str0" d="M59612 19578l-2812 0c-60,0 -108,-48 -108,-108l0 -1386c0,-60 48,-108 108,-108l2812 0c60,0 108,48 108,108l0 1386c0,60 -48,108 -108,108z"/>
     <path class="fil11 str0" d="M58366 18777c0,88 -72,160 -160,160 -88,0 -160,-72 -160,-160 0,-88 72,-160 160,-160 88,0 160,72 160,160z"/>
    </g>
    <g>
     <path class="fil0 str0" d="M62978 19578l-2813 0c-60,0 -108,-48 -108,-108l0 -1386c0,-60 48,-108 108,-108l2813 0c59,0 108,48 108,108l0 1386c0,60 -49,108 -108,108z"/>
     <path class="fil11 str0" d="M61731 18777c0,88 -72,160 -160,160 -88,0 -159,-72 -159,-160 0,-88 71,-160 159,-160 88,0 160,72 160,160z"/>
    </g>
   </g>
   <path class="fil19 str0" d="M63571 17674l-7365 0c-136,0 -246,-111 -246,-246 0,-136 110,-247 246,-247l7365 0c136,0 246,111 246,247 0,135 -110,246 -246,246z"/>
  </g>
  <g id="_1804737806672">
   <polygon class="fil0 str0" points="52798,20096 45592,20096 45592,11763 52798,11763 "/>
   <g>
    <g>
     <polygon class="fil15 str0" points="49195,19689 45891,19689 45891,12077 49195,12077 "/>
     <path class="fil0 str0" d="M48865 15883c0,103 -84,187 -187,187 -103,0 -186,-84 -186,-187 0,-103 83,-187 186,-187 103,0 187,84 187,187z"/>
    </g>
    <g>
     <polygon class="fil15 str0" points="49195,19689 52500,19689 52500,12077 49195,12077 "/>
     <path class="fil0 str0" d="M49525 15883c0,103 84,187 187,187 103,0 187,-84 187,-187 0,-103 -84,-187 -187,-187 -103,0 -187,84 -187,187z"/>
    </g>
   </g>
   <path class="fil19 str0" d="M52863 11868l-7336 0c-86,0 -155,-70 -155,-155l0 -156c0,-86 69,-155 155,-155l7336 0c86,0 155,69 155,155l0 156c0,85 -69,155 -155,155z"/>
   <path class="fil19 str0" d="M52847 20849l-7304 0c-95,0 -171,-77 -171,-171l0 -609c0,-94 76,-171 171,-171l7304 0c95,0 171,77 171,171l0 609c0,94 -76,171 -171,171z"/>
  </g>
 </g>
 <g id="__x0023_Layer_x0020_1">
  <metadata id="CorelCorpID_1Corel-Layer"/>
  <g id="_1804707970624">
   <g>
    <path class="fil11 str2" d="M-16487 4774c-99,0 -180,-81 -180,-180l0 -3299c0,-99 81,-179 180,-179 99,0 180,80 180,179l0 3299c0,99 -81,180 -180,180z"/>
    <path class="fil11 str2" d="M-11120 4774c-100,0 -180,-81 -180,-180l0 -3299c0,-99 80,-179 180,-179 99,0 179,80 179,179l0 3299c0,99 -80,180 -179,180z"/>
   </g>
   <path class="fil15 str2" d="M-9878 1738l-7851 0c-79,0 -142,-64 -142,-142 0,-79 63,-143 142,-143l7851 0c78,0 142,64 142,143 0,78 -64,142 -142,142z"/>
   <path class="fil15 str2" d="M-9878 3923l-7851 0c-79,0 -142,-64 -142,-143 0,-79 63,-142 142,-142l7851 0c78,0 142,63 142,142 0,79 -64,143 -142,143z"/>
   <g>
    <polygon class="fil20 str2" points="-16466,-816 -16952,-816 -16952,1453 -16466,1453 "/>
    <polygon class="fil21 str2" points="-15883,-1059 -16466,-1059 -16466,1453 -15883,1453 "/>
    <polygon class="fil22 str2" points="-13916,-1059 -14715,-1059 -14715,1453 -13916,1453 "/>
    <polygon class="fil23 str2" points="-13389,-388 -13916,-388 -13916,1453 -13389,1453 "/>
    <polygon class="fil24 str2" points="-12311,-816 -13389,-816 -13389,1453 -12311,1453 "/>
    <polygon class="fil14 str2" points="-15591,-816 -15883,-816 -15883,1453 -15591,1453 "/>
    <polygon class="fil6 str2" points="-15299,-816 -15591,-816 -15591,1453 -15299,1453 "/>
    <polygon class="fil4 str2" points="-15007,-816 -15299,-816 -15299,1453 -15007,1453 "/>
    <polygon class="fil1 str2" points="-14715,-816 -15007,-816 -15007,1453 -14715,1453 "/>
   </g>
   <path class="fil25 str2" d="M-15666 2192l-640 0c-223,0 -403,180 -403,403l0 640c0,222 180,403 403,403l640 0c222,0 403,-181 403,-403l0 -640c0,-223 -181,-403 -403,-403z"/>
   <polygon class="fil25 str2" points="-15986,2494 -15986,2915 -15672,3229 "/>
   <polygon class="fil14 str2" points="-13081,2915 -13804,2915 -13804,3638 -13081,3638 "/>
   <polygon class="fil22 str2" points="-12358,2915 -13081,2915 -13081,3638 -12358,3638 "/>
   <polygon class="fil20 str2" points="-12719,2184 -13442,2184 -13442,2907 -12719,2907 "/>
  </g>
  <g id="_1804707966816">
   <g>
    <polygon class="fil26 str2" points="-15787,20571 -16237,20571 -15181,17138 -14151,17138 "/>
    <polygon class="fil26 str2" points="-8892,20571 -8442,20571 -9499,17138 -10528,17138 "/>
   </g>
   <g>
    <polygon class="fil11 str2" points="-16325,20797 -16804,20797 -15679,17138 -14582,17138 "/>
    <polygon class="fil11 str2" points="-8300,20797 -7820,20797 -8946,17138 -10043,17138 "/>
   </g>
   <path class="fil15 str2" d="M-6875 17504l-10875 0c-202,0 -366,-164 -366,-366 0,-202 164,-366 366,-366l10875 0c203,0 367,164 367,366 0,202 -164,366 -367,366z"/>
   <path class="fil27 str2" d="M-11814 15202l-996 0c-159,0 -287,128 -287,287l0 996c0,158 128,287 287,287l996 0c158,0 287,-129 287,-287l0 -996c0,-159 -129,-287 -287,-287z"/>
   <g>
    <g>
     <path class="fil28 str2" d="M-12512 14733c164,164 243,351 176,418 -66,66 -253,-13 -417,-177 -164,-164 -243,-351 -177,-417 67,-67 254,12 418,176z"/>
     <path class="fil28 str2" d="M-12112 14733c-164,164 -243,351 -177,418 67,66 254,-13 418,-177 164,-164 243,-351 176,-417 -66,-67 -253,12 -417,176z"/>
    </g>
    <path class="fil28 str2" d="M-12115 14754c0,232 -76,420 -170,420 -94,0 -170,-188 -170,-420 0,-231 76,-419 170,-419 94,0 170,188 170,419z"/>
   </g>
  </g>
  <g id="_1804707980512">
   <polyline class="fil8 str3" points="-16293,8330 -13548,6590 -10803,8330 "/>
   <path class="fil15 str2" d="M-9812 13540l-7472 0c-180,0 -326,-146 -326,-326l0 -4688c0,-180 146,-326 326,-326l7472 0c180,0 326,146 326,326l0 4688c0,180 -146,326 -326,326z"/>
   <path class="fil29 str2" d="M-17284 13274c-33,0 -60,-27 -60,-60l0 -4688c0,-33 27,-60 60,-60l7472 0c33,0 60,27 60,60l0 4688c0,33 -27,60 -60,60l-7472 0z"/>
   <path class="fil28" d="M-17284 13240l2276 -2085c116,-106 298,-97 403,21l819 918c122,136 338,124 443,-26l1040 -1481c110,-157 341,-162 458,-9l2033 2662 -7472 0z"/>
   <path class="fil30" d="M-15314 10890l-1466 0c-107,0 -195,-87 -195,-195 0,-108 88,-195 195,-195l1466 0c108,0 195,87 195,195 0,108 -87,195 -195,195z"/>
   <path class="fil30" d="M-10361 9659l-1465 0c-108,0 -196,-87 -196,-195l0 0c0,-108 88,-195 196,-195l1465 0c108,0 196,87 196,195l0 0c0,108 -88,195 -196,195z"/>
   <path class="fil30" d="M-12960 9464l-1465 0c-108,0 -195,-88 -195,-195 0,-108 87,-196 195,-196l1465 0c108,0 196,88 196,196 0,107 -88,195 -196,195z"/>
   <path class="fil9" d="M-16065 9610c0,176 -142,318 -317,318 -176,0 -318,-142 -318,-318 0,-175 142,-317 318,-317 175,0 317,142 317,317z"/>
  </g>
  <g id="_1804707976160">
   <g>
    <polygon class="fil26 str2" points="-4891,24648 -5193,24648 -4673,21428 -3884,21428 "/>
    <polygon class="fil26 str2" points="-2086,24648 -1784,24648 -2304,21428 -3093,21428 "/>
   </g>
   <polygon class="fil11 str2" points="-3164,19239 -3884,19239 -3884,21346 -3164,21346 "/>
   <g>
    <polygon class="fil11 str2" points="-5492,24992 -5826,24992 -5251,21428 -4379,21428 "/>
    <polygon class="fil11 str2" points="-1557,24992 -1222,24992 -1798,21428 -2670,21428 "/>
   </g>
   <path class="fil15 str2" d="M-1415 21596l-4219 0c-138,0 -250,-112 -250,-250l0 0c0,-138 112,-250 250,-250l4219 0c138,0 250,112 250,250l0 0c0,138 -112,250 -250,250z"/>
   <path class="fil15 str2" d="M-2152 16398l-2744 0c-334,0 -604,270 -604,603l0 2375c0,333 270,603 604,603l2744 0c333,0 603,-270 603,-603l0 -2375c0,-333 -270,-603 -603,-603z"/>
  </g>
 </g>
</svg>
