<?xml version="1.0" encoding="UTF-8"?>
<!DOCTYPE svg PUBLIC "-//W3C//DTD SVG 1.1//EN" "http://www.w3.org/Graphics/SVG/1.1/DTD/svg11.dtd">
<!-- Creator: CorelDRAW X7 -->
<svg xmlns="http://www.w3.org/2000/svg" xml:space="preserve" width="1200px" height="628px" version="1.1" style="shape-rendering:geometricPrecision; text-rendering:geometricPrecision; image-rendering:optimizeQuality; fill-rule:evenodd; clip-rule:evenodd"
viewBox="0 0 1200 628"
 xmlns:xlink="http://www.w3.org/1999/xlink">
 <defs>
  <style type="text/css">
   <![CDATA[
    .fil0 {fill:#4EC3EB}
    .fil1 {fill:#00B394}
    .fil2 {fill:#FEFEFE;fill-rule:nonzero}
    .fil3 {fill:#FEFEFE;fill-rule:nonzero}
   ]]>
  </style>
    <clipPath id="id0">
     <path d="M588 26l575 0 0 576 -575 0 0 -576z"/>
    </clipPath>
 </defs>
 <g id="Layer_x0020_1">
  <metadata id="CorelCorpID_0Corel-Layer"/>
  <rect class="fil0" width="1200" height="628"/>
  <g id="_2657716492480">
   <g style="clip-path:url(#id0)">
    <image x="588" y="26" width="575" height="575" xlink:href="flatpack4u_Images\flatpack4u_ImgID1.jpg"/>
   </g>
  </g>
  <circle class="fil1" cx="876" cy="314" r="250"/>
  <path class="fil2" d="M809 311l-35 0 0 -14c0,-7 0,-11 0,-12 -1,-2 -1,-4 -3,-5 -1,-1 -3,-2 -5,-2 -2,0 -5,1 -6,3 -2,3 -3,5 -3,8 0,3 2,10 4,20 3,11 5,17 5,19l25 0 0 27 -23 0c0,18 -6,31 -18,40 1,0 2,0 4,0 2,0 4,-1 5,-1 2,0 6,1 9,1 2,1 3,1 4,1 3,0 5,-1 7,-3 1,-1 2,-6 2,-13 0,-1 0,-3 0,-6l33 0 0 13c0,9 -1,16 -2,20 -1,4 -4,8 -9,10 -5,3 -11,4 -18,4 -5,0 -11,-1 -20,-3 -9,-2 -16,-3 -22,-3 -10,0 -18,2 -24,6l0 -23c3,-2 5,-4 7,-7 1,-3 3,-7 5,-14 1,-7 2,-12 2,-17 0,-1 0,-3 0,-5l-14 0 0 -27 9 0c-5,-10 -8,-20 -8,-29 0,-14 4,-24 13,-31 8,-7 19,-11 32,-11 14,0 25,4 33,11 8,8 12,18 12,30 0,4 0,8 -1,13z"/>
  <path id="1" class="fil2" d="M900 329c6,2 10,5 13,10 3,4 5,15 5,32 0,13 -2,22 -5,29 -3,7 -7,13 -15,16 -7,4 -16,6 -27,6 -12,0 -22,-2 -29,-7 -7,-4 -12,-9 -14,-15 -2,-6 -3,-17 -3,-32l0 -12 39 0 0 25c0,7 0,12 1,13 1,2 3,3 6,3 3,0 5,-1 6,-3 1,-3 1,-9 1,-19l0 -11c0,-6 0,-10 -2,-13 -1,-3 -3,-5 -6,-5 -3,-1 -8,-2 -15,-2l0 -23c9,0 15,0 17,-1 2,-1 4,-2 5,-5 1,-2 1,-6 1,-11l0 -9c0,-5 0,-9 -1,-11 -2,-2 -3,-2 -6,-2 -3,0 -4,1 -5,2 -1,2 -2,6 -2,12l0 13 -39 0 0 -13c0,-15 3,-26 10,-31 7,-5 18,-8 33,-8 19,0 31,4 38,11 7,8 10,18 10,31 0,9 -1,15 -3,19 -3,4 -7,8 -13,11z"/>
  <path id="2" class="fil2" d="M1018 260l0 25 -49 0 0 27c6,-7 14,-10 24,-10 11,0 19,3 25,9 5,6 8,18 8,35l0 22c0,12 -1,20 -2,25 -1,5 -3,10 -7,15 -3,4 -8,7 -14,10 -7,2 -14,3 -23,3 -11,0 -20,-1 -27,-5 -8,-3 -14,-9 -17,-16 -3,-7 -5,-18 -5,-32l0 -9 40 0 0 10c0,10 0,17 1,22 1,4 3,6 7,6 2,0 4,-1 5,-2 1,-1 2,-2 2,-4 0,-1 0,-7 0,-18l0 -32c0,-6 0,-10 -1,-12 -2,-2 -4,-3 -7,-3 -2,0 -3,1 -4,2 -2,1 -2,2 -3,3 0,1 0,4 0,9l-39 0 1 -80 85 0z"/>
  <path class="fil2" d="M750 220l6 -1c0,4 0,6 1,7 2,2 3,2 5,2 2,0 3,0 4,-1 1,-1 2,-1 2,-3 1,-1 1,-3 1,-5l0 -31 6 0 0 30c0,4 -1,7 -2,9 0,2 -2,4 -4,5 -2,1 -4,1 -7,1 -4,0 -7,-1 -9,-3 -2,-2 -3,-6 -3,-10z"/>
  <path id="1" class="fil2" d="M805 233l0 -5c-3,3 -6,5 -10,5 -2,0 -4,0 -6,-1 -1,-1 -3,-1 -3,-3 -1,-1 -2,-2 -2,-4 0,-1 0,-2 0,-5l0 -20 5 0 0 18c0,3 0,5 1,6 0,1 1,3 2,3 1,1 2,2 4,2 1,0 3,-1 4,-2 2,-1 3,-2 4,-3 0,-2 0,-4 0,-6l0 -18 6 0 0 33 -5 0z"/>
  <path id="2" class="fil2" d="M816 223l6 -1c0,2 1,4 2,5 2,1 4,2 6,2 3,0 5,-1 6,-2 1,-1 2,-2 2,-3 0,-2 -1,-3 -2,-3 -1,-1 -3,-1 -6,-2 -4,-1 -6,-2 -8,-3 -2,0 -3,-2 -3,-3 -1,-1 -2,-3 -2,-4 0,-2 1,-3 1,-4 1,-1 2,-2 3,-3 1,-1 2,-1 3,-2 2,0 4,0 5,0 3,0 5,0 7,1 2,0 3,1 4,3 1,1 2,3 2,5l-5 0c-1,-1 -1,-3 -2,-4 -2,-1 -3,-1 -5,-1 -3,0 -5,0 -6,1 -1,1 -1,2 -1,3 0,1 0,2 0,2 1,1 1,1 2,2 1,0 3,0 5,1 4,1 7,2 8,3 2,0 3,1 4,2 1,2 1,3 1,5 0,2 0,4 -1,5 -1,2 -3,3 -5,4 -2,1 -4,1 -7,1 -4,0 -7,-1 -9,-2 -3,-2 -4,-5 -5,-8z"/>
  <path id="3" class="fil2" d="M862 228l0 5c-1,0 -2,0 -4,0 -2,0 -3,0 -4,-1 -1,-1 -2,-1 -3,-2 0,-1 0,-4 0,-7l0 -19 -4 0 0 -4 4 0 0 -8 5 -3 0 11 6 0 0 4 -6 0 0 19c0,2 0,3 1,3 0,1 0,1 0,2 1,0 2,0 2,0 1,0 2,0 3,0z"/>
  <path id="4" class="fil2" d="M886 233l0 -29 -5 0 0 -4 5 0 0 -3c0,-2 0,-4 0,-5 1,-1 2,-3 3,-4 2,0 3,-1 6,-1 1,0 3,0 5,1l-1 5c-1,-1 -2,-1 -3,-1 -2,0 -3,1 -4,1 0,1 -1,2 -1,4l0 3 7 0 0 4 -7 0 0 29 -5 0z"/>
  <path id="5" class="fil2" d="M902 233l0 -33 5 0 0 5c1,-2 2,-4 3,-4 1,-1 3,-1 4,-1 2,0 4,0 5,1l-1 5c-2,0 -3,-1 -4,-1 -2,0 -3,1 -4,1 -1,1 -1,2 -2,3 0,2 -1,4 -1,7l0 17 -5 0z"/>
  <path id="6" class="fil2" d="M921 216c0,-6 1,-10 5,-13 2,-2 6,-3 10,-3 4,0 8,1 11,4 3,3 4,7 4,12 0,4 -1,7 -2,10 -1,2 -3,4 -5,5 -3,2 -5,2 -8,2 -5,0 -8,-1 -11,-4 -3,-3 -4,-7 -4,-13zm5 0c0,5 1,8 3,10 2,2 4,3 7,3 3,0 5,-1 7,-3 1,-2 2,-6 2,-10 0,-4 -1,-7 -2,-9 -2,-2 -4,-3 -7,-3 -3,0 -5,1 -7,3 -2,2 -3,5 -3,9z"/>
  <path id="7" class="fil2" d="M957 233l0 -33 5 0 0 5c1,-2 3,-3 4,-4 2,-1 4,-1 6,-1 3,0 5,0 6,1 2,1 3,2 3,4 3,-4 6,-5 10,-5 4,0 6,0 8,2 2,2 2,5 2,8l0 23 -5 0 0 -21c0,-2 0,-4 -1,-5 0,0 -1,-1 -2,-2 0,0 -2,-1 -3,-1 -2,0 -4,1 -6,3 -1,1 -2,3 -2,7l0 19 -5 0 0 -21c0,-3 -1,-5 -2,-6 -1,-1 -2,-2 -4,-2 -2,0 -3,1 -4,1 -2,1 -3,2 -3,4 -1,2 -1,4 -1,7l0 17 -6 0z"/>
  <polygon class="fil3" points="115,181 92,181 92,201 113,201 113,207 92,207 92,233 85,233 85,175 115,175 "/>
  <path id="1" class="fil3" d="M158 233l-6 0 0 -6 0 0c-3,5 -7,7 -13,7 -10,0 -15,-6 -15,-18l0 -25 7 0 0 24c0,9 3,13 10,13 3,0 6,-1 8,-3 2,-3 3,-6 3,-10l0 -24 6 0 0 42z"/>
  <path id="2" class="fil3" d="M194 198c-1,-1 -3,-1 -5,-1 -3,0 -6,1 -8,4 -1,3 -2,6 -2,11l0 21 -7 0 0 -42 7 0 0 9 0 0c1,-3 2,-5 4,-7 2,-1 4,-2 7,-2 1,0 3,0 4,0l0 7z"/>
  <path id="3" class="fil3" d="M235 233l-6 0 0 -24c0,-8 -4,-13 -10,-13 -3,0 -6,1 -8,4 -2,2 -4,6 -4,9l0 24 -6 0 0 -42 6 0 0 7 1 0c3,-5 7,-8 13,-8 5,0 8,2 11,5 2,3 3,7 3,13l0 25z"/>
  <path id="4" class="fil3" d="M251 181c-1,0 -2,-1 -3,-1 -1,-1 -1,-2 -1,-3 0,-2 0,-3 1,-4 1,0 2,-1 3,-1 2,0 3,1 3,1 1,1 2,2 2,4 0,1 -1,2 -2,3 0,0 -1,1 -3,1zm4 52l-7 0 0 -42 7 0 0 42z"/>
  <path id="5" class="fil3" d="M287 233c-1,1 -3,1 -6,1 -7,0 -11,-4 -11,-12l0 -25 -7 0 0 -6 7 0 0 -10 7 -2 0 12 10 0 0 6 -10 0 0 24c0,2 0,4 1,6 1,1 3,1 5,1 2,0 3,0 4,-1l0 6z"/>
  <path id="6" class="fil3" d="M330 233l-7 0 0 -6 0 0c-3,5 -7,7 -13,7 -10,0 -15,-6 -15,-18l0 -25 7 0 0 24c0,9 3,13 10,13 3,0 6,-1 8,-3 2,-3 3,-6 3,-10l0 -24 7 0 0 42z"/>
  <path id="7" class="fil3" d="M365 198c-1,-1 -3,-1 -5,-1 -3,0 -5,1 -7,4 -2,3 -3,6 -3,11l0 21 -6 0 0 -42 6 0 0 9 0 0c1,-3 3,-5 5,-7 2,-1 4,-2 6,-2 2,0 3,0 4,0l0 7z"/>
  <path id="8" class="fil3" d="M405 214l-30 0c1,5 2,8 4,11 3,2 6,3 10,3 5,0 9,-1 13,-4l0 6c-4,3 -9,4 -15,4 -5,0 -10,-2 -13,-6 -4,-3 -5,-9 -5,-16 0,-6 1,-11 5,-15 4,-4 8,-7 14,-7 5,0 9,2 12,6 3,3 5,8 5,14l0 4zm-7 -6c0,-4 -1,-7 -3,-9 -2,-2 -4,-3 -7,-3 -4,0 -6,1 -8,3 -3,3 -4,6 -4,9l22 0z"/>
  <path id="9" class="fil3" d="M176 344l-8 0 -6 -16 -25 0 -5 16 -8 0 22 -58 7 0 23 58zm-16 -23l-9 -24c-1,-1 -1,-3 -1,-4l0 0c-1,1 -1,3 -1,4l-9 24 20 0z"/>
  <path id="10" class="fil3" d="M181 342l0 -7c4,3 8,4 12,4 6,0 9,-2 9,-6 0,-1 0,-2 -1,-2 0,-1 -1,-2 -2,-2 -1,-1 -2,-2 -3,-2 -1,0 -2,-1 -4,-2 -2,0 -3,-1 -5,-2 -1,0 -2,-1 -3,-2 -1,-1 -2,-2 -2,-3 -1,-2 -1,-3 -1,-5 0,-2 1,-3 1,-5 1,-1 3,-3 4,-4 1,-1 3,-1 5,-2 2,0 4,-1 6,-1 4,0 7,1 10,2l0 7c-3,-2 -7,-3 -11,-3 -1,0 -2,0 -3,0 -1,1 -2,1 -3,2 -1,0 -1,1 -2,1 0,1 0,2 0,3 0,1 0,2 0,3 1,0 1,1 2,1 1,1 2,2 3,2 1,0 2,1 4,2 2,0 3,1 5,2 1,0 2,1 3,2 1,1 2,2 3,3 0,2 1,3 1,5 0,2 -1,4 -2,5 -1,2 -2,3 -3,4 -2,1 -4,2 -6,2 -2,1 -4,1 -6,1 -4,0 -8,-1 -11,-3z"/>
  <path id="11" class="fil3" d="M216 342l0 -7c4,3 8,4 12,4 6,0 9,-2 9,-6 0,-1 0,-2 -1,-2 0,-1 -1,-2 -2,-2 0,-1 -2,-2 -3,-2 -1,0 -2,-1 -3,-2 -2,0 -4,-1 -5,-2 -2,0 -3,-1 -4,-2 -1,-1 -1,-2 -2,-3 0,-2 -1,-3 -1,-5 0,-2 1,-3 2,-5 1,-1 2,-3 3,-4 2,-1 4,-1 5,-2 2,0 4,-1 6,-1 4,0 7,1 10,2l0 7c-3,-2 -7,-3 -11,-3 -1,0 -2,0 -3,0 -1,1 -2,1 -2,2 -1,0 -2,1 -2,1 -1,1 -1,2 -1,3 0,1 0,2 1,3 0,0 1,1 2,1 0,1 1,2 2,2 1,0 3,1 4,2 2,0 4,1 5,2 1,0 3,1 4,2 1,1 2,2 2,3 1,2 1,3 1,5 0,2 0,4 -1,5 -1,2 -3,3 -4,4 -2,1 -3,2 -5,2 -2,1 -4,1 -7,1 -4,0 -8,-1 -11,-3z"/>
  <path id="12" class="fil3" d="M288 325l-30 0c0,4 2,8 4,11 2,2 6,3 10,3 5,0 9,-1 13,-4l0 6c-4,3 -9,4 -15,4 -6,0 -10,-2 -14,-6 -3,-4 -5,-9 -5,-16 0,-6 2,-11 6,-16 4,-4 8,-6 14,-6 5,0 9,2 12,6 3,3 5,8 5,14l0 4zm-7 -6c0,-4 -1,-7 -3,-9 -2,-2 -4,-3 -8,-3 -3,0 -5,1 -8,3 -2,3 -3,6 -4,9l23 0z"/>
  <path id="13" class="fil3" d="M357 344l-7 0 0 -24c0,-5 0,-8 -2,-10 -1,-2 -4,-3 -7,-3 -3,0 -5,1 -7,4 -2,2 -3,6 -3,9l0 24 -7 0 0 -25c0,-8 -3,-12 -9,-12 -3,0 -6,1 -8,4 -2,2 -3,5 -3,9l0 24 -6 0 0 -42 6 0 0 7 1 0c3,-5 7,-8 13,-8 2,0 5,1 7,3 2,1 4,3 4,6 3,-6 8,-9 14,-9 9,0 14,6 14,17l0 26z"/>
  <path id="14" class="fil3" d="M376 338l0 0 0 6 -6 0 0 -62 6 0 0 28 0 0c4,-6 9,-9 15,-9 5,0 9,2 12,6 3,4 5,9 5,15 0,7 -2,12 -5,17 -4,4 -8,6 -14,6 -6,0 -10,-2 -13,-7zm0 -17l0 6c0,3 1,6 4,9 2,2 5,3 8,3 4,0 7,-1 10,-4 2,-3 3,-8 3,-13 0,-5 -1,-8 -3,-11 -2,-3 -5,-4 -9,-4 -4,0 -7,1 -9,4 -3,3 -4,6 -4,10z"/>
  <polygon id="15" class="fil3" points="425,344 419,344 419,282 425,282 "/>
  <path id="16" class="fil3" d="M472 302l-19 49c-4,8 -8,13 -15,13 -1,0 -3,-1 -4,-1l0 -6c1,1 3,1 4,1 3,0 6,-2 8,-6l3 -8 -16 -42 7 0 11 32c0,1 1,2 1,4l0 0c0,-1 1,-2 1,-4l12 -32 7 0z"/>
  <path id="17" class="fil3" d="M242 452l0 -8c1,1 2,2 3,3 2,0 3,1 4,1 2,1 3,1 5,1 1,1 3,1 4,1 4,0 7,-1 9,-3 2,-1 3,-3 3,-6 0,-2 0,-3 -1,-5 0,-1 -1,-2 -3,-3 -1,-1 -2,-2 -4,-2 -2,-1 -3,-2 -5,-3 -2,-1 -4,-2 -6,-3 -2,-1 -3,-3 -5,-4 -1,-1 -2,-3 -3,-4 0,-2 -1,-4 -1,-6 0,-3 1,-5 2,-7 1,-2 3,-3 5,-5 1,-1 4,-2 6,-3 2,0 5,-1 7,-1 6,0 10,1 13,3l0 7c-3,-2 -8,-3 -13,-3 -2,0 -3,0 -5,0 -1,0 -3,1 -4,2 -1,0 -2,1 -3,2 0,2 -1,3 -1,4 0,2 1,3 1,4 1,1 2,2 3,3 1,1 2,2 4,3 1,1 3,2 5,3 2,1 4,2 6,3 2,1 3,2 5,4 1,1 2,3 3,4 1,2 1,4 1,6 0,3 0,5 -1,7 -1,2 -3,4 -5,5 -2,2 -4,2 -6,3 -3,1 -6,1 -8,1 -1,0 -2,0 -4,0 -1,-1 -2,-1 -4,-1 -1,0 -3,-1 -4,-1 -1,-1 -2,-1 -3,-2z"/>
  <path id="18" class="fil3" d="M322 436l-30 0c0,4 2,8 4,10 2,3 6,4 10,4 5,0 9,-1 13,-4l0 6c-4,2 -9,4 -15,4 -6,0 -10,-2 -14,-6 -3,-4 -5,-9 -5,-16 0,-6 2,-12 6,-16 4,-4 8,-6 14,-6 5,0 9,2 12,5 3,4 5,9 5,15l0 4zm-7 -6c0,-4 -1,-7 -3,-9 -2,-2 -4,-3 -8,-3 -3,0 -5,1 -8,3 -2,2 -3,5 -4,9l23 0z"/>
  <path id="19" class="fil3" d="M354 420c-2,-1 -3,-1 -6,-1 -2,0 -5,1 -7,4 -2,2 -3,6 -3,11l0 21 -6 0 0 -42 6 0 0 9 1 0c1,-3 2,-5 4,-7 2,-2 4,-3 7,-3 1,0 3,1 4,1l0 7z"/>
  <path id="20" class="fil3" d="M397 413l-17 42 -6 0 -16 -42 7 0 11 30c1,3 1,5 1,6l0 0c1,-2 1,-4 2,-5l11 -31 7 0z"/>
  <path id="21" class="fil3" d="M407 403c-1,0 -2,-1 -3,-2 0,0 -1,-1 -1,-3 0,-1 1,-2 1,-3 1,-1 2,-1 3,-1 2,0 3,0 4,1 0,1 1,2 1,3 0,1 -1,2 -1,3 -1,1 -2,2 -4,2zm4 52l-7 0 0 -42 7 0 0 42z"/>
  <path id="22" class="fil3" d="M453 453c-4,2 -7,3 -12,3 -6,0 -11,-2 -14,-6 -4,-4 -6,-9 -6,-15 0,-7 2,-12 6,-17 4,-4 9,-6 16,-6 4,0 7,1 10,2l0 7c-3,-2 -7,-3 -10,-3 -5,0 -8,1 -11,4 -2,3 -4,7 -4,12 0,5 1,9 4,12 3,3 6,4 10,4 4,0 7,-1 11,-3l0 6z"/>
  <path id="23" class="fil3" d="M496 436l-29 0c0,4 1,8 3,10 3,3 6,4 10,4 5,0 9,-1 13,-4l0 6c-3,2 -8,4 -14,4 -6,0 -11,-2 -14,-6 -3,-4 -5,-9 -5,-16 0,-6 2,-12 5,-16 4,-4 9,-6 14,-6 5,0 10,2 13,5 3,4 4,9 4,15l0 4zm-7 -6c0,-4 -1,-7 -2,-9 -2,-2 -5,-3 -8,-3 -3,0 -6,1 -8,3 -2,2 -4,5 -4,9l22 0z"/>
 </g>
</svg>
