<?xml version='1.0' encoding='utf-8'?>
<svg xmlns="http://www.w3.org/2000/svg" version="1.1" width="600px" height="976px" viewBox="0 0 600 976"> <g id="layer1"> <g style="fill:rgb(255,252,0); fill-opacity:1.0; stroke-linejoin: miter"> <path d="M333.54993,424.73248Q329.24103,424.7951,326.21155,427.7491Q323.20963,430.83862,323.15875,435.07178Q323.22275,439.37878,326.1792,442.4085Q329.21738,445.3782,333.46262,445.45712Q337.7723,445.4068,340.80963,442.46185Q343.82056,439.38028,343.8833,435.14786Q343.83142,430.84015,340.88416,427.8025Q337.8537,424.82388,333.60938,424.73322"/> </g> <g style="fill:rgb(0,0,0); fill-opacity:0.07450981; stroke-linejoin: miter"> <path d="M337.13004,428.48074Q334.74704,434.682,333.21088,436.762Q331.71762,438.99173,328.37323,440.92865L328.18475,442.41223L333.04245,445.44223L333.0441,445.44223Q333.25186,445.45328,333.46262,445.45712Q337.7723,445.4068,340.80963,442.46185Q343.82056,439.38028,343.8833,435.14786Q343.85373,432.69122,342.8825,430.6477L342.88422,430.6477L337.1404,428.5203L337.13004,428.48074 Z"/> </g> <g style="fill:rgb(38,120,95); fill-opacity:1.0; stroke-linejoin: miter"> <path d="M337.01233,428.5856C337.0239,428.4991,337.02963,428.45267,337.02866,428.45175C337.02026,428.44687,336.0132,428.29843,334.78842,428.12198L332.56195,427.79968L331.9036,432.2821L331.2472,436.76498L333.49152,437.09183L335.73587,437.41864L336.388,432.94073C336.6928,430.84726,336.94684,429.07474,337.01233,428.5856 Z M335.91528,429.89035L335.49106,432.8045L335.06665,435.71863L335.91528,429.89035 Z M333.02597,432.46582C333.02615,432.46436,333.02637,432.4629,333.02658,432.46143C333.02686,432.45996,333.02698,432.45856,333.02716,432.45703 Z M333.22086,429.5072L332.37296,435.32993L332.79703,432.4178L333.22086,429.5072 Z"/> </g> <g style="fill:rgb(38,120,95); fill-opacity:1.0; stroke-linejoin: miter"> <path d="M337.16565,428.41013C337.15726,428.40524,336.15027,428.25674,334.9254,428.0803L332.6989,427.75793L332.0406,432.24042L331.3842,436.72324L333.62848,437.05014L335.8728,437.3769L336.5249,432.89905C336.88358,430.43558,337.17206,428.4166,337.16565,428.41013 Z M335.09668,435.68158C334.87717,435.68988,334.70715,435.77515,334.5704,435.94592C334.52094,436.00842,334.48364,436.0763,334.4654,436.13782C334.45215,436.19098,334.4307,436.2373,334.42105,436.2414C334.38373,436.25806,333.11255,436.07278,333.09766,436.04874C333.09213,436.0369,333.0866,435.98666,333.08655,435.9371C333.08893,435.82004,333.013,435.62375,332.92993,435.52725C332.8432,435.4304,332.71768,435.34787,332.60324,435.31473L332.50998,435.2883L332.9339,432.37598L333.35776,429.4655L333.47968,429.45947C333.54617,429.45636,333.6323,429.44324,333.67087,429.43042C333.85043,429.3686,334.04025,429.18536,334.09158,429.02234C334.10263,428.98358,334.11893,428.9347,334.12753,428.91382L334.14063,428.87366L334.80502,428.97046C335.54825,429.0786,335.4752,429.0515,335.47525,429.21472C335.4765,429.33228,335.52798,429.46985,335.6139,429.58508C335.70596,429.70844,335.87982,429.8236,336.00012,429.84116L336.05222,429.84872L335.62793,432.76282L335.20358,435.67688L335.09668,435.68158 Z"/> </g> <g style="fill:rgb(38,120,95); fill-opacity:1.0; stroke-linejoin: miter"> <path d="M335.41202,432.53333C335.4036,432.32684,335.3298,432.10327,335.21326,431.9342C335.0995,431.77087,334.98248,431.66772,334.80264,431.56824C334.67883,431.49878,334.64886,431.49078,334.44235,431.46075C334.24127,431.43146,334.2028,431.43146,334.07593,431.45862C333.8,431.51563,333.571,431.65283,333.406,431.8543C333.09375,432.23615,333.0681,432.8026,333.3436,433.2021C333.66614,433.66888,334.25635,433.83386,334.76038,433.59546C335.16418,433.40485,335.42877,432.97223,335.41202,432.53333 Z"/> </g> <g style="fill:rgb(42,175,134); fill-opacity:1.0; stroke-linejoin: miter"> <path d="M335.40164,432.72577C335.348,433.09424,335.10477,433.43292,334.76038,433.59546C334.25635,433.83386,333.66614,433.66888,333.3436,433.2021C333.18372,432.97028,333.12515,432.6822,333.1653,432.40662C333.19437,432.20734,333.275,432.01453,333.406,431.8543C333.571,431.65283,333.8,431.51563,334.07593,431.45862C334.2028,431.43146,334.24127,431.43146,334.44235,431.46075C334.64886,431.49078,334.67883,431.49878,334.80264,431.56824C334.98248,431.66772,335.0995,431.77087,335.21326,431.9342C335.3298,432.10327,335.4036,432.32684,335.41202,432.53333C335.41452,432.59784,335.4108,432.6623,335.40164,432.72577 Z M336.05222,429.84872L336.00012,429.84116C335.87982,429.8236,335.70596,429.70844,335.6139,429.58508C335.52798,429.46985,335.4765,429.33228,335.47525,429.21472C335.4752,429.0515,335.54825,429.0786,334.80502,428.97046L334.14063,428.87366L334.12753,428.91382C334.11893,428.9347,334.10263,428.98358,334.09158,429.02234C334.04025,429.18536,333.85043,429.3686,333.67087,429.43042C333.6323,429.44324,333.54617,429.45636,333.47968,429.45947L333.35776,429.4655L332.50998,435.2883L332.60324,435.31473C332.71768,435.34787,332.8432,435.4304,332.92993,435.52725C333.013,435.62375,333.08893,435.82004,333.08655,435.9371C333.0866,435.98666,333.09213,436.0369,333.09766,436.04874C333.11255,436.07278,334.38373,436.25806,334.42105,436.2414C334.4307,436.2373,334.45215,436.19098,334.4654,436.13782C334.48364,436.0763,334.52094,436.00842,334.5704,435.94592C334.70715,435.77515,334.87717,435.68988,335.09668,435.68158L335.20358,435.67688 Z"/> </g> <g style="fill:rgb(38,120,95); fill-opacity:1.0; stroke-linejoin: miter"> <path d="M332.01605,428.24945C331.98282,428.16876,331.96466,428.12585,331.96332,428.12543C331.95358,428.12543,331.00714,428.50024,329.8582,428.95987L327.7688,429.7939L329.44003,434.0051L331.11298,438.21555L333.22,437.3765L335.32712,436.5373L333.65274,432.33325C332.8701,430.36786,332.2039,428.7058,332.01605,428.24945 Z M331.71835,429.92792L332.80798,432.66376L333.8975,435.39963L331.71835,429.92792 Z M330.5038,433.603C330.50327,433.60165,330.5027,433.6003,330.50217,433.59885C330.50162,433.59756,330.501,433.59616,330.50043,433.59482 Z M329.1933,430.94333L331.3704,436.40994L330.2815,433.6758L329.1933,430.94333 Z"/> </g> <g style="fill:rgb(38,120,95); fill-opacity:1.0; stroke-linejoin: miter"> <path d="M332.0611,428.0208C332.05136,428.0208,331.105,428.3957,329.956,428.85526L327.86664,429.68936L329.53784,433.90054L331.2108,438.11105L333.31778,437.27188L335.4248,436.4328L333.75058,432.2287C332.82947,429.91602,332.06992,428.02325,332.0611,428.0208 Z M333.90494,435.3525C333.7191,435.4695,333.61444,435.62845,333.58136,435.8447C333.5698,435.9235,333.5714,436.00095,333.58636,436.0634C333.60153,436.116,333.6061,436.16678,333.59976,436.1752C333.57574,436.20834,332.38226,436.6835,332.35733,436.67007C332.34662,436.66257,332.3167,436.6218,332.2918,436.57895C332.2354,436.4764,332.0715,436.3444,331.95142,436.30234C331.8278,436.26175,331.67783,436.25308,331.5622,436.28152L331.4682,436.30533L330.37918,433.57126L329.29105,430.83884L329.3936,430.77267C329.44962,430.73672,329.5177,430.68228,329.54462,430.6519C329.6693,430.50858,329.742,430.2549,329.70493,430.08804C329.69516,430.04904,329.6848,429.99844,329.68182,429.97623L329.67316,429.93478L330.29678,429.68643C330.99466,429.4085,330.91782,429.4215,330.99945,429.56287C331.05927,429.66394,331.17267,429.7574,331.30466,429.8142C331.4461,429.87506,331.65427,429.88788,331.7672,429.8429L331.8161,429.8235L332.90573,432.5592L333.9952,435.29507L333.90494,435.3525 Z"/> </g> <g style="fill:rgb(38,120,95); fill-opacity:1.0; stroke-linejoin: miter"> <path d="M332.604,432.4685C332.49353,432.29382,332.31766,432.1371,332.13223,432.0489C331.95203,431.96436,331.79916,431.93347,331.59366,431.93732C331.45178,431.9391,331.42175,431.94714,331.22787,432.02435C331.0391,432.09955,331.0058,432.11877,330.90958,432.2058C330.69907,432.39316,330.5694,432.62643,330.5272,432.88345C330.4477,433.3702,330.70868,433.87363,331.14697,434.08176C331.65976,434.32486,332.25333,434.17245,332.57074,433.71417C332.82513,433.34717,332.838,432.84015,332.604,432.4685 Z"/> </g> <g style="fill:rgb(42,175,134); fill-opacity:1.0; stroke-linejoin: miter"> <path d="M332.6912,432.64032C332.829,432.98627,332.7877,433.40112,332.57074,433.71417C332.25333,434.17245,331.65976,434.32486,331.14697,434.08176C330.89267,433.961,330.69788,433.74075,330.5949,433.48203C330.52045,433.295,330.49384,433.08774,330.5272,432.88345C330.5694,432.62643,330.69907,432.39316,330.90958,432.2058C331.0058,432.11877,331.0391,432.09955,331.22787,432.02435C331.42175,431.94714,331.45178,431.9391,331.59366,431.93732C331.79916,431.93347,331.95203,431.96436,332.13223,432.0489C332.31766,432.1371,332.49353,432.29382,332.604,432.4685C332.6384,432.52313,332.66742,432.58075,332.6912,432.64032 Z M331.8161,429.8235L331.7672,429.8429C331.65427,429.88788,331.4461,429.87506,331.30466,429.8142C331.17267,429.7574,331.05927,429.66394,330.99945,429.56287C330.91782,429.4215,330.99466,429.4085,330.29678,429.68643L329.67316,429.93478L329.68182,429.97623C329.6848,429.99844,329.69516,430.04904,329.70493,430.08804C329.742,430.2549,329.6693,430.50858,329.54462,430.6519C329.5177,430.68228,329.44962,430.73672,329.3936,430.77267L329.29105,430.83884L331.4682,436.30533L331.5622,436.28152C331.67783,436.25308,331.8278,436.26175,331.95142,436.30234C332.0715,436.3444,332.2354,436.4764,332.2918,436.57895C332.3167,436.6218,332.34662,436.66257,332.35733,436.67007C332.38226,436.6835,333.57574,436.20834,333.59976,436.1752C333.6061,436.16678,333.60153,436.116,333.58636,436.0634C333.5714,436.00095,333.5698,435.9235,333.58136,435.8447C333.61444,435.62845,333.7191,435.4695,333.90494,435.3525L333.9952,435.29507 Z"/> </g> <g style="fill:rgb(90,173,233); fill-opacity:1.0; stroke-linejoin: miter"> <path d="M338.78796,427.96924L331.61557,432.03867L333.9813,436.1903L341.1453,432.12927L338.7911,427.97476"/> </g> <g style="fill:rgb(255,218,0); fill-opacity:1.0; stroke-linejoin: miter"> <path d="M332.74866,432.7611L332.97223,433.20416L332.9737,433.20337L333.74902,432.81238L333.5255,432.36926L332.74866,432.7611"/> </g> <g style="fill:rgb(255,255,255); fill-opacity:1.0; stroke-linejoin: miter"> <path d="M333.28238,433.38968L333.18057,433.5226Q333.1906,433.53223,333.199,433.5388Q333.20746,433.54538,333.21893,433.55026L333.2752,433.47934L333.38635,433.69702L333.31055,433.73575Q333.31366,433.7469,333.31934,433.75806Q333.32532,433.76968,333.33246,433.7787L333.53027,433.67767Q333.5261,433.6658,333.52063,433.6552Q333.51575,433.64566,333.50827,433.6347L333.4359,433.67154L333.28995,433.38574L333.28238,433.38968 Z M333.52628,433.26187Q333.4982,433.27634,333.4803,433.29373Q333.46234,433.31113,333.44846,433.32773Q333.4552,433.3383,333.46466,433.34683Q333.4736,433.35577,333.48285,433.36383Q333.4949,433.34866,333.50876,433.33463Q333.52234,433.32083,333.54587,433.30865Q333.5464,433.30835,333.54688,433.30814Q333.5788,433.29184,333.60324,433.29724Q333.62766,433.30267,333.6414,433.32938Q333.64835,433.34302,333.64975,433.3583Q333.6517,433.37326,333.64975,433.39078Q333.6484,433.40817,333.64398,433.42822Q333.6399,433.44757,333.6347,433.47003L333.59473,433.63654L333.60107,433.64157L333.8262,433.5266Q333.82465,433.52097,333.82236,433.51514Q333.82,433.50925,333.81717,433.50375Q333.81412,433.49768,333.8107,433.4924Q333.8073,433.48703,333.8035,433.48203L333.66943,433.5505L333.68982,433.47055Q333.70435,433.41394,333.7068,433.37253Q333.70914,433.33105,333.69186,433.29715Q333.67947,433.2729,333.66156,433.25912Q333.64444,433.2455,333.62283,433.24197Q333.60178,433.238,333.57742,433.2428Q333.5533,433.24817,333.52744,433.26126Q333.52682,433.26157,333.52628,433.26187 Z M334.17,432.928L334.1701,433.29416L334.177,433.29767L334.3495,433.20956L334.38492,433.27887Q334.3916,433.27673,334.39838,433.27393Q334.40448,433.2708,334.4105,433.26773Q334.41086,433.26752,334.41107,433.26743Q334.4168,433.26443,334.42236,433.261Q334.42255,433.26096,334.42267,433.26086Q334.42813,433.258,334.434,433.25385L334.39856,433.1845L334.4452,433.16077Q334.44354,433.15512,334.44095,433.14886Q334.4386,433.14297,334.43576,433.13745Q334.43298,433.13193,334.42957,433.12656Q334.42627,433.12125,334.42242,433.11624L334.37585,433.13998L334.32672,433.04398Q334.3202,433.04593,334.31332,433.0488Q334.307,433.0514,334.3004,433.05478Q334.30008,433.05493,334.29984,433.05508Q334.29456,433.05786,334.289,433.0612Q334.2833,433.0648,334.27768,433.06897L334.32675,433.16504L334.2246,433.21713L334.2225,432.92227Q334.20828,432.92065,334.19434,432.92197Q334.18112,432.92365,334.17,432.928 Z M333.74753,433.15524Q333.74936,433.1613,333.75198,433.1676Q333.7547,433.17392,333.75748,433.17944Q333.7634,433.19122,333.7706,433.2002L333.90063,433.1339L333.8841,433.31003L333.8918,433.3151Q333.9006,433.3074,333.9108,433.30093Q333.91962,433.2958,333.92874,433.29114Q333.9297,433.29062,333.9307,433.29013Q333.96408,433.27307,333.99255,433.27762Q334.02115,433.2823,334.0371,433.31357Q334.04767,433.33435,334.04767,433.35294Q334.04776,433.37073,334.03983,433.38623Q334.03232,433.40155,334.01715,433.41446Q334.00287,433.4267,333.98416,433.43637Q333.98376,433.43658,333.98328,433.4368Q333.9606,433.4485,333.94077,433.4535Q333.92102,433.45844,333.9014,433.46008Q333.901,433.47305,333.90192,433.486Q333.90323,433.49875,333.9074,433.5106Q333.93365,433.50815,333.9579,433.50085Q333.9824,433.4935,334.00757,433.4805Q334.00806,433.48022,334.00858,433.47992Q334.03732,433.4652,334.05884,433.4448Q334.08105,433.42453,334.09232,433.399Q334.1038,433.374,334.10327,433.34436Q334.10242,433.31528,334.08588,433.283Q334.07758,433.26675,334.06354,433.2529Q334.0497,433.2396,334.0311,433.23184Q334.01324,433.2244,333.99115,433.2248Q333.9698,433.2255,333.94604,433.23764Q333.94403,433.23868,333.942,433.23978Q333.942,433.23978,333.94193,433.23978Q333.93994,433.2407,333.93866,433.24203L333.95923,433.0548L333.95267,433.05063L333.74753,433.15524 Z"/> </g> <g style="fill:rgb(255,255,255); fill-opacity:1.0; stroke-linejoin: miter"> <path d="M335.82782,431.9792Q335.8284,431.97882,335.82904,431.9785Q335.8589,431.96298,335.88153,431.9688Q335.90372,431.975,335.9157,431.99814Q335.92242,432.01102,335.92258,432.024Q335.92303,432.03613,335.91858,432.04755Q335.91406,432.0591,335.9062,432.07037Q335.8981,432.08112,335.88763,432.09113Q335.8739,432.0938,335.85962,432.0939Q335.84613,432.09445,335.8342,432.0915Q335.82217,432.08847,335.8117,432.08093Q335.802,432.07358,335.79526,432.0607Q335.78326,432.03754,335.79138,432.01566Q335.799,431.99442,335.82782,431.9792 Z M335.28903,432.432Q335.28943,432.4318,335.28986,432.43158Q335.30423,432.42398,335.31943,432.42203Q335.334,432.41962,335.34808,432.4242Q335.36215,432.42862,335.3754,432.4401Q335.3879,432.4518,335.3987,432.47244Q335.40857,432.49136,335.4104,432.50876Q335.41226,432.5261,335.40747,432.541Q335.40286,432.55588,335.3921,432.5679Q335.38223,432.57944,335.36734,432.58737Q335.36694,432.58762,335.3665,432.58783Q335.334,432.60464,335.3057,432.59525Q335.2777,432.58557,335.25763,432.54694Q335.24805,432.52847,335.24612,432.51114Q335.24442,432.49387,335.24884,432.4783Q335.2535,432.46362,335.26416,432.45142Q335.27457,432.43964,335.28903,432.432 Z M335.90894,432.1324Q335.92694,432.12888,335.94397,432.12918Q335.96033,432.1292,335.97498,432.1334Q335.98956,432.13748,336.00134,432.14645Q336.01315,432.15536,336.02066,432.16977Q336.03558,432.19858,336.0256,432.22467Q336.01642,432.2499,335.98172,432.26834Q335.981,432.26877,335.98022,432.26923Q335.94473,432.2877,335.91757,432.2808Q335.8905,432.27405,335.87555,432.24518Q335.868,432.2308,335.86755,432.21594Q335.867,432.2012,335.872,432.18695Q335.8764,432.17276,335.88608,432.15863Q335.89594,432.145,335.90894,432.1324 Z M335.263,432.21402Q335.2142,432.2446,335.1875,432.284Q335.1607,432.32275,335.1528,432.3668Q335.14545,432.4105,335.15454,432.4569Q335.1641,432.50284,335.18765,432.5481Q335.20825,432.58777,335.2317,432.61148Q335.25488,432.6348,335.28076,432.64417Q335.30603,432.65393,335.33426,432.65033Q335.36166,432.64655,335.39108,432.6313Q335.39175,432.63098,335.39236,432.63058Q335.4152,432.61844,335.43307,432.59903Q335.45123,432.57968,335.4606,432.5552Q335.47012,432.5306,335.46896,432.5018Q335.4672,432.47327,335.45145,432.4429Q335.43527,432.41205,335.4143,432.39432Q335.39346,432.37692,335.37057,432.37054Q335.34766,432.36414,335.3238,432.3674Q335.30072,432.3709,335.28015,432.38168Q335.27945,432.382,335.2787,432.38235Q335.24695,432.39932,335.23267,432.42474Q335.21823,432.4499,335.21704,432.47525Q335.207,432.44458,335.2052,432.41345Q335.2031,432.38312,335.21124,432.3547Q335.2194,432.32632,335.2382,432.3008Q335.2568,432.27615,335.28757,432.25623Q335.28638,432.2515,335.28433,432.24622Q335.28217,432.24075,335.27936,432.23557Q335.27356,432.22424,335.263,432.21402 Z M335.8056,431.93768Q335.78305,431.94965,335.76697,431.9662Q335.7502,431.98288,335.74142,432.00247Q335.73294,432.02127,335.7327,432.04227Q335.7331,432.063,335.74344,432.08307Q335.7597,432.11447,335.7883,432.1265Q335.81592,432.13828,335.8468,432.1372Q335.8364,432.1498,335.82758,432.1655Q335.81842,432.1808,335.81354,432.19894Q335.80917,432.21695,335.81058,432.2371Q335.81213,432.2566,335.82336,432.27814Q335.83755,432.30545,335.85855,432.31937Q335.8793,432.33282,335.9037,432.3358Q335.92786,432.33835,335.95343,432.33215Q335.9788,432.32565,336.00302,432.31305Q336.00406,432.3126,336.00488,432.31204Q336.02747,432.3,336.0468,432.28308Q336.06693,432.26608,336.07837,432.24435Q336.09027,432.2231,336.09088,432.1979Q336.0918,432.1733,336.0776,432.14606Q336.06635,432.1243,336.0506,432.1117Q336.03534,432.0987,336.01758,432.09225Q336.0004,432.08545,335.98218,432.08444Q335.9645,432.08316,335.9482,432.08447Q335.96725,432.0595,335.97406,432.02994Q335.98038,432.0005,335.96375,431.96854Q335.95337,431.94843,335.9359,431.93658Q335.9191,431.92432,335.898,431.92026Q335.8777,431.91638,335.85413,431.92017Q335.83093,431.92453,335.80725,431.9367Q335.80643,431.93713,335.8056,431.93768 Z M334.8164,432.5005Q334.83817,432.5475,334.8597,432.59384Q334.88138,432.6394,334.9034,432.6854L334.91092,432.68753Q334.92062,432.67715,334.9348,432.66653Q334.9481,432.65652,334.96295,432.64862Q334.9639,432.64816,334.96478,432.64767Q334.98743,432.6359,335.00638,432.6332Q335.02454,432.63034,335.03934,432.635Q335.05396,432.63922,335.0653,432.6497Q335.07605,432.6603,335.0835,432.67477Q335.1042,432.71445,335.08936,432.74625Q335.0751,432.77655,335.03207,432.79953Q335.03104,432.8001,335.03,432.80063Q335.0084,432.81198,334.99118,432.8164Q334.97406,432.82132,334.95514,432.82388Q334.9551,432.83774,334.95712,432.85046Q334.9589,432.86255,334.96323,432.8747Q334.98578,432.8728,335.0102,432.86453Q335.03427,432.8567,335.0538,432.84647Q335.05505,432.84583,335.05624,432.84515Q335.08612,432.82925,335.10846,432.80826Q335.13153,432.78717,335.14355,432.76117Q335.15503,432.7356,335.15402,432.70605Q335.1531,432.6766,335.1362,432.64417Q335.12253,432.6179,335.10367,432.6016Q335.08487,432.58585,335.06256,432.57913Q335.04044,432.573,335.0156,432.57684Q334.99066,432.58054,334.965,432.5939Q334.9643,432.59424,334.9637,432.59473Q334.95816,432.59747,334.9493,432.60278Q334.9398,432.60837,334.93106,432.61557L334.8865,432.5224L335.0152,432.4553Q335.01324,432.44916,335.01056,432.44272Q335.0076,432.43716,335.00446,432.43094Q335.00143,432.42517,334.99792,432.41983Q334.9953,432.41464,334.99133,432.40955L334.8164,432.5005 Z M335.39996,432.19705Q335.40192,432.20328,335.40457,432.20966Q335.40723,432.21613,335.4104,432.2222Q335.41342,432.22797,335.41684,432.23337Q335.41998,432.2382,335.42383,432.24283L335.59772,432.1524L335.62344,432.5236Q335.6388,432.5267,335.65332,432.52573Q335.667,432.52444,335.68246,432.52017L335.64844,432.07248L335.64453,432.0699L335.39996,432.19705 Z"/> </g> <g style="fill:rgb(255,255,255); fill-opacity:1.0; stroke-linejoin: miter"> <path d="M338.99252,430.30078Q339.00375,430.29562,339.01553,430.29333Q339.0305,430.29028,339.04544,430.2941Q339.0604,430.2981,339.0748,430.30945Q339.08853,430.3211,339.10074,430.3421Q339.11203,430.36142,339.11478,430.37955Q339.11758,430.39743,339.11343,430.41324Q339.10922,430.429,339.09872,430.4421Q339.0887,430.45496,339.07285,430.46414Q339.0685,430.4667,339.06412,430.46866Q339.03586,430.48215,339.0098,430.47482Q338.98026,430.4662,338.9573,430.4269Q338.94638,430.40808,338.94357,430.38998Q338.9407,430.372,338.9446,430.35568Q338.94876,430.33997,338.95938,430.32675Q338.96982,430.31366,338.98502,430.30475Q338.9888,430.30264,338.99252,430.30078 Z M338.6783,430.4836Q338.68942,430.47836,338.70126,430.47614Q338.71628,430.47296,338.73117,430.477Q338.7462,430.48096,338.76053,430.49228Q338.7742,430.50394,338.7864,430.52487Q338.79764,430.54413,338.80045,430.5622Q338.8033,430.5802,338.7991,430.596Q338.7949,430.61176,338.78433,430.62488Q338.77432,430.63776,338.75858,430.6469Q338.75412,430.6494,338.7498,430.65155Q338.72165,430.66504,338.69553,430.65765Q338.6658,430.649,338.64304,430.6097Q338.632,430.59085,338.62924,430.57288Q338.62656,430.5548,338.63028,430.53854Q338.6345,430.5228,338.645,430.50952Q338.6556,430.4964,338.67075,430.4876Q338.67453,430.48544,338.6783,430.4836 Z M338.94632,430.07925Q338.89694,430.1136,338.87106,430.15588Q338.8448,430.1976,338.83893,430.2439Q338.83337,430.28992,338.84503,430.33777Q338.8574,430.3853,338.88425,430.43143Q338.90762,430.4717,338.93338,430.49545Q338.95877,430.51862,338.98624,430.52707Q339.0131,430.53604,339.04245,430.5309Q339.0629,430.5271,339.08408,430.51706Q339.09238,430.5131,339.10074,430.50827Q339.1249,430.4942,339.14297,430.47232Q339.16092,430.45145,339.1696,430.4253Q339.17825,430.39926,339.17545,430.3693Q339.17227,430.33957,339.15433,430.30875Q339.13583,430.27728,339.11313,430.2598Q339.09048,430.2427,339.06625,430.23712Q339.04208,430.23166,339.01743,430.23618Q338.99954,430.23987,338.9835,430.2475Q338.9778,430.25006,338.97256,430.25314Q338.939,430.2727,338.92502,430.3004Q338.9113,430.32727,338.91147,430.35385L338.91135,430.35394Q338.89935,430.32227,338.89578,430.29013Q338.89224,430.2586,338.89932,430.22845Q338.90634,430.19843,338.9247,430.171Q338.94284,430.1443,338.97403,430.12195Q338.97256,430.11713,338.97012,430.11163Q338.9675,430.10614,338.9645,430.1009Q338.9578,430.08936,338.94632,430.07925 Z M339.33713,429.90997L339.08847,430.05475Q339.09073,430.06116,339.09384,430.06763Q339.09702,430.07434,339.10062,430.08057Q339.10397,430.0863,339.10782,430.0918Q339.11142,430.09674,339.1155,430.10132L339.29257,429.9983L339.33768,430.3843Q339.3539,430.38675,339.369,430.38495Q339.38333,430.38297,339.39926,430.3779L339.34146,429.9124L339.33713,429.90997 Z M338.63196,430.26193Q338.58258,430.2964,338.55676,430.33868Q338.5307,430.38055,338.5247,430.42685Q338.5192,430.4728,338.53085,430.52075Q338.54312,430.5683,338.57004,430.6143Q338.59348,430.65466,338.6191,430.67825Q338.6445,430.7013,338.6719,430.70993Q338.69888,430.71893,338.72818,430.7138Q338.74857,430.70993,338.7698,430.6998Q338.77792,430.6959,338.78635,430.69098Q338.81046,430.677,338.8287,430.6552Q338.84653,430.63422,338.8552,430.6081Q338.86386,430.58203,338.86118,430.55206Q338.85794,430.52243,338.83987,430.49158Q338.8217,430.46017,338.79892,430.4425Q338.77628,430.4255,338.75204,430.4201Q338.72775,430.41446,338.7031,430.41913Q338.68527,430.4226,338.66916,430.4303Q338.66367,430.43292,338.6583,430.4361Q338.6248,430.4555,338.6108,430.48328Q338.59702,430.5102,338.59702,430.53683Q338.58505,430.50528,338.58163,430.4729Q338.57797,430.4414,338.58505,430.41138Q338.5921,430.3813,338.61047,430.3537Q338.6286,430.32703,338.65973,430.3047Q338.6584,430.2999,338.65588,430.29437Q338.65326,430.28885,338.6502,430.28363Q338.6435,430.27203,338.63196,430.26193 Z M337.67758,431.0662Q337.6888,431.06097,337.7006,431.05878Q337.71555,431.0556,337.7305,431.05954Q337.7454,431.06348,337.75974,431.07477Q337.77347,431.0864,337.7856,431.10733Q337.79697,431.1267,337.7996,431.14478Q337.80246,431.16272,337.79825,431.17847Q337.79404,431.19415,337.78348,431.20737Q337.77347,431.2202,337.75772,431.2293Q337.75333,431.23196,337.74887,431.2341Q337.72073,431.2475,337.6946,431.2402Q337.665,431.23145,337.64218,431.1922Q337.6312,431.1733,337.6285,431.15533Q337.6257,431.13736,337.62955,431.1211Q337.63376,431.10535,337.64438,431.09222Q337.65488,431.079,337.67007,431.0701Q337.6738,431.06808,337.67758,431.0662 Z M338.27426,430.5158L338.2958,430.90576L338.3033,430.90912L338.4819,430.80518L338.5237,430.87686Q338.53,430.87457,338.53653,430.87146Q338.53714,430.87115,338.5377,430.8709Q338.54398,430.86713,338.5502,430.86346Q338.5565,430.85986,338.56247,430.85568Q338.56833,430.85236,338.57443,430.8473L338.53262,430.77557L338.5809,430.74753Q338.5789,430.7417,338.5757,430.735Q338.57285,430.729,338.5695,430.72327Q338.56625,430.71744,338.5623,430.71207Q338.55838,430.7065,338.554,430.70148L338.50583,430.72946L338.44797,430.62994Q338.44162,430.63232,338.43515,430.63547Q338.43448,430.6357,338.43393,430.63596Q338.4274,430.63916,338.42062,430.64313Q338.4147,430.64648,338.40878,430.6506Q338.40286,430.65485,338.39725,430.6595L338.4551,430.75903L338.3492,430.82062L338.32986,430.50665Q338.3146,430.50565,338.2999,430.50793Q338.28586,430.51047,338.27426,430.5158 Z M337.6312,430.8445Q337.58188,430.8788,337.556,430.92126Q337.52994,430.96307,337.5239,431.00934Q337.5184,431.05542,337.53018,431.10324Q337.54245,431.15076,337.56912,431.19684Q337.59262,431.2372,337.61826,431.2608Q337.64368,431.28387,337.67108,431.29245Q337.69794,431.30136,337.72723,431.29617Q337.74774,431.2923,337.76886,431.28232Q337.77722,431.27832,337.78558,431.27347Q337.80963,431.2595,337.82782,431.23773Q337.84573,431.2166,337.85434,431.1906Q337.863,431.16452,337.86026,431.1346Q337.8572,431.1049,337.8392,431.074Q337.8209,431.04263,337.798,431.02512Q337.77554,431.008,337.75125,431.00256Q337.72696,430.99698,337.70236,431.00162Q337.68454,431.00513,337.66837,431.01276Q337.66287,431.0155,337.6575,431.01852Q337.62393,431.03796,337.61002,431.06586Q337.59628,431.09283,337.59634,431.1194Q337.58426,431.0878,337.58084,431.05536Q337.5773,431.02383,337.58432,430.9939Q337.59134,430.9638,337.6097,430.9363Q337.62772,430.90955,337.6589,430.88724Q337.6575,430.88245,337.655,430.8769Q337.65244,430.87134,337.64944,430.86615Q337.64273,430.8546,337.6312,430.8445 Z M337.35754,431.06207L337.17938,431.16565Q337.2044,431.2135,337.22913,431.26083Q337.25403,431.30725,337.2793,431.3543L337.28735,431.35593Q337.29694,431.34476,337.3111,431.33295Q337.32538,431.32126,337.3415,431.31183Q337.3485,431.30768,337.35522,431.30453Q337.37048,431.29724,337.38416,431.29465Q337.40283,431.29074,337.4187,431.29486Q337.43414,431.29858,337.44653,431.30887Q337.4583,431.31955,337.4668,431.3342Q337.4903,431.3745,337.47644,431.40857Q337.46283,431.44174,337.41724,431.46823Q337.40753,431.4739,337.39874,431.478Q337.3874,431.48343,337.37738,431.4865Q337.3598,431.49255,337.3402,431.4962Q337.34082,431.5106,337.34363,431.52368Q337.346,431.53625,337.35114,431.54877Q337.37463,431.5457,337.39972,431.5358Q337.41248,431.53098,337.424,431.52557Q337.43475,431.52048,337.44434,431.51486Q337.47626,431.49628,337.4995,431.47223Q337.5224,431.4491,337.53375,431.42142Q337.5445,431.39413,337.54193,431.36337Q337.53943,431.33252,337.52026,431.2996Q337.50467,431.2729,337.48416,431.25674Q337.46384,431.24124,337.44006,431.2354Q337.4167,431.2301,337.391,431.23535Q337.37262,431.239,337.35388,431.24796Q337.34656,431.25143,337.3391,431.2557Q337.33325,431.25903,337.32312,431.26566Q337.31348,431.27197,337.3047,431.27994L337.25372,431.18488L337.38464,431.10864Q337.38232,431.1022,337.3792,431.09564Q337.37585,431.08997,337.3722,431.0837Q337.36877,431.0779,337.36493,431.07245Q337.36194,431.06714,337.35754,431.06207 Z M336.95923,431.2812L336.9807,431.6711L336.98822,431.6744L337.1668,431.57047L337.20856,431.6422Q337.2149,431.6398,337.22137,431.6367Q337.222,431.63644,337.22253,431.63614Q337.22876,431.63254,337.2351,431.62888Q337.24152,431.6252,337.24738,431.6209Q337.2531,431.61768,337.2594,431.61264L337.2176,431.54086L337.26575,431.51288Q337.2638,431.507,337.26068,431.50046Q337.2578,431.49435,337.25446,431.48856Q337.25116,431.48285,337.2473,431.47742Q337.24335,431.47192,337.23895,431.46677L337.19073,431.49487L337.13293,431.3953Q337.1266,431.39774,337.12006,431.40076Q337.11945,431.40112,337.1189,431.40143Q337.11224,431.40448,337.10547,431.40842Q337.09973,431.41177,337.09375,431.41595Q337.0877,431.42014,337.0821,431.42487L337.13995,431.52432L337.03424,431.58597L337.0149,431.27197Q336.99957,431.27106,336.98486,431.27338Q336.97076,431.27585,336.95923,431.2812 Z M336.73468,431.42444L336.52264,431.54788Q336.52496,431.55426,336.52814,431.5608Q336.53125,431.5674,336.53455,431.57324Q336.54163,431.58527,336.5498,431.59445L336.6844,431.51614L336.67706,431.70483L336.68555,431.7097Q336.69452,431.70105,336.7049,431.6935Q336.71515,431.68692,336.72552,431.6808Q336.7315,431.6774,336.7373,431.6746Q336.76544,431.6612,336.79077,431.66388Q336.82135,431.66708,336.8402,431.69962Q336.85272,431.72104,336.8537,431.74075Q336.85498,431.75974,336.84726,431.77676Q336.84024,431.79352,336.82486,431.80817Q336.8101,431.82242,336.79013,431.83398Q336.78006,431.83987,336.7706,431.84436Q336.75766,431.85056,336.74582,431.85416Q336.72507,431.8606,336.7043,431.86362Q336.70474,431.87744,336.70633,431.89114Q336.7086,431.90457,336.71365,431.91708Q336.74136,431.91284,336.7668,431.9036Q336.77975,431.89886,336.79294,431.89264Q336.80557,431.88663,336.81857,431.87918Q336.84897,431.86145,336.871,431.83798Q336.89352,431.81516,336.9039,431.78732Q336.9147,431.76004,336.9124,431.7284Q336.90985,431.69754,336.89038,431.664Q336.8806,431.64728,336.8648,431.63342Q336.8493,431.61996,336.82898,431.61282Q336.80957,431.60596,336.78607,431.60773Q336.76868,431.60928,336.75006,431.61807Q336.74445,431.62076,336.73877,431.6241Q336.7367,431.62527,336.73462,431.6266Q336.73248,431.62772,336.7312,431.62918L336.74207,431.42856L336.73468,431.42444 Z"/> </g> <g style="fill:rgb(255,173,83); fill-opacity:1.0; stroke-linejoin: miter"> <path d="M327.8871,434.07266L328.17688,442.12726L328.19852,442.12646L339.2595,441.7284L338.97876,433.92557L338.96967,433.67392L327.90872,434.07193"/> </g> <g style="fill:rgb(255,173,83); fill-opacity:1.0; stroke-linejoin: miter"> <path d="M327.8976,434.36478L328.1874,442.4193L328.20905,442.41852L339.27002,442.0205L338.98022,433.96597L327.8976,434.36478"/> </g> <g style="fill:rgb(201,122,35); fill-opacity:0.16078432; stroke-linejoin: miter"> <path d="M329.07526,435.25455L329.29807,441.44724L329.31525,441.44662L338.09247,441.1308L337.86966,434.93805L329.07526,435.25455"/> </g> <g style="fill:rgb(74,39,0); fill-opacity:0.11764706; stroke-linejoin: miter"> <path d="M327.8871,434.07266L328.17688,442.12726L328.1874,442.4193L328.84763,442.39557L328.5473,434.04886 Z"/> </g> <g style="fill:rgb(201,122,35); fill-opacity:1.0; stroke-linejoin: miter"> <path d="M336.92545,436.91736L336.9936,438.81073L336.99777,438.81055L339.1358,438.73358L339.06772,436.8402L336.92545,436.91736"/> </g> <g style="fill:rgb(175,163,150); fill-opacity:1.0; stroke-linejoin: miter"> <path d="M337.64774,437.19006Q337.40814,437.2083,337.247,437.38525Q337.09134,437.5647,337.10165,437.80743Q337.11963,438.0465,337.29724,438.2083Q337.4764,438.36334,337.718,438.35352Q337.95764,438.33557,338.11902,438.15887Q338.27502,437.97955,338.26498,437.73676Q338.24738,437.4978,338.07004,437.33575Q337.89117,437.18042,337.64963,437.18994"/> </g> <g style="fill:rgb(74,39,0); fill-opacity:0.06666667; stroke-linejoin: miter"> <path d="M336.97473,437.831L337.01025,438.81744L337.51917,438.79913L339.21848,438.7379L339.18295,437.75146 Z"/> </g> </g> </svg>