<svg xmlns="http://www.w3.org/2000/svg" version="1.1" x="0px" y="0px" viewBox="0 0 900 918"> <g id="layer1"> <g style="fill:rgb(119,236,253); fill-opacity:1.0; stroke-linejoin: miter"> <path d="M331.08704,404.47946Q322.1922,404.62665,315.9505,410.7373Q309.76642,417.1277,309.67896,425.86682Q309.82895,434.75763,315.94476,440.99982Q322.229,447.1177,330.99307,447.26294Q339.8896,447.14102,346.14755,441.0491Q352.35028,434.67502,352.46225,425.9375Q352.33722,417.04507,346.24026,410.7865Q339.97192,404.65015,331.2098,404.48068"/> </g> <g style="fill:rgb(0,0,0); fill-opacity:0.07450981; stroke-linejoin: miter"> <path d="M338.49326,412.20236Q333.59976,425.0138,330.43723,429.31396Q327.36392,433.9233,320.468,437.93576L320.085,440.99924L330.12567,447.2338L330.12897,447.2338Q330.55795,447.25574,330.99307,447.26294Q339.8896,447.14102,346.14755,441.0491Q352.35028,434.67502,352.46225,425.9375Q352.39096,420.86627,350.3774,416.65164L350.38092,416.65164L338.51492,412.284L338.49326,412.20236 Z"/> </g> <g> <g style="fill:rgb(255,173,83); fill-opacity:1.0; stroke-linejoin: miter"> <path d="M319.4358,423.78458L320.06763,440.41086L320.1123,440.40915L342.94446,439.54138L342.3324,423.4347L342.31256,422.91513L319.4804,423.78287"/> </g> <g> <g style="fill:rgb(38,120,95); fill-opacity:1.0; stroke-linejoin: miter"> <path d="M338.25076,412.4193C338.2743,412.24078,338.28595,412.145,338.28387,412.143C338.26654,412.13287,336.18704,411.83057,333.65787,411.47144L329.0602,410.8152L327.71988,420.0714L326.38345,429.32837L331.0179,429.9938L335.65244,430.65912L336.97992,421.41223C337.60043,417.08942,338.1176,413.42935,338.25076,412.4193 Z M335.9914,415.11725L335.12784,421.1348L334.26392,427.1525L335.9914,415.11725 Z M330.0376,420.446C330.03793,420.443,330.03836,420.43997,330.03885,420.4369C330.0393,420.4339,330.0396,420.43097,330.03995,420.42792 Z M330.42758,414.33746L328.7015,426.36136L329.56473,420.3477L330.42758,414.33746 Z"/> </g> <g style="fill:rgb(38,120,95); fill-opacity:1.0; stroke-linejoin: miter"> <path d="M338.56656,412.05637C338.54916,412.04636,336.46976,411.74402,333.94043,411.38474L329.3428,410.72855L328.00253,419.98486L326.66608,429.24176L331.30045,429.90717L335.93494,430.5725L337.26245,421.32565C337.9926,416.23874,338.57977,412.06973,338.56656,412.05637 Z M334.32568,427.07584C333.87262,427.09396,333.5219,427.2707,333.2404,427.6238C333.13852,427.75302,333.06174,427.89328,333.02432,428.02036C332.9973,428.1302,332.9532,428.22586,332.9332,428.2343C332.8563,428.26883,330.2313,427.89185,330.20053,427.84204C330.1891,427.8177,330.17743,427.71393,330.177,427.61166C330.18152,427.37,330.02396,426.96518,329.8521,426.7664C329.6726,426.56656,329.41312,426.39685,329.17685,426.32892L328.98422,426.2747L329.84717,420.261L330.7101,414.25098L330.96167,414.23795C331.09894,414.2313,331.27676,414.20383,331.35632,414.17725C331.72678,414.04886,332.11783,413.66983,332.2231,413.333C332.24585,413.25305,332.27924,413.152,332.29684,413.10898L332.32385,413.02597L333.69568,413.2229C335.23047,413.44318,335.07953,413.38742,335.08035,413.7244C335.0834,413.96698,335.19028,414.25085,335.36804,414.4884C335.55862,414.7428,335.9181,414.97968,336.1664,415.01538L336.27386,415.03082L335.41022,421.04828L334.54636,427.06583L334.32568,427.07584 Z"/> </g> <g style="fill:rgb(38,120,95); fill-opacity:1.0; stroke-linejoin: miter"> <path d="M334.96356,420.57544C334.94537,420.14917,334.792,419.688,334.55075,419.33932C334.31512,419.00266,334.0733,418.79028,333.70157,418.58557C333.44568,418.4428,333.3838,418.4264,332.9573,418.36526C332.54205,418.3055,332.46262,418.30566,332.2009,418.36252C331.63153,418.48126,331.15936,418.7655,330.81952,419.18204C330.17648,419.97153,330.12595,421.14105,330.69632,421.96454C331.3641,422.92697,332.5832,423.26486,333.62274,422.77072C334.45557,422.37558,335.00006,421.48132,334.96356,420.57544 Z"/> </g> <g style="fill:rgb(42,175,134); fill-opacity:1.0; stroke-linejoin: miter"> <path d="M334.94293,420.97263C334.83377,421.7336,334.333,422.43372,333.62274,422.77072C332.5832,423.26486,331.3641,422.92697,330.69632,421.96454C330.36533,421.48663,330.24323,420.8922,330.32504,420.32315C330.38406,419.91165,330.54977,419.5134,330.81952,419.18204C331.15936,418.7655,331.63153,418.48126,332.2009,418.36252C332.46262,418.30566,332.54205,418.3055,332.9573,418.36526C333.3838,418.4264,333.44568,418.4428,333.70157,418.58557C334.0733,418.79028,334.31512,419.00266,334.55075,419.33932C334.792,419.688,334.94537,420.14917,334.96356,420.57544C334.96893,420.70865,334.96158,420.84164,334.94293,420.97263 Z M336.27386,415.03082L336.1664,415.01538C335.9181,414.97968,335.55862,414.7428,335.36804,414.4884C335.19028,414.25085,335.0834,413.96698,335.08035,413.7244C335.07953,413.38742,335.23047,413.44318,333.69568,413.2229L332.32385,413.02597L332.29684,413.10898C332.27924,413.152,332.24585,413.25305,332.2231,413.333C332.11783,413.66983,331.72678,414.04886,331.35632,414.17725C331.27676,414.20383,331.09894,414.2313,330.96167,414.23795L330.7101,414.25098L328.98422,426.2747L329.17685,426.32892C329.41312,426.39685,329.6726,426.56656,329.8521,426.7664C330.02396,426.96518,330.18152,427.37,330.177,427.61166C330.17743,427.71393,330.1891,427.8177,330.20053,427.84204C330.2313,427.89185,332.8563,428.26883,332.9332,428.2343C332.9532,428.22586,332.9973,428.1302,333.02432,428.02036C333.06174,427.89328,333.13852,427.75302,333.2404,427.6238C333.5219,427.2707,333.87262,427.09396,334.32568,427.07584L334.54636,427.06583 Z"/> </g> </g> <g> <g style="fill:rgb(38,120,95); fill-opacity:1.0; stroke-linejoin: miter"> <path d="M327.9353,411.74622C327.86636,411.57983,327.82852,411.49106,327.82584,411.4904C327.8057,411.49036,325.85358,412.26813,323.48358,413.22168L319.17383,414.9522L322.6413,423.63858L326.11243,432.3235L330.45856,430.58252L334.80493,428.84143L331.331,420.16962C329.70703,416.1157,328.32495,412.6875,327.9353,411.74622 Z M327.3276,415.21237L329.5884,420.85547L331.849,426.49884L327.3276,415.21237 Z M324.83572,422.80408C324.83453,422.80127,324.83337,422.7985,324.83228,422.7955C324.83112,422.79276,324.82986,422.79,324.8287,422.78717 Z M322.1192,417.31897L326.63635,428.59494L324.37704,422.9553L322.1192,417.31897 Z"/> </g> <g style="fill:rgb(38,120,95); fill-opacity:1.0; stroke-linejoin: miter"> <path d="M328.02728,411.2739C328.00714,411.27393,326.05518,412.05176,323.6851,413.00537L319.37527,414.73593L322.84274,423.4222L326.31387,432.1072L330.65997,430.3662L335.00623,428.62524L331.53244,419.95343C329.6214,415.183,328.04538,411.2789,328.02728,411.2739 Z M331.86417,426.40155C331.48093,426.64383,331.26556,426.97226,331.19824,427.41882C331.17468,427.58167,331.17828,427.74152,331.2094,427.87027C331.24097,427.9789,331.2506,428.08377,331.23752,428.10114C331.18814,428.1695,328.72638,429.1555,328.6749,429.12784C328.65277,429.11243,328.59082,429.02838,328.5393,428.94003C328.42236,428.72852,328.08347,428.45667,327.83533,428.3704C327.57993,428.2871,327.27032,428.26987,327.03174,428.32913L326.83783,428.3786L324.5783,422.73904L322.3206,417.1028L322.53195,416.96576C322.6475,416.89133,322.7878,416.77866,322.84332,416.71588C323.10004,416.41946,323.24908,415.8956,323.17188,415.55127C323.15164,415.47073,323.13004,415.36652,323.12375,415.32047L323.10562,415.23502L324.3921,414.7197C325.8315,414.14304,325.67288,414.17023,325.84213,414.4617C325.96594,414.67014,326.2005,414.86255,326.47314,414.97934C326.76547,415.10437,327.19528,415.12982,327.42825,415.03665L327.52902,414.99628L329.78976,420.63934L332.05032,426.2826L331.86417,426.40155 Z"/> </g> <g style="fill:rgb(38,120,95); fill-opacity:1.0; stroke-linejoin: miter"> <path d="M329.1665,420.45322C328.93765,420.0931,328.57416,419.77042,328.19092,419.5891C327.81857,419.41534,327.5029,419.35223,327.07864,419.3609C326.78568,419.36523,326.72382,419.38196,326.32388,419.5421C325.93448,419.6981,325.86575,419.73795,325.66754,419.91806C325.23376,420.30566,324.96695,420.78784,324.88095,421.31854C324.7188,422.3237,325.2598,423.36185,326.16547,423.7898C327.2251,424.28943,328.4498,423.9725,329.10303,423.0248C329.62665,422.26614,329.65106,421.21948,329.1665,420.45322 Z"/> </g> <g style="fill:rgb(42,175,134); fill-opacity:1.0; stroke-linejoin: miter"> <path d="M329.3472,420.80756C329.63315,421.52106,329.54953,422.37772,329.10303,423.0248C328.4498,423.9725,327.2251,424.28943,326.16547,423.7898C325.63986,423.54138,325.23697,423.08765,325.0233,422.554C324.8687,422.1681,324.813,421.74036,324.88095,421.31854C324.96695,420.78784,325.23376,420.30566,325.66754,419.91806C325.86575,419.73795,325.93448,419.6981,326.32388,419.5421C326.72382,419.38196,326.78568,419.36523,327.07864,419.3609C327.5029,419.35223,327.81857,419.41534,328.19092,419.5891C328.57416,419.77042,328.93765,420.0931,329.1665,420.45322C329.23773,420.5659,329.29785,420.6847,329.3472,420.80756 Z M327.52902,414.99628L327.42825,415.03665C327.19528,415.12982,326.76547,415.10437,326.47314,414.97934C326.2005,414.86255,325.96594,414.67014,325.84213,414.4617C325.67288,414.17023,325.8315,414.14304,324.3921,414.7197L323.10562,415.23502L323.12375,415.32047C323.13004,415.36652,323.15164,415.47073,323.17188,415.55127C323.24908,415.8956,323.10004,416.41946,322.84332,416.71588C322.7878,416.77866,322.6475,416.89133,322.53195,416.96576L322.3206,417.1028L326.83783,428.3786L327.03174,428.32913C327.27032,428.26987,327.57993,428.2871,327.83533,428.3704C328.08347,428.45667,328.42236,428.72852,328.5393,428.94003C328.59082,429.02838,328.65277,429.11243,328.6749,429.12784C328.72638,429.1555,331.18814,428.1695,331.23752,428.10114C331.2506,428.08377,331.24097,427.9789,331.2094,427.87027C331.17828,427.74152,331.17468,427.58167,331.19824,427.41882C331.26556,426.97226,331.48093,426.64383,331.86417,426.40155L332.05032,426.2826 Z"/> </g> </g> <g style="fill:rgb(255,173,83); fill-opacity:1.0; stroke-linejoin: miter"> <path d="M319.4587,424.38748L320.09055,441.01376L320.13522,441.01205L342.96738,440.14435L342.33557,423.51804L319.45874,424.38748"/> </g> <g style="fill:rgb(201,122,35); fill-opacity:0.16078432; stroke-linejoin: miter"> <path d="M321.89346,426.21933L322.37927,439.0024L322.4147,439.00107L340.5328,438.3125L340.04697,425.52942L321.89346,426.21933"/> </g> <g style="fill:rgb(201,122,35); fill-opacity:1.0; stroke-linejoin: miter"> <path d="M338.10608,429.61932L338.2546,433.5276L338.2633,433.52725L342.6766,433.35953L342.5281,429.45126L338.10608,429.61932"/> </g> <g style="fill:rgb(175,163,150); fill-opacity:1.0; stroke-linejoin: miter"> <path d="M339.59827,430.17926Q339.1037,430.21808,338.77188,430.58392Q338.45123,430.95508,338.47354,431.45615Q338.5117,431.9494,338.87897,432.2827Q339.24945,432.60208,339.74808,432.58057Q340.24277,432.54266,340.57513,432.1772Q340.89642,431.80637,340.87476,431.30527Q340.83734,430.81195,340.47064,430.47824Q340.10068,430.15833,339.60208,430.17902"/> </g> <g style="fill:rgb(74,39,0); fill-opacity:0.11764706; stroke-linejoin: miter"> <path d="M319.4358,423.78458L320.06763,440.41086L320.09055,441.01376L321.4534,440.96198L320.7986,423.7327 Z"/> </g> <g style="fill:rgb(74,39,0); fill-opacity:0.06666667; stroke-linejoin: miter"> <path d="M338.2116,431.50522L338.28903,433.5414L339.33957,433.50146L342.84723,433.3681L342.7699,431.33194 Z"/> </g> </g> </g> </svg>