<?xml version="1.0" encoding="UTF-8"?>
<!DOCTYPE svg PUBLIC "-//W3C//DTD SVG 1.1//EN" "http://www.w3.org/Graphics/SVG/1.1/DTD/svg11.dtd">
<!-- Creator: CorelDRAW X7 -->
<svg xmlns="http://www.w3.org/2000/svg" xml:space="preserve" width="300px" height="300px" version="1.1" style="shape-rendering:geometricPrecision; text-rendering:geometricPrecision; image-rendering:optimizeQuality; fill-rule:evenodd; clip-rule:evenodd"
viewBox="0 0 2540 2540"
 xmlns:xlink="http://www.w3.org/1999/xlink">
 <defs>
  <style type="text/css">
   <![CDATA[
    .str0 {stroke:#F6D438;stroke-width:20}
    .fil4 {fill:#FEFEFE}
    .fil16 {fill:#FEFEFE}
    .fil18 {fill:#FFED00}
    .fil11 {fill:#FECE3A}
    .fil2 {fill:#F7B995}
    .fil3 {fill:#E1AA89}
    .fil10 {fill:#F9B33B}
    .fil12 {fill:#F3943B}
    .fil7 {fill:#F08DB9}
    .fil5 {fill:#EE7DAF}
    .fil6 {fill:#CB6C96}
    .fil9 {fill:#9D5675}
    .fil0 {fill:#D6E9D8}
    .fil15 {fill:#7688A1}
    .fil8 {fill:#5C3E3E}
    .fil1 {fill:#49BBBD}
    .fil13 {fill:#00A0E3}
    .fil17 {fill:#009846}
    .fil14 {fill:#3F5AA4;fill-rule:nonzero}
   ]]>
  </style>
     <clipPath id="id0">
      <path d="M1695 175l261 164 -210 313 -261 -163 210 -314z"/>
     </clipPath>
     <clipPath id="id1">
      <path d="M99 1168l232 -201 258 278 -232 201 -258 -278z"/>
     </clipPath>
     <clipPath id="id2">
      <path d="M625 1572l311 0 0 373 -311 0 0 -373z"/>
     </clipPath>
     <clipPath id="id3">
      <path d="M1368 2009l261 163 -210 314 -261 -164 210 -313z"/>
     </clipPath>
     <clipPath id="id4">
      <path d="M178 2063l312 0 0 373 -312 0 0 -373z"/>
     </clipPath>
     <clipPath id="id5">
      <path d="M658 729l311 0 0 374 -311 0 0 -374z"/>
     </clipPath>
     <clipPath id="id6">
      <path d="M1077 1727l287 -116 148 346 -287 115 -148 -345z"/>
     </clipPath>
     <clipPath id="id7">
      <path d="M561 159l312 0 0 373 -312 0 0 -373z"/>
     </clipPath>
     <clipPath id="id8">
      <path d="M2125 2118l311 0 0 373 -311 0 0 -373z"/>
     </clipPath>
     <clipPath id="id9">
      <path d="M54 41l437 0 0 426 -437 0 0 -426z"/>
     </clipPath>
     <clipPath id="id10">
      <path d="M1019 654l406 -163 158 396 -406 163 -158 -396z"/>
     </clipPath>
     <clipPath id="id11">
      <path d="M806 1190l406 -163 158 396 -406 162 -158 -395z"/>
     </clipPath>
     <clipPath id="id12">
      <path d="M1527 2115l406 -162 158 395 -406 163 -158 -396z"/>
     </clipPath>
     <clipPath id="id13">
      <path d="M138 532l438 0 0 426 -438 0 0 -426z"/>
     </clipPath>
     <clipPath id="id14">
      <path d="M60 1528l437 0 0 426 -437 0 0 -426z"/>
     </clipPath>
     <clipPath id="id15">
      <path d="M686 2019l437 0 0 426 -437 0 0 -426z"/>
     </clipPath>
     <clipPath id="id16">
      <path d="M1012 54l437 0 0 426 -437 0 0 -426z"/>
     </clipPath>
     <clipPath id="id17">
      <path d="M2028 41l438 0 0 426 -438 0 0 -426z"/>
     </clipPath>
 </defs>
 <g id="Layer_x0020_1">
  <metadata id="CorelCorpID_0Corel-Layer"/>
  <rect class="fil0" width="2540" height="2540"/>
  <polygon class="fil1" points="-3359,2622 -819,2622 -819,154 -3359,154 "/>
  <g id="_1804889711824">
   <path class="fil2" d="M-2852 1925c0,0 145,0 265,0 119,0 164,-186 164,-247 0,-62 0,-302 0,-302l-434 0 5 549z"/>
   <path class="fil2" d="M-2793 1519l-129 0c0,0 0,-419 0,-518 0,-99 129,-111 129,0 0,112 0,518 0,518z"/>
   <path class="fil2" d="M-2640 1435l-138 0c0,0 0,-421 0,-522 0,-100 138,-112 138,0 0,113 0,522 0,522z"/>
   <path class="fil2" d="M-2516 1490l-112 0c0,0 0,-404 0,-500 0,-96 112,-108 112,0 0,108 0,500 0,500z"/>
   <path class="fil2" d="M-2423 1477l-82 0c0,0 0,-289 0,-358 0,-68 82,-77 82,0 0,77 0,358 0,358z"/>
   <path class="fil2" d="M-2853 1925c-49,0 -176,-97 -218,-247 -31,-114 -62,-237 -92,-342 -30,-105 81,-133 144,-58 73,87 75,194 75,194 0,0 208,-17 296,202l-205 251z"/>
   <path class="fil3" d="M-2959 1502c-32,-220 -105,-258 -150,-266 30,-2 64,11 90,42 73,87 75,194 75,194 0,0 208,-17 296,202 0,0 -104,-201 -311,-172z"/>
   <polygon class="fil2" points="-2878,2411 -2878,1885 -2539,1885 -2539,2411 "/>
   <path class="fil2" d="M-1408 1925c0,0 -145,0 -265,0 -119,0 -164,-186 -164,-247 0,-62 0,-302 0,-302l435 0 -6 549z"/>
   <path class="fil2" d="M-1467 1519l129 0c0,0 0,-419 0,-518 0,-99 -129,-111 -129,0 0,112 0,518 0,518z"/>
   <path class="fil2" d="M-1620 1435l138 0c0,0 0,-421 0,-522 0,-100 -138,-112 -138,0 0,113 0,522 0,522z"/>
   <path class="fil2" d="M-1744 1490l112 0c0,0 0,-404 0,-500 0,-96 -112,-108 -112,0 0,108 0,500 0,500z"/>
   <path class="fil2" d="M-1837 1477l82 0c0,0 0,-289 0,-358 0,-68 -82,-77 -82,0 0,77 0,358 0,358z"/>
   <path class="fil2" d="M-1407 1925c49,0 176,-97 218,-247 31,-114 62,-237 92,-342 30,-105 -81,-133 -144,-58 -73,87 -75,194 -75,194 0,0 -208,-17 -296,202l205 251z"/>
   <path class="fil3" d="M-1301 1502c32,-220 105,-258 150,-266 -30,-2 -64,11 -90,42 -73,87 -75,194 -75,194 0,0 -208,-17 -296,202 0,0 104,-201 311,-172z"/>
   <polygon class="fil2" points="-1382,2411 -1382,1885 -1721,1885 -1721,2411 "/>
   <path class="fil4" d="M-1192 1283c0,0 46,-6 57,-20 11,-14 20,-55 20,-55 0,0 3,40 21,55 18,15 57,20 57,20 0,0 -44,1 -57,20 -12,19 -21,55 -21,55 0,0 -4,-42 -20,-55 -17,-13 -57,-20 -57,-20z"/>
   <path class="fil4" d="M-1367 1266c0,0 21,8 28,4 8,-3 22,-19 22,-19 0,0 -8,18 -4,28 4,10 19,21 19,21 0,0 -19,-9 -28,-4 -10,6 -22,19 -22,19 0,0 8,-19 4,-28 -4,-9 -19,-21 -19,-21z"/>
   <path class="fil4" d="M-1030 1024c0,0 8,-8 8,-12 0,-4 -5,-14 -5,-14 0,0 7,8 13,8 6,0 14,-4 14,-4 0,0 -9,6 -8,12 0,5 4,14 4,14 0,0 -7,-8 -12,-8 -5,0 -14,4 -14,4z"/>
   <path class="fil4" d="M-1289 1108c0,0 7,-1 8,-3 2,-2 3,-8 3,-8 0,0 1,6 3,8 3,2 8,3 8,3 0,0 -6,0 -8,3 -2,2 -3,7 -3,7 0,0 0,-6 -3,-7 -2,-2 -8,-3 -8,-3z"/>
   <path class="fil4" d="M-1188 1717c0,0 21,7 29,3 7,-3 21,-19 21,-19 0,0 -8,18 -4,28 4,11 20,21 20,21 0,0 -19,-9 -29,-4 -10,6 -21,19 -21,19 0,0 8,-19 3,-28 -4,-9 -19,-20 -19,-20z"/>
   <path class="fil4" d="M-974 1664c0,0 8,-8 8,-12 1,-5 -4,-14 -4,-14 0,0 7,7 13,8 5,0 14,-5 14,-5 0,0 -9,7 -8,13 0,5 4,13 4,13 0,0 -7,-7 -12,-8 -6,0 -15,5 -15,5z"/>
   <path class="fil4" d="M-1293 1439c0,0 8,-8 8,-12 0,-5 -4,-14 -4,-14 0,0 6,7 12,8 6,0 14,-5 14,-5 0,0 -8,7 -8,12 1,6 5,14 5,14 0,0 -8,-7 -13,-8 -5,0 -14,5 -14,5z"/>
   <path class="fil4" d="M-1213 1552c0,0 6,-1 8,-3 1,-2 2,-8 2,-8 0,0 1,6 3,8 3,2 8,3 8,3 0,0 -6,0 -8,2 -1,3 -3,8 -3,8 0,0 0,-6 -2,-8 -3,-1 -8,-2 -8,-2z"/>
   <path class="fil4" d="M-966 1219c0,0 5,4 8,3 2,0 8,-3 8,-3 0,0 -4,4 -4,8 0,3 3,7 3,7 0,0 -4,-4 -8,-4 -3,1 -7,3 -7,3 0,0 4,-4 3,-7 0,-3 -3,-7 -3,-7z"/>
   <path class="fil4" d="M-1038 1500c0,0 5,4 8,4 2,0 8,-3 8,-3 0,0 -4,4 -4,7 0,4 3,8 3,8 0,0 -4,-4 -8,-4 -3,1 -7,3 -7,3 0,0 4,-4 4,-7 -1,-3 -4,-8 -4,-8z"/>
   <path class="fil4" d="M-1338 369c0,0 9,-44 -1,-58 -9,-15 -46,-38 -46,-38 0,0 39,11 60,0 21,-12 39,-46 39,-46 0,0 -14,41 0,59 15,18 47,38 47,38 0,0 -43,-11 -61,0 -18,11 -38,45 -38,45z"/>
   <path class="fil4" d="M-1778 625c0,0 14,-17 14,-25 -1,-9 -12,-26 -12,-26 0,0 15,13 26,12 12,0 27,-10 27,-10 0,0 -15,14 -13,25 2,10 11,25 11,25 0,0 -16,-13 -26,-12 -10,0 -27,11 -27,11z"/>
   <path class="fil4" d="M-1925 160c0,0 -5,-10 -9,-11 -4,-2 -15,-1 -15,-1 0,0 10,-3 12,-8 2,-6 1,-15 1,-15 0,0 3,10 9,12 5,1 14,0 14,0 0,0 -9,4 -11,9 -2,5 -1,14 -1,14z"/>
   <path class="fil4" d="M-2030 371c0,0 2,-6 0,-8 -1,-2 -6,-5 -6,-5 0,0 5,1 8,-1 3,-1 6,-6 6,-6 0,0 -2,6 0,8 2,3 6,6 6,6 0,0 -6,-2 -8,0 -3,1 -6,6 -6,6z"/>
   <path class="fil4" d="M-1367 733c0,0 14,-17 14,-25 -1,-8 -12,-26 -12,-26 0,0 15,13 26,13 12,0 27,-11 27,-11 0,0 -16,14 -13,25 2,11 11,26 11,26 0,0 -16,-14 -26,-13 -10,1 -27,11 -27,11z"/>
   <path class="fil4" d="M-1071 381c0,0 -5,-10 -9,-11 -4,-2 -15,-1 -15,-1 0,0 10,-3 12,-9 2,-5 1,-14 1,-14 0,0 3,10 9,11 5,2 14,1 14,1 0,0 -9,4 -11,9 -2,4 -1,14 -1,14z"/>
   <path class="fil4" d="M-1571 537c0,0 -5,-10 -9,-12 -5,-1 -15,0 -15,0 0,0 9,-4 11,-9 3,-5 1,-14 1,-14 0,0 4,10 9,11 6,1 15,1 15,1 0,0 -10,4 -12,8 -2,5 0,15 0,15z"/>
   <path class="fil4" d="M-1247 462c0,0 1,-7 0,-9 -1,-2 -6,-5 -6,-5 0,0 5,2 8,0 3,-1 5,-6 5,-6 0,0 -2,6 0,8 2,3 7,5 7,5 0,0 -6,-1 -8,0 -3,2 -6,7 -6,7z"/>
   <path class="fil4" d="M-1607 190c0,0 6,-3 6,-6 1,-2 0,-8 0,-8 0,0 2,5 6,6 3,1 8,0 8,0 0,0 -6,2 -6,5 -1,4 0,9 0,9 0,0 -3,-6 -6,-6 -2,-1 -8,0 -8,0z"/>
   <path class="fil4" d="M-1374 135c0,0 5,-3 6,-5 0,-3 -1,-9 -1,-9 0,0 3,6 6,7 3,1 8,-1 8,-1 0,0 -5,3 -6,6 0,3 1,8 1,8 0,0 -3,-5 -6,-6 -3,-1 -8,0 -8,0z"/>
   <path class="fil4" d="M-2643 394c0,0 -38,-26 -41,-43 -3,-17 8,-59 8,-59 0,0 -22,35 -45,40 -23,6 -60,-7 -60,-7 0,0 39,20 41,43 2,22 -8,58 -8,58 0,0 24,-36 45,-40 20,-4 60,8 60,8z"/>
   <path class="fil4" d="M-2480 617c0,0 -22,-3 -27,-9 -5,-7 -10,-27 -10,-27 0,0 -1,20 -10,27 -8,7 -27,10 -27,10 0,0 21,0 27,9 6,9 10,27 10,27 0,0 2,-21 10,-27 8,-6 27,-10 27,-10z"/>
   <path class="fil4" d="M-2773 154c0,0 -3,-11 -1,-14 2,-4 10,-11 10,-11 0,0 -9,4 -14,2 -6,-2 -11,-10 -11,-10 0,0 4,9 1,14 -3,5 -10,10 -10,10 0,0 10,-3 15,-1 4,2 10,10 10,10z"/>
   <path class="fil4" d="M-2544 96c0,0 -6,-3 -6,-6 0,-2 1,-8 1,-8 0,0 -3,5 -6,6 -3,1 -9,-1 -9,-1 0,0 6,3 6,6 0,3 -1,8 -1,8 0,0 3,-5 6,-6 3,0 9,1 9,1z"/>
   <path class="fil4" d="M-2906 777c0,0 -22,-3 -27,-9 -5,-7 -10,-27 -10,-27 0,0 -1,19 -10,27 -9,7 -27,9 -27,9 0,0 21,1 27,10 6,9 10,26 10,26 0,0 2,-20 10,-26 8,-6 27,-10 27,-10z"/>
   <path class="fil4" d="M-3170 663c0,0 -3,-11 -2,-14 2,-4 11,-10 11,-10 0,0 -10,3 -15,1 -5,-2 -10,-10 -10,-10 0,0 4,9 1,14 -3,5 -10,10 -10,10 0,0 10,-3 14,-1 5,2 11,10 11,10z"/>
   <path class="fil4" d="M-2627 577c0,0 -4,-10 -2,-14 2,-4 11,-10 11,-10 0,0 -10,3 -15,1 -5,-2 -11,-10 -11,-10 0,0 5,10 2,14 -3,5 -11,10 -11,10 0,0 11,-3 15,-1 5,2 11,10 11,10z"/>
   <path class="fil4" d="M-2842 586c0,0 -6,-3 -6,-6 -1,-2 1,-8 1,-8 0,0 -3,5 -6,6 -3,0 -9,-1 -9,-1 0,0 6,3 6,6 0,3 -1,8 -1,8 0,0 3,-5 6,-6 3,0 9,1 9,1z"/>
   <path class="fil4" d="M-2952 182c0,0 -6,2 -8,0 -2,-1 -6,-6 -6,-6 0,0 2,5 0,8 -1,3 -6,6 -6,6 0,0 6,-2 8,0 3,1 6,6 6,6 0,0 -2,-6 0,-8 1,-3 6,-6 6,-6z"/>
   <path class="fil4" d="M-2998 438c0,0 -7,1 -9,0 -2,-1 -5,-6 -5,-6 0,0 1,5 0,8 -2,3 -7,5 -7,5 0,0 6,-2 9,0 2,2 5,7 5,7 0,0 -1,-6 0,-9 2,-2 7,-5 7,-5z"/>
   <path class="fil4" d="M-3069 1195c0,0 -24,-39 -19,-56 4,-17 31,-50 31,-50 0,0 -34,23 -57,19 -24,-5 -52,-31 -52,-31 0,0 27,34 20,55 -8,22 -32,50 -32,50 0,0 37,-23 57,-18 21,4 52,31 52,31z"/>
   <path class="fil4" d="M-2764 1475c0,0 -19,-11 -21,-19 -2,-8 2,-28 2,-28 0,0 -9,17 -20,20 -11,3 -29,-2 -29,-2 0,0 19,9 21,19 2,11 -2,28 -2,28 0,0 10,-17 20,-20 10,-2 29,2 29,2z"/>
   <path class="fil4" d="M-2733 858c0,0 1,-11 5,-13 3,-3 14,-6 14,-6 0,0 -10,0 -14,-4 -4,-5 -6,-14 -6,-14 0,0 0,11 -5,14 -4,3 -13,5 -13,5 0,0 10,1 14,5 3,4 5,13 5,13z"/>
   <path class="fil4" d="M-2712 1044c0,0 -3,-5 -2,-8 0,-2 4,-7 4,-7 0,0 -5,3 -8,3 -3,-1 -7,-4 -7,-4 0,0 4,4 3,7 -2,3 -5,7 -5,7 0,0 5,-3 8,-2 3,0 7,4 7,4z"/>
   <path class="fil4" d="M-3072 1575c0,0 -18,-11 -20,-19 -2,-8 2,-29 2,-29 0,0 -9,17 -20,21 -11,3 -29,-2 -29,-2 0,0 19,9 21,19 1,11 -3,28 -3,28 0,0 11,-17 21,-20 9,-2 28,2 28,2z"/>
   <path class="fil4" d="M-3150 1947c0,0 2,-11 5,-13 3,-3 14,-6 14,-6 0,0 -10,0 -14,-4 -4,-4 -6,-14 -6,-14 0,0 0,11 -4,14 -5,3 -14,5 -14,5 0,0 11,1 14,5 3,4 5,13 5,13z"/>
   <path class="fil4" d="M-2943 1325c0,0 2,-11 5,-13 3,-3 14,-6 14,-6 0,0 -10,0 -14,-4 -4,-4 -6,-14 -6,-14 0,0 1,11 -4,14 -5,3 -14,5 -14,5 0,0 11,1 14,5 3,4 5,13 5,13z"/>
   <path class="fil4" d="M-3275 1356c0,0 -3,-6 -3,-8 1,-2 5,-7 5,-7 0,0 -5,3 -8,3 -3,-1 -7,-5 -7,-5 0,0 3,5 2,8 -1,3 -4,7 -4,7 0,0 5,-3 8,-3 3,1 7,5 7,5z"/>
   <path class="fil4" d="M-3024 986c0,0 -6,-2 -8,-4 -1,-2 -2,-7 -2,-7 0,0 -1,5 -4,7 -2,2 -8,2 -8,2 0,0 6,1 8,4 2,2 2,8 2,8 0,0 1,-6 4,-8 2,-2 8,-2 8,-2z"/>
   <path class="fil4" d="M-3262 1007c0,0 -7,-2 -8,-4 -1,-2 -2,-7 -2,-7 0,0 -1,5 -4,7 -2,2 -8,2 -8,2 0,0 6,1 8,4 1,2 2,8 2,8 0,0 1,-6 4,-8 2,-2 8,-2 8,-2z"/>
   <path class="fil5" d="M-1344 863c-2,63 -36,122 -99,142 7,35 11,70 11,107 0,321 -306,581 -684,581 -377,0 -684,-260 -684,-581 0,-177 93,-336 240,-442 36,-26 75,-49 116,-68 9,-5 18,-9 28,-12 25,-11 51,-20 79,-28 69,-20 144,-31 221,-31 301,0 557,165 648,394 21,-7 33,-26 37,-47 -18,-3 -35,-9 -51,-18 -33,-21 -49,-71 -15,-99 49,-40 98,-28 126,9 18,-34 2,-76 -28,-99 -44,-33 18,-92 61,-59 72,56 89,204 -6,251z"/>
   <path class="fil5" d="M-2679 1315c0,0 -212,14 -247,-34 -34,-47 -28,-228 0,-278 29,-50 289,-55 289,-55l-42 367z"/>
   <path class="fil6" d="M-2283 667l-44 45 -216 69 -17 -111c36,-26 75,-49 116,-68 18,-6 29,-10 28,-12 -45,-66 -83,-132 -53,-129 55,7 100,53 132,101 35,52 54,105 54,105z"/>
   <path class="fil5" d="M-2284 1608c0,0 10,134 -24,156 -33,22 -162,18 -197,0 -36,-18 -100,-308 -100,-308l321 152z"/>
   <path class="fil5" d="M-1897 1608c0,0 -10,134 24,156 33,22 162,18 198,0 35,-18 99,-308 99,-308l-321 152z"/>
   <path class="fil5" d="M-2542 795c0,0 15,-345 73,-334 58,12 142,251 142,251l-215 83z"/>
   <path class="fil7" d="M-2526 750c0,0 11,-257 54,-249 44,9 51,209 51,209l-105 40z"/>
   <path class="fil5" d="M-2660 1266c0,0 -210,75 -184,110 26,35 177,44 177,44l7 -154z"/>
   <path class="fil8" d="M-2447 930c-9,0 -17,-8 -17,-17 0,-34 -28,-61 -62,-61 -34,0 -62,27 -62,61 0,9 -8,17 -18,17 -9,0 -17,-8 -17,-17 0,-52 44,-94 97,-94 53,0 97,42 97,94 0,9 -8,17 -18,17z"/>
   <path class="fil9" d="M-1935 620c0,15 -13,28 -29,28l-239 0c-16,0 -29,-13 -29,-28 0,-16 13,-28 29,-28l239 0c16,0 29,12 29,28z"/>
   <path class="fil10" d="M-1953 620c21,-26 33,-59 33,-95 0,-87 -72,-157 -161,-157 -89,0 -162,70 -162,157 0,36 13,69 34,95l256 0z"/>
   <path class="fil11" d="M-2183 620c-27,-28 -43,-65 -43,-107 0,-49 23,-93 60,-122 -46,28 -77,77 -77,134 0,36 13,69 34,95l26 0z"/>
   <path class="fil11" d="M-2156 620l26 0c-36,-20 -60,-58 -60,-102 0,-37 17,-70 45,-92 -35,21 -58,58 -58,101 0,38 18,72 47,93z"/>
   <path class="fil12" d="M-2165 620l15 0c-31,-21 -51,-56 -51,-95 0,-64 54,-117 120,-117 66,0 120,53 120,117 0,39 -21,74 -52,95l16 0c28,-23 45,-57 45,-95 0,-69 -58,-126 -129,-126 -72,0 -130,57 -130,126 0,38 18,72 46,95z"/>
   <path class="fil12" d="M-2077 391c0,3 -2,4 -4,4 -2,0 -4,-1 -4,-4l0 -12c0,-3 2,-4 4,-4 2,0 4,1 4,4l0 12z"/>
   <path class="fil12" d="M-1943 530c-2,0 -4,-2 -4,-4 0,-2 2,-4 4,-4l13 0c3,0 5,2 5,4 0,2 -2,4 -5,4l-13 0z"/>
   <path class="fil12" d="M-2233 530c-2,0 -4,-2 -4,-4 0,-2 2,-4 4,-4l13 0c3,0 5,2 5,4 0,2 -2,4 -5,4l-13 0z"/>
   <path class="fil12" d="M-1980 434c-2,1 -5,1 -6,0 -2,-2 -2,-4 0,-6l9 -9c2,-2 4,-2 6,0 2,1 2,4 0,6l-9 9z"/>
   <path class="fil12" d="M-2175 620c0,0 0,-1 -1,-2 -2,-1 -4,-1 -6,0l-2 2 9 0z"/>
   <path class="fil12" d="M-1978 620l-2 -2c-2,-1 -5,-1 -6,0 -1,1 -1,2 -1,2l9 0z"/>
   <path class="fil12" d="M-2191 425c-2,-2 -2,-5 0,-6 1,-2 4,-2 6,0l9 9c2,2 2,4 0,6 -2,1 -4,1 -6,0l-9 -9z"/>
   <path class="fil12" d="M-2025 403c-1,2 -4,3 -6,2 -2,-1 -3,-3 -2,-5l5 -12c1,-2 3,-3 5,-2 2,0 3,3 3,5l-5 12z"/>
   <path class="fil12" d="M-1954 580c-3,-1 -4,-3 -3,-5 1,-2 3,-3 6,-2l12 4c2,1 3,4 2,6 -1,2 -3,3 -5,2l-12 -5z"/>
   <path class="fil12" d="M-2223 474c-2,-1 -3,-3 -3,-5 1,-2 4,-3 6,-2l12 5c2,1 3,3 2,5 0,2 -3,3 -5,2l-12 -5z"/>
   <path class="fil12" d="M-1952 477c-2,1 -5,0 -6,-2 0,-2 1,-4 3,-5l12 -5c2,-1 4,0 5,2 1,2 0,4 -2,5l-12 5z"/>
   <path class="fil12" d="M-2219 587c-2,1 -5,0 -6,-2 0,-2 1,-5 3,-5l12 -5c2,-1 4,0 5,2 1,2 0,4 -2,5l-12 5z"/>
   <path class="fil12" d="M-2144 392c-1,-2 0,-5 2,-5 2,-1 5,0 5,2l6 12c1,2 0,4 -3,5 -2,1 -4,0 -5,-2l-5 -12z"/>
   <path class="fil12" d="M-2002 415c-2,2 -4,3 -6,2 -2,-2 -2,-4 -1,-6l7 -11c1,-2 4,-2 6,-1 2,1 2,4 1,6l-7 10z"/>
   <path class="fil12" d="M-1967 603c-2,-2 -3,-4 -2,-6 2,-2 4,-2 6,-1l11 7c2,1 3,4 1,5 -1,2 -3,3 -5,2l-11 -7z"/>
   <path class="fil12" d="M-2210 449c-2,-1 -3,-4 -2,-6 2,-1 4,-2 6,-1l11 7c2,1 3,4 1,6 -1,2 -4,2 -5,1l-11 -7z"/>
   <path class="fil12" d="M-1945 502c-2,0 -4,-1 -5,-3 0,-2 1,-4 3,-5l13 -3c2,0 5,1 5,4 1,2 -1,4 -3,4l-13 3z"/>
   <path class="fil12" d="M-2229 560c-2,1 -4,-1 -5,-3 0,-2 1,-4 4,-5l13 -2c2,-1 4,1 4,3 1,2 0,4 -3,5l-13 2z"/>
   <path class="fil12" d="M-2117 383c0,-3 1,-5 4,-5 2,-1 4,1 4,3l3 13c1,2 -1,4 -3,4 -2,1 -4,-1 -5,-3l-3 -12z"/>
   <path class="fil12" d="M-2053 394c0,2 -2,4 -5,3 -2,0 -3,-2 -3,-4l2 -13c1,-2 3,-3 5,-3 2,0 4,2 4,5l-3 12z"/>
   <path class="fil12" d="M-1946 554c-2,-1 -3,-3 -3,-5 0,-2 2,-4 5,-3l13 2c2,0 3,2 3,5 0,2 -2,3 -5,3l-13 -2z"/>
   <path class="fil12" d="M-2231 504c-2,0 -4,-3 -3,-5 0,-2 2,-3 4,-3l13 2c3,1 4,3 4,5 -1,2 -3,4 -5,3l-13 -2z"/>
   <path class="fil12" d="M-1965 452c-2,2 -5,1 -6,-1 -1,-1 -1,-4 1,-5l11 -8c2,-1 4,0 6,1 1,2 0,5 -1,6l-11 7z"/>
   <path class="fil12" d="M-2203 613c-2,2 -5,1 -6,-1 -1,-1 -1,-4 1,-5l11 -8c2,-1 4,0 6,1 1,2 1,5 -1,6l-11 7z"/>
   <path class="fil12" d="M-2171 407c-2,-1 -1,-4 1,-5 2,-2 4,-1 6,1l7 10c1,2 1,5 -1,6 -2,1 -4,1 -6,-1l-7 -11z"/>
  </g>
  <g id="_1804889700816">
   <ellipse class="fil13" transform="matrix(0.0652364 0.0408721 -0.0417272 0.062274 1716.8 390.366)" rx="3268" ry="3310"/>
   <g>
    <g style="clip-path:url(#id0)">
     <image x="1485" y="175" width="471" height="477" xlink:href="rating_Images\rating_ImgID1.png"/>
    </g>
   </g>
   <g>
    <path class="fil14" d="M1723 567l-28 -28c-28,2 -53,-2 -75,-10 -5,-4 -9,-8 -11,-10 -6,-6 -12,-15 -18,-25l-10 -3 -8 -8c-19,-19 -21,-34 -8,-47 1,0 3,-1 4,-3 -12,-14 -12,-27 0,-39 1,-1 3,-2 6,-4 -4,-6 -5,-12 -4,-18 0,-5 3,-10 8,-15 4,-4 9,-6 16,-8 1,-14 6,-25 15,-33 11,-10 25,-13 42,-8 18,5 36,17 54,35l5 5c10,-12 18,-26 23,-42l2 -8c7,-18 13,-30 20,-37 19,-18 41,-19 65,-4l7 4 -33 49 -4 70c0,5 -1,15 -4,28l-2 12c-2,13 -3,21 -2,25 1,4 3,9 9,14l22 22c-9,20 -21,38 -36,52 -15,15 -34,26 -55,34zm4 -15c16,-7 29,-16 40,-26 12,-12 23,-26 30,-41 -15,-16 -24,-27 -26,-33 -2,-5 -2,-18 2,-36 1,-8 3,-19 5,-33l3 -76 28 -41c-17,-8 -31,-7 -43,5 -7,6 -11,14 -14,25l-2 7c-7,25 -18,45 -33,59l-5 5 -7 -7c-20,-19 -37,-32 -51,-39 -14,-6 -25,-5 -33,3 -8,7 -12,15 -12,25 0,10 4,19 12,27l11 11 50 19c3,-13 0,-23 -9,-32 -2,-2 -5,-5 -10,-7 -4,-3 -10,-5 -17,-8l-9 -9 1 -17 15 15c6,2 12,5 16,8 5,2 9,5 12,8 16,16 19,36 9,59l-9 -4c4,12 3,24 -3,38l-10 -4c2,9 1,20 -3,34l-18 -7c2,11 0,22 -4,34l-34 -13c3,5 6,8 8,11l8 7c26,8 52,10 76,7l26 26zm-57 -112c1,-10 0,-19 -5,-26l-40 -16 -10 -10c-10,-9 -15,-18 -17,-25 -4,1 -7,2 -9,4 -4,4 -5,8 -3,14 2,5 6,12 14,20l19 19 51 20zm-15 29c0,-1 0,-2 1,-3 0,-7 -1,-13 -3,-19l-41 -16 -31 -31 -3 2c-8,8 -4,18 10,33l14 14 53 20zm-22 28c0,-2 0,-3 1,-4 1,-6 1,-12 0,-18l-39 -15 -17 -17 -1 1c-9,8 -7,18 5,30l6 6 45 17z"/>
    <path class="fil15" d="M1701 526l26 26c16,-7 29,-16 40,-26 12,-12 23,-26 30,-41 -15,-16 -24,-27 -26,-33 -2,-5 -2,-18 2,-36 1,-8 3,-19 5,-33l3 -76 28 -41c-17,-8 -31,-7 -43,5 -7,6 -11,14 -14,25l-2 7c-7,25 -18,45 -33,59l-5 5 -7 -7c-20,-19 -37,-32 -51,-39 -14,-6 -25,-5 -33,3 -8,7 -12,15 -12,25 0,10 4,19 12,27l11 11 50 19c3,-13 0,-23 -9,-32 -2,-2 -5,-5 -10,-7 -4,-3 -10,-5 -17,-8l-9 -9 1 -17 15 15c6,2 12,5 16,8 5,2 9,5 12,8 16,16 19,36 9,59l-9 -4c4,12 3,24 -3,38l-10 -4c2,9 1,20 -3,34l-18 -7c2,11 0,22 -4,34l-34 -13c3,5 6,8 8,11l8 7c26,8 52,10 76,7z"/>
    <path class="fil15" d="M1619 420l51 20c1,-10 0,-19 -5,-26l-40 -16 -10 -10c-10,-9 -15,-18 -17,-25 -4,1 -7,2 -9,4 -4,4 -5,8 -3,14 2,5 6,12 14,20l19 19z"/>
    <path class="fil15" d="M1653 447l-41 -16 -31 -31 -3 2c-8,8 -4,18 10,33l14 14 53 20c0,-1 0,-2 1,-3 0,-7 -1,-13 -3,-19z"/>
    <path class="fil15" d="M1634 475l-39 -15 -17 -17 -1 1c-9,8 -7,18 5,30l6 6 45 17c0,-2 0,-3 1,-4 1,-6 1,-12 0,-18z"/>
    <path class="fil15" d="M1668 453c2,9 1,20 -3,34l-18 -7c2,11 0,22 -4,34l-34 -13c3,5 6,8 8,11l8 7c26,8 52,10 76,7l26 26c16,-7 29,-16 40,-26 12,-12 23,-26 30,-41 -15,-16 -24,-27 -26,-33 -2,-5 -2,-18 2,-36 1,-8 3,-19 5,-33l3 -76 28 -41c-17,-8 -31,-7 -43,5 -7,6 -11,14 -14,25l-2 7c-7,25 -18,45 -33,59l-5 5 -7 -7c-20,-19 -37,-32 -51,-39 -14,-6 -25,-5 -33,3 -8,7 -12,15 -12,25 0,10 4,19 12,27l11 11 50 19c3,-13 0,-23 -9,-32 -2,-2 -5,-5 -10,-7 -4,-3 -10,-5 -17,-8l-9 -9 1 -17 15 15c6,2 12,5 16,8 5,2 9,5 12,8 16,16 19,36 9,59l-9 -4c4,12 3,24 -3,38l-10 -4z"/>
    <path class="fil16" d="M1668 453c2,9 1,20 -3,34l-18 -7c2,11 0,22 -4,34l-34 -13c3,5 6,8 8,11l8 7c26,8 52,10 76,7l26 26c16,-7 29,-16 40,-26 12,-12 23,-26 30,-41 -15,-16 -24,-27 -26,-33 -2,-5 -2,-18 2,-36 1,-8 3,-19 5,-33l3 -76 28 -41c-17,-8 -31,-7 -43,5 -7,6 -11,14 -14,25l-2 7c-7,25 -18,45 -33,59l-5 5 -7 -7c-20,-19 -37,-32 -51,-39 -14,-6 -25,-5 -33,3 -8,7 -12,15 -12,25 0,10 4,19 12,27l11 11 50 19c3,-13 0,-23 -9,-32 -2,-2 -5,-5 -10,-7 -4,-3 -10,-5 -17,-8l-9 -9 1 -17 15 15c6,2 12,5 16,8 5,2 9,5 12,8 16,16 19,36 9,59l-9 -4c4,12 3,24 -3,38l-10 -4z"/>
    <path class="fil16" d="M1619 420l51 20c1,-10 0,-19 -5,-26l-40 -16 -10 -10c-10,-9 -15,-18 -17,-25 -4,1 -7,2 -9,4 -4,4 -5,8 -3,14 2,5 6,12 14,20l19 19z"/>
    <path class="fil16" d="M1653 447l-41 -16 -31 -31 -3 2c-8,8 -4,18 10,33l14 14 53 20c0,-1 0,-2 1,-3 0,-7 -1,-13 -3,-19z"/>
    <path class="fil16" d="M1634 475l-39 -15 -17 -17 -1 1c-9,8 -7,18 5,30l6 6 45 17c0,-2 0,-3 1,-4 1,-6 1,-12 0,-18z"/>
   </g>
  </g>
  <g id="_1804744734688">
   <ellipse class="fil13" transform="matrix(0.0578774 -0.0501763 0.0512262 0.0552491 320.025 1203.21)" rx="3268" ry="3310"/>
   <g>
    <g style="clip-path:url(#id1)">
     <image x="99" y="967" width="490" height="479" xlink:href="rating_Images\rating_ImgID2.png"/>
    </g>
   </g>
   <g>
    <path class="fil14" d="M498 1243l-35 19c-6,27 -16,49 -30,68 -6,3 -10,6 -13,7 -8,5 -18,8 -30,11l-6 9 -10 5c-23,12 -39,10 -48,-6 0,0 -1,-2 -2,-4 -17,8 -30,4 -39,-10 0,-1 -2,-4 -3,-6 -7,1 -13,1 -18,-1 -6,-2 -10,-6 -13,-12 -3,-4 -4,-10 -4,-17 -13,-5 -23,-12 -29,-23 -7,-12 -6,-26 3,-41 10,-15 26,-29 49,-41l6 -3c-10,-13 -21,-24 -35,-33l-8 -4c-16,-11 -27,-20 -32,-28 -13,-23 -8,-43 13,-62l6 -5 40 44 70 21c4,2 13,5 26,11l12 5c12,5 20,8 24,9 4,0 10,-1 16,-5l28 -14c18,13 32,28 43,47 10,18 16,38 19,59zm-14 -7c-3,-17 -8,-31 -15,-44 -9,-14 -20,-28 -34,-39 -19,10 -33,16 -39,16 -6,1 -18,-3 -36,-12 -7,-3 -18,-7 -31,-12l-75 -23 -34 -37c-12,13 -15,27 -7,41 5,8 12,14 22,20l6 3c23,13 40,29 50,47l4 6 -8 5c-25,13 -42,25 -52,37 -10,11 -12,22 -7,32 6,8 13,14 23,17 10,2 20,1 29,-4l14 -8 32 -41c-12,-6 -23,-6 -34,-1 -3,2 -6,4 -9,8 -4,4 -8,8 -13,14l-11 6 -17 -5 19 -11c4,-5 8,-9 12,-13 4,-3 8,-6 12,-8 20,-11 40,-9 60,6l-5 8c12,0 24,4 36,12l-7 9c10,1 21,5 33,12l-10 15c11,1 22,5 32,13l-22 28c6,-2 10,-3 13,-5l9 -5c15,-23 24,-46 27,-70l33 -17zm-127 24c-9,-4 -18,-5 -27,-3l-27 34 -12 7c-12,6 -21,9 -29,9 -1,4 0,7 1,9 3,5 7,7 13,7 6,0 14,-3 24,-8l24 -13 33 -42zm25 21c-1,0 -2,0 -3,-1 -6,-2 -12,-3 -19,-3l-27 35 -38 20 1 4c5,9 17,9 35,-1l18 -10 33 -44zm23 29c-2,-1 -3,-2 -4,-2 -6,-3 -12,-4 -18,-5l-26 32 -21 12 0 1c6,10 17,11 32,3l8 -4 29 -37z"/>
    <path class="fil15" d="M451 1253l33 -17c-3,-17 -8,-31 -15,-44 -9,-14 -20,-28 -34,-39 -19,10 -33,16 -39,16 -6,1 -18,-3 -36,-12 -7,-3 -18,-7 -31,-12l-75 -23 -34 -37c-12,13 -15,27 -7,41 5,8 12,14 22,20l6 3c23,13 40,29 50,47l4 6 -8 5c-25,13 -42,25 -52,37 -10,11 -12,22 -7,32 6,8 13,14 23,17 10,2 20,1 29,-4l14 -8 32 -41c-12,-6 -23,-6 -34,-1 -3,2 -6,4 -9,8 -4,4 -8,8 -13,14l-11 6 -17 -5 19 -11c4,-5 8,-9 12,-13 4,-3 8,-6 12,-8 20,-11 40,-9 60,6l-5 8c12,0 24,4 36,12l-7 9c10,1 21,5 33,12l-10 15c11,1 22,5 32,13l-22 28c6,-2 10,-3 13,-5l9 -5c15,-23 24,-46 27,-70z"/>
    <path class="fil15" d="M324 1302l33 -42c-9,-4 -18,-5 -27,-3l-27 34 -12 7c-12,6 -21,9 -29,9 -1,4 0,7 1,9 3,5 7,7 13,7 6,0 14,-3 24,-8l24 -13z"/>
    <path class="fil15" d="M360 1277l-27 35 -38 20 1 4c5,9 17,9 35,-1l18 -10 33 -44c-1,0 -2,0 -3,-1 -6,-2 -12,-3 -19,-3z"/>
    <path class="fil15" d="M383 1303l-26 32 -21 12 0 1c6,10 17,11 32,3l8 -4 29 -37c-2,-1 -3,-2 -4,-2 -6,-3 -12,-4 -18,-5z"/>
    <path class="fil15" d="M369 1265c10,1 21,5 33,12l-10 15c11,1 22,5 32,13l-22 28c6,-2 10,-3 13,-5l9 -5c15,-23 24,-46 27,-70l33 -17c-3,-17 -8,-31 -15,-44 -9,-14 -20,-28 -34,-39 -19,10 -33,16 -39,16 -6,1 -18,-3 -36,-12 -7,-3 -18,-7 -31,-12l-75 -23 -34 -37c-12,13 -15,27 -7,41 5,8 12,14 22,20l6 3c23,13 40,29 50,47l4 6 -8 5c-25,13 -42,25 -52,37 -10,11 -12,22 -7,32 6,8 13,14 23,17 10,2 20,1 29,-4l14 -8 32 -41c-12,-6 -23,-6 -34,-1 -3,2 -6,4 -9,8 -4,4 -8,8 -13,14l-11 6 -17 -5 19 -11c4,-5 8,-9 12,-13 4,-3 8,-6 12,-8 20,-11 40,-9 60,6l-5 8c12,0 24,4 36,12l-7 9z"/>
    <path class="fil16" d="M369 1265c10,1 21,5 33,12l-10 15c11,1 22,5 32,13l-22 28c6,-2 10,-3 13,-5l9 -5c15,-23 24,-46 27,-70l33 -17c-3,-17 -8,-31 -15,-44 -9,-14 -20,-28 -34,-39 -19,10 -33,16 -39,16 -6,1 -18,-3 -36,-12 -7,-3 -18,-7 -31,-12l-75 -23 -34 -37c-12,13 -15,27 -7,41 5,8 12,14 22,20l6 3c23,13 40,29 50,47l4 6 -8 5c-25,13 -42,25 -52,37 -10,11 -12,22 -7,32 6,8 13,14 23,17 10,2 20,1 29,-4l14 -8 32 -41c-12,-6 -23,-6 -34,-1 -3,2 -6,4 -9,8 -4,4 -8,8 -13,14l-11 6 -17 -5 19 -11c4,-5 8,-9 12,-13 4,-3 8,-6 12,-8 20,-11 40,-9 60,6l-5 8c12,0 24,4 36,12l-7 9z"/>
    <path class="fil16" d="M324 1302l33 -42c-9,-4 -18,-5 -27,-3l-27 34 -12 7c-12,6 -21,9 -29,9 -1,4 0,7 1,9 3,5 7,7 13,7 6,0 14,-3 24,-8l24 -13z"/>
    <path class="fil16" d="M360 1277l-27 35 -38 20 1 4c5,9 17,9 35,-1l18 -10 33 -44c-1,0 -2,0 -3,-1 -6,-2 -12,-3 -19,-3z"/>
    <path class="fil16" d="M383 1303l-26 32 -21 12 0 1c6,10 17,11 32,3l8 -4 29 -37c-2,-1 -3,-2 -4,-2 -6,-3 -12,-4 -18,-5z"/>
   </g>
  </g>
  <g id="_1804751211904">
   <ellipse class="fil13" cx="765" cy="1741" rx="254" ry="246"/>
   <g>
    <g style="clip-path:url(#id2)">
     <image x="625" y="1572" width="311" height="374" xlink:href="rating_Images\rating_ImgID3.png"/>
    </g>
   </g>
   <g>
    <path class="fil14" d="M870 1886l-40 -9c-22,16 -45,26 -69,31 -6,-1 -11,-2 -15,-3 -8,-2 -18,-6 -29,-11l-10 2 -12 -2c-25,-6 -36,-18 -32,-35 1,-1 1,-3 2,-5 -19,-6 -26,-16 -22,-32 0,-2 1,-4 2,-7 -6,-4 -11,-8 -13,-13 -3,-5 -3,-10 -2,-17 1,-5 4,-10 9,-15 -7,-12 -9,-24 -6,-36 3,-14 14,-23 31,-28 18,-5 39,-5 65,1l7 1c1,-15 0,-31 -4,-47l-3 -8c-5,-19 -6,-32 -4,-42 6,-25 23,-37 52,-37l8 0 0 58 37 61c2,5 6,13 12,26l5 10c5,13 9,20 12,23 3,3 8,5 15,7l31 7c4,21 4,42 -1,62 -5,20 -13,40 -26,58zm-6 -15c9,-14 15,-28 19,-43 4,-16 5,-33 2,-51 -22,-4 -35,-9 -40,-13 -5,-3 -12,-14 -19,-32 -3,-7 -8,-16 -14,-29l-40 -66 0 -49c-19,2 -30,11 -34,26 -2,9 -1,18 3,29l2 7c8,24 10,47 5,67l-1 7 -9 -2c-28,-6 -50,-8 -65,-6 -15,2 -24,9 -27,19 -2,10 0,19 5,28 6,8 14,13 25,16l16 3 52 -10c-5,-12 -13,-20 -25,-22 -3,-1 -7,-1 -13,-1 -5,0 -11,1 -18,2l-13 -2 -9 -15 21 4c7,-1 13,-1 18,-1 6,-1 10,0 15,1 22,5 36,19 41,44l-10 2c10,8 16,18 19,33l-11 2c6,6 12,16 16,30l-18 4c7,8 12,18 15,31l-35 6c4,3 9,4 12,5l11 2c26,-8 49,-19 68,-34l36 8zm-111 -64c-4,-9 -10,-16 -19,-20l-43 8 -13 -3c-13,-3 -23,-7 -29,-12 -3,3 -4,6 -5,8 -1,5 1,10 5,14 5,3 12,6 23,9l28 6 53 -10zm4 32c-1,-1 -1,-2 -2,-3 -3,-6 -7,-10 -12,-14l-44 8 -43 -10 -1 4c-3,10 6,17 27,22l20 4 55 -11zm-3 36c-1,-2 -1,-4 -2,-5 -2,-5 -5,-10 -9,-15l-42 8 -24 -5 0 1c-3,11 4,19 21,22l9 2 47 -8z"/>
    <path class="fil15" d="M828 1863l36 8c9,-14 15,-28 19,-43 4,-16 5,-33 2,-51 -22,-4 -35,-9 -40,-13 -5,-3 -12,-14 -19,-32 -3,-7 -8,-16 -14,-29l-40 -66 0 -49c-19,2 -30,11 -34,26 -2,9 -1,18 3,29l2 7c8,24 10,47 5,67l-1 7 -9 -2c-28,-6 -50,-8 -65,-6 -15,2 -24,9 -27,19 -2,10 0,19 5,28 6,8 14,13 25,16l16 3 52 -10c-5,-12 -13,-20 -25,-22 -3,-1 -7,-1 -13,-1 -5,0 -11,1 -18,2l-13 -2 -9 -15 21 4c7,-1 13,-1 18,-1 6,-1 10,0 15,1 22,5 36,19 41,44l-10 2c10,8 16,18 19,33l-11 2c6,6 12,16 16,30l-18 4c7,8 12,18 15,31l-35 6c4,3 9,4 12,5l11 2c26,-8 49,-19 68,-34z"/>
    <path class="fil15" d="M700 1817l53 -10c-4,-9 -10,-16 -19,-20l-43 8 -13 -3c-13,-3 -23,-7 -29,-12 -3,3 -4,6 -5,8 -1,5 1,10 5,14 5,3 12,6 23,9l28 6z"/>
    <path class="fil15" d="M743 1822l-44 8 -43 -10 -1 4c-3,10 6,17 27,22l20 4 55 -11c-1,-1 -1,-2 -2,-3 -3,-6 -7,-10 -12,-14z"/>
    <path class="fil15" d="M743 1855l-42 8 -24 -5 0 1c-3,11 4,19 21,22l9 2 47 -8c-1,-2 -1,-4 -2,-5 -2,-5 -5,-10 -9,-15z"/>
    <path class="fil15" d="M759 1819c6,6 12,16 16,30l-18 4c7,8 12,18 15,31l-35 6c4,3 9,4 12,5l11 2c26,-8 49,-19 68,-34l36 8c9,-14 15,-28 19,-43 4,-16 5,-33 2,-51 -22,-4 -35,-9 -40,-13 -5,-3 -12,-14 -19,-32 -3,-7 -8,-16 -14,-29l-40 -66 0 -49c-19,2 -30,11 -34,26 -2,9 -1,18 3,29l2 7c8,24 10,47 5,67l-1 7 -9 -2c-28,-6 -50,-8 -65,-6 -15,2 -24,9 -27,19 -2,10 0,19 5,28 6,8 14,13 25,16l16 3 52 -10c-5,-12 -13,-20 -25,-22 -3,-1 -7,-1 -13,-1 -5,0 -11,1 -18,2l-13 -2 -9 -15 21 4c7,-1 13,-1 18,-1 6,-1 10,0 15,1 22,5 36,19 41,44l-10 2c10,8 16,18 19,33l-11 2z"/>
    <path class="fil16" d="M759 1819c6,6 12,16 16,30l-18 4c7,8 12,18 15,31l-35 6c4,3 9,4 12,5l11 2c26,-8 49,-19 68,-34l36 8c9,-14 15,-28 19,-43 4,-16 5,-33 2,-51 -22,-4 -35,-9 -40,-13 -5,-3 -12,-14 -19,-32 -3,-7 -8,-16 -14,-29l-40 -66 0 -49c-19,2 -30,11 -34,26 -2,9 -1,18 3,29l2 7c8,24 10,47 5,67l-1 7 -9 -2c-28,-6 -50,-8 -65,-6 -15,2 -24,9 -27,19 -2,10 0,19 5,28 6,8 14,13 25,16l16 3 52 -10c-5,-12 -13,-20 -25,-22 -3,-1 -7,-1 -13,-1 -5,0 -11,1 -18,2l-13 -2 -9 -15 21 4c7,-1 13,-1 18,-1 6,-1 10,0 15,1 22,5 36,19 41,44l-10 2c10,8 16,18 19,33l-11 2z"/>
    <path class="fil16" d="M700 1817l53 -10c-4,-9 -10,-16 -19,-20l-43 8 -13 -3c-13,-3 -23,-7 -29,-12 -3,3 -4,6 -5,8 -1,5 1,10 5,14 5,3 12,6 23,9l28 6z"/>
    <path class="fil16" d="M743 1822l-44 8 -43 -10 -1 4c-3,10 6,17 27,22l20 4 55 -11c-1,-1 -1,-2 -2,-3 -3,-6 -7,-10 -12,-14z"/>
    <path class="fil16" d="M743 1855l-42 8 -24 -5 0 1c-3,11 4,19 21,22l9 2 47 -8c-1,-2 -1,-4 -2,-5 -2,-5 -5,-10 -9,-15z"/>
   </g>
  </g>
  <g id="_1804751201184">
   <ellipse class="fil13" transform="matrix(0.0652363 0.0408723 -0.0417274 0.0622739 1390.3 2223.67)" rx="3268" ry="3310"/>
   <g>
    <g style="clip-path:url(#id3)">
     <image x="1158" y="2009" width="471" height="477" xlink:href="rating_Images\rating_ImgID4.png"/>
    </g>
   </g>
   <g>
    <path class="fil14" d="M1397 2401l-28 -28c-28,1 -53,-2 -75,-11 -6,-4 -9,-7 -11,-10 -7,-6 -13,-14 -19,-25l-10 -3 -8 -8c-18,-18 -21,-34 -7,-46 1,-1 2,-2 4,-3 -12,-15 -13,-28 0,-39 1,-1 3,-3 5,-5 -3,-6 -5,-12 -4,-18 1,-5 3,-10 8,-15 4,-3 10,-6 17,-8 1,-13 6,-24 15,-33 10,-10 24,-12 42,-7 17,5 35,16 54,35l4 4c10,-12 18,-26 24,-41l2 -8c6,-19 13,-31 20,-38 19,-17 40,-19 65,-4l6 4 -33 50 -3 70c-1,5 -2,14 -4,27l-2 12c-2,13 -3,22 -2,26 0,4 3,8 8,13l22 22c-8,21 -20,38 -36,53 -15,14 -33,25 -54,34zm4 -16c15,-7 28,-16 39,-26 13,-11 23,-25 31,-41 -16,-16 -25,-26 -27,-32 -2,-6 -1,-18 2,-37 2,-8 3,-18 5,-32l3 -77 29 -40c-17,-9 -32,-7 -44,4 -6,6 -11,14 -14,25l-2 7c-7,25 -18,45 -33,59l-5 5 -7 -6c-19,-20 -36,-33 -50,-39 -15,-6 -26,-6 -34,2 -7,7 -11,16 -11,26 0,10 4,18 11,26l12 11 49 19c3,-13 0,-23 -8,-32 -2,-2 -6,-4 -10,-7 -5,-2 -10,-5 -17,-8l-10 -8 2 -18 15 15c6,3 11,5 16,8 4,3 8,6 11,9 16,16 19,35 10,58l-10 -3c4,11 3,24 -2,37l-11 -4c2,9 1,21 -3,34l-17 -6c1,10 0,22 -5,34l-33 -14c2,5 5,9 8,11l7 7c27,8 52,10 77,7l26 26zm-58 -112c2,-10 0,-18 -4,-26l-41 -16 -10 -10c-9,-9 -15,-17 -17,-25 -4,1 -7,2 -9,4 -4,4 -5,9 -3,14 2,6 7,12 14,20l20 20 50 19zm-14 29c0,-1 0,-2 0,-3 1,-6 0,-13 -2,-19l-42 -16 -30 -30 -4 2c-7,7 -4,18 11,32l14 14 53 20zm-23 29c1,-2 1,-4 1,-5 1,-5 1,-11 0,-18l-39 -15 -17 -17 -1 1c-8,8 -7,18 5,30l7 6 44 18z"/>
    <path class="fil15" d="M1375 2359l26 26c15,-7 28,-16 39,-26 13,-11 23,-25 31,-41 -16,-16 -25,-26 -27,-32 -2,-6 -1,-18 2,-37 2,-8 3,-18 5,-32l3 -77 29 -40c-17,-9 -32,-7 -44,4 -6,6 -11,14 -14,25l-2 7c-7,25 -18,45 -33,59l-5 5 -7 -6c-19,-20 -36,-33 -50,-39 -15,-6 -26,-6 -34,2 -7,7 -11,16 -11,26 0,10 4,18 11,26l12 11 49 19c3,-13 0,-23 -8,-32 -2,-2 -6,-4 -10,-7 -5,-2 -10,-5 -17,-8l-10 -8 2 -18 15 15c6,3 11,5 16,8 4,3 8,6 11,9 16,16 19,35 10,58l-10 -3c4,11 3,24 -2,37l-11 -4c2,9 1,21 -3,34l-17 -6c1,10 0,22 -5,34l-33 -14c2,5 5,9 8,11l7 7c27,8 52,10 77,7z"/>
    <path class="fil15" d="M1293 2254l50 19c2,-10 0,-18 -4,-26l-41 -16 -10 -10c-9,-9 -15,-17 -17,-25 -4,1 -7,2 -9,4 -4,4 -5,9 -3,14 2,6 7,12 14,20l20 20z"/>
    <path class="fil15" d="M1327 2280l-42 -16 -30 -30 -4 2c-7,7 -4,18 11,32l14 14 53 20c0,-1 0,-2 0,-3 1,-6 0,-13 -2,-19z"/>
    <path class="fil15" d="M1307 2308l-39 -15 -17 -17 -1 1c-8,8 -7,18 5,30l7 6 44 18c1,-2 1,-4 1,-5 1,-5 1,-11 0,-18z"/>
    <path class="fil15" d="M1341 2286c2,9 1,21 -3,34l-17 -6c1,10 0,22 -5,34l-33 -14c2,5 5,9 8,11l7 7c27,8 52,10 77,7l26 26c15,-7 28,-16 39,-26 13,-11 23,-25 31,-41 -16,-16 -25,-26 -27,-32 -2,-6 -1,-18 2,-37 2,-8 3,-18 5,-32l3 -77 29 -40c-17,-9 -32,-7 -44,4 -6,6 -11,14 -14,25l-2 7c-7,25 -18,45 -33,59l-5 5 -7 -6c-19,-20 -36,-33 -50,-39 -15,-6 -26,-6 -34,2 -7,7 -11,16 -11,26 0,10 4,18 11,26l12 11 49 19c3,-13 0,-23 -8,-32 -2,-2 -6,-4 -10,-7 -5,-2 -10,-5 -17,-8l-10 -8 2 -18 15 15c6,3 11,5 16,8 4,3 8,6 11,9 16,16 19,35 10,58l-10 -3c4,11 3,24 -2,37l-11 -4z"/>
    <path class="fil16" d="M1341 2286c2,9 1,21 -3,34l-17 -6c1,10 0,22 -5,34l-33 -14c2,5 5,9 8,11l7 7c27,8 52,10 77,7l26 26c15,-7 28,-16 39,-26 13,-11 23,-25 31,-41 -16,-16 -25,-26 -27,-32 -2,-6 -1,-18 2,-37 2,-8 3,-18 5,-32l3 -77 29 -40c-17,-9 -32,-7 -44,4 -6,6 -11,14 -14,25l-2 7c-7,25 -18,45 -33,59l-5 5 -7 -6c-19,-20 -36,-33 -50,-39 -15,-6 -26,-6 -34,2 -7,7 -11,16 -11,26 0,10 4,18 11,26l12 11 49 19c3,-13 0,-23 -8,-32 -2,-2 -6,-4 -10,-7 -5,-2 -10,-5 -17,-8l-10 -8 2 -18 15 15c6,3 11,5 16,8 4,3 8,6 11,9 16,16 19,35 10,58l-10 -3c4,11 3,24 -2,37l-11 -4z"/>
    <path class="fil16" d="M1293 2254l50 19c2,-10 0,-18 -4,-26l-41 -16 -10 -10c-9,-9 -15,-17 -17,-25 -4,1 -7,2 -9,4 -4,4 -5,9 -3,14 2,6 7,12 14,20l20 20z"/>
    <path class="fil16" d="M1327 2280l-42 -16 -30 -30 -4 2c-7,7 -4,18 11,32l14 14 53 20c0,-1 0,-2 0,-3 1,-6 0,-13 -2,-19z"/>
    <path class="fil16" d="M1307 2308l-39 -15 -17 -17 -1 1c-8,8 -7,18 5,30l7 6 44 18c1,-2 1,-4 1,-5 1,-5 1,-11 0,-18z"/>
   </g>
  </g>
  <g id="_1804812058304">
   <ellipse class="fil13" cx="318" cy="2232" rx="254" ry="246"/>
   <g>
    <g style="clip-path:url(#id4)">
     <image x="178" y="2063" width="311" height="374" xlink:href="rating_Images\rating_ImgID5.png"/>
    </g>
   </g>
   <g>
    <path class="fil14" d="M423 2377l-39 -9c-23,16 -46,26 -69,31 -7,-1 -12,-2 -15,-3 -9,-1 -19,-5 -29,-11l-11 3 -11 -3c-26,-6 -36,-17 -32,-35 0,-1 1,-3 1,-5 -18,-5 -25,-16 -22,-32 1,-2 1,-4 3,-7 -7,-3 -11,-7 -14,-12 -2,-5 -3,-11 -1,-17 1,-6 4,-11 9,-16 -7,-12 -9,-24 -6,-36 3,-14 13,-23 31,-28 17,-5 39,-5 65,1l6 1c2,-15 0,-31 -4,-47l-2 -8c-5,-18 -7,-32 -5,-41 6,-25 24,-38 53,-38l8 0 -1 59 37 60c2,5 7,13 12,26l5 11c6,12 10,19 13,22 2,3 7,6 14,7l31 7c5,21 4,42 0,63 -5,20 -14,39 -27,57zm-6 -15c10,-14 16,-28 19,-42 4,-17 5,-34 3,-51 -22,-5 -36,-10 -41,-13 -5,-4 -11,-15 -19,-32 -3,-7 -8,-17 -14,-30l-40 -66 1 -49c-19,2 -30,11 -34,27 -2,8 -1,17 2,28l2 7c9,25 11,47 6,67l-1 7 -10 -2c-28,-6 -49,-8 -64,-6 -16,2 -25,9 -27,20 -2,9 -1,19 5,27 6,8 14,14 24,16l16 4 52 -11c-4,-12 -13,-19 -25,-22 -3,-1 -7,-1 -12,-1 -5,1 -12,1 -19,3l-12 -3 -10 -15 22 5c6,-2 12,-2 18,-2 5,0 10,0 14,1 22,5 36,20 41,44l-10 2c10,8 16,19 19,33l-11 2c7,7 12,17 16,30l-18 4c8,8 13,18 16,31l-36 6c5,3 9,4 13,5l10 2c27,-7 49,-19 68,-34l36 8zm-111 -64c-4,-9 -10,-15 -18,-20l-43 9 -14 -3c-13,-3 -22,-7 -28,-12 -3,2 -5,5 -5,7 -2,6 0,10 5,14 4,4 12,7 23,9l27 6 53 -10zm4 32c0,-1 -1,-2 -1,-3 -3,-5 -7,-10 -12,-14l-45 8 -42 -9 -2 3c-2,10 7,17 27,22l20 4 55 -11zm-2 36c-1,-2 -2,-3 -2,-4 -3,-6 -6,-11 -10,-15l-41 7 -24 -5 -1 1c-2,12 5,19 22,23l8 2 48 -9z"/>
    <path class="fil15" d="M381 2354l36 8c10,-14 16,-28 19,-42 4,-17 5,-34 3,-51 -22,-5 -36,-10 -41,-13 -5,-4 -11,-15 -19,-32 -3,-7 -8,-17 -14,-30l-40 -66 1 -49c-19,2 -30,11 -34,27 -2,8 -1,17 2,28l2 7c9,25 11,47 6,67l-1 7 -10 -2c-28,-6 -49,-8 -64,-6 -16,2 -25,9 -27,20 -2,9 -1,19 5,27 6,8 14,14 24,16l16 4 52 -11c-4,-12 -13,-19 -25,-22 -3,-1 -7,-1 -12,-1 -5,1 -12,1 -19,3l-12 -3 -10 -15 22 5c6,-2 12,-2 18,-2 5,0 10,0 14,1 22,5 36,20 41,44l-10 2c10,8 16,19 19,33l-11 2c7,7 12,17 16,30l-18 4c8,8 13,18 16,31l-36 6c5,3 9,4 13,5l10 2c27,-7 49,-19 68,-34z"/>
    <path class="fil15" d="M253 2308l53 -10c-4,-9 -10,-15 -18,-20l-43 9 -14 -3c-13,-3 -22,-7 -28,-12 -3,2 -5,5 -5,7 -2,6 0,10 5,14 4,4 12,7 23,9l27 6z"/>
    <path class="fil15" d="M297 2313l-45 8 -42 -9 -2 3c-2,10 7,17 27,22l20 4 55 -11c0,-1 -1,-2 -1,-3 -3,-5 -7,-10 -12,-14z"/>
    <path class="fil15" d="M296 2347l-41 7 -24 -5 -1 1c-2,12 5,19 22,23l8 2 48 -9c-1,-2 -2,-3 -2,-4 -3,-6 -6,-11 -10,-15z"/>
    <path class="fil15" d="M312 2310c7,7 12,17 16,30l-18 4c8,8 13,18 16,31l-36 6c5,3 9,4 13,5l10 2c27,-7 49,-19 68,-34l36 8c10,-14 16,-28 19,-42 4,-17 5,-34 3,-51 -22,-5 -36,-10 -41,-13 -5,-4 -11,-15 -19,-32 -3,-7 -8,-17 -14,-30l-40 -66 1 -49c-19,2 -30,11 -34,27 -2,8 -1,17 2,28l2 7c9,25 11,47 6,67l-1 7 -10 -2c-28,-6 -49,-8 -64,-6 -16,2 -25,9 -27,20 -2,9 -1,19 5,27 6,8 14,14 24,16l16 4 52 -11c-4,-12 -13,-19 -25,-22 -3,-1 -7,-1 -12,-1 -5,1 -12,1 -19,3l-12 -3 -10 -15 22 5c6,-2 12,-2 18,-2 5,0 10,0 14,1 22,5 36,20 41,44l-10 2c10,8 16,19 19,33l-11 2z"/>
    <path class="fil16" d="M312 2310c7,7 12,17 16,30l-18 4c8,8 13,18 16,31l-36 6c5,3 9,4 13,5l10 2c27,-7 49,-19 68,-34l36 8c10,-14 16,-28 19,-42 4,-17 5,-34 3,-51 -22,-5 -36,-10 -41,-13 -5,-4 -11,-15 -19,-32 -3,-7 -8,-17 -14,-30l-40 -66 1 -49c-19,2 -30,11 -34,27 -2,8 -1,17 2,28l2 7c9,25 11,47 6,67l-1 7 -10 -2c-28,-6 -49,-8 -64,-6 -16,2 -25,9 -27,20 -2,9 -1,19 5,27 6,8 14,14 24,16l16 4 52 -11c-4,-12 -13,-19 -25,-22 -3,-1 -7,-1 -12,-1 -5,1 -12,1 -19,3l-12 -3 -10 -15 22 5c6,-2 12,-2 18,-2 5,0 10,0 14,1 22,5 36,20 41,44l-10 2c10,8 16,19 19,33l-11 2z"/>
    <path class="fil16" d="M253 2308l53 -10c-4,-9 -10,-15 -18,-20l-43 9 -14 -3c-13,-3 -22,-7 -28,-12 -3,2 -5,5 -5,7 -2,6 0,10 5,14 4,4 12,7 23,9l27 6z"/>
    <path class="fil16" d="M297 2313l-45 8 -42 -9 -2 3c-2,10 7,17 27,22l20 4 55 -11c0,-1 -1,-2 -1,-3 -3,-5 -7,-10 -12,-14z"/>
    <path class="fil16" d="M296 2347l-41 7 -24 -5 -1 1c-2,12 5,19 22,23l8 2 48 -9c-1,-2 -2,-3 -2,-4 -3,-6 -6,-11 -10,-15z"/>
   </g>
  </g>
  <g id="_1804812062112">
   <ellipse class="fil13" cx="798" cy="898" rx="254" ry="246"/>
   <g>
    <g style="clip-path:url(#id5)">
     <image x="658" y="729" width="311" height="374" xlink:href="rating_Images\rating_ImgID6.png"/>
    </g>
   </g>
   <g>
    <path class="fil14" d="M903 1043l-39 -9c-23,16 -46,27 -69,31 -7,-1 -12,-2 -15,-2 -9,-2 -19,-6 -30,-12l-10 3 -11 -3c-26,-5 -37,-17 -32,-35 0,-1 0,-2 1,-4 -18,-6 -26,-17 -22,-33 0,-2 1,-4 2,-7 -6,-3 -11,-7 -13,-12 -3,-5 -3,-11 -2,-17 1,-6 5,-11 10,-16 -7,-12 -9,-24 -7,-36 4,-13 14,-23 32,-28 17,-5 39,-5 64,1l7 2c1,-16 0,-32 -4,-48l-3 -8c-5,-18 -6,-32 -4,-41 6,-25 23,-38 52,-38l8 0 0 59 37 60c2,5 6,13 12,26l5 11c6,12 10,19 12,22 3,3 8,6 15,7l31 7c4,22 4,42 -1,63 -4,20 -13,39 -26,57zm-6 -15c9,-14 15,-28 19,-42 4,-17 5,-34 3,-51 -23,-5 -36,-9 -41,-13 -5,-4 -11,-15 -19,-32 -3,-7 -8,-17 -14,-30l-40 -66 0 -49c-18,2 -30,11 -33,27 -2,8 -2,18 2,29l2 6c9,25 10,47 6,67l-2 7 -9 -2c-28,-6 -49,-8 -65,-6 -15,2 -24,9 -26,20 -3,10 -1,19 5,27 5,8 13,14 24,16l16 4 52 -11c-5,-12 -13,-19 -25,-22 -3,-1 -7,-1 -12,-1 -6,1 -12,2 -19,3l-13 -3 -9 -15 21 5c7,-2 13,-2 18,-2 6,0 11,0 15,1 22,5 36,20 41,44l-10 2c10,8 16,19 19,33l-11 2c7,7 12,17 16,30l-18 4c7,8 13,19 15,31l-35 7c5,2 9,4 13,4l10 2c26,-7 49,-19 68,-34l36 8zm-111 -63c-4,-10 -10,-16 -18,-20l-43 8 -14 -3c-13,-3 -23,-7 -29,-12 -2,2 -4,5 -5,8 -1,5 1,9 5,13 5,4 13,7 23,9l28 6 53 -9zm4 32c0,-2 -1,-3 -1,-4 -3,-5 -8,-10 -13,-14l-44 8 -42 -9 -2 3c-2,10 7,17 27,22l20 4 55 -10zm-2 35c-1,-2 -2,-3 -3,-4 -2,-5 -5,-10 -9,-15l-42 7 -24 -5 0 2c-3,11 4,18 21,22l9 2 48 -9z"/>
    <path class="fil15" d="M861 1020l36 8c9,-14 15,-28 19,-42 4,-17 5,-34 3,-51 -23,-5 -36,-9 -41,-13 -5,-4 -11,-15 -19,-32 -3,-7 -8,-17 -14,-30l-40 -66 0 -49c-18,2 -30,11 -33,27 -2,8 -2,18 2,29l2 6c9,25 10,47 6,67l-2 7 -9 -2c-28,-6 -49,-8 -65,-6 -15,2 -24,9 -26,20 -3,10 -1,19 5,27 5,8 13,14 24,16l16 4 52 -11c-5,-12 -13,-19 -25,-22 -3,-1 -7,-1 -12,-1 -6,1 -12,2 -19,3l-13 -3 -9 -15 21 5c7,-2 13,-2 18,-2 6,0 11,0 15,1 22,5 36,20 41,44l-10 2c10,8 16,19 19,33l-11 2c7,7 12,17 16,30l-18 4c7,8 13,19 15,31l-35 7c5,2 9,4 13,4l10 2c26,-7 49,-19 68,-34z"/>
    <path class="fil15" d="M733 974l53 -9c-4,-10 -10,-16 -18,-20l-43 8 -14 -3c-13,-3 -23,-7 -29,-12 -2,2 -4,5 -5,8 -1,5 1,9 5,13 5,4 13,7 23,9l28 6z"/>
    <path class="fil15" d="M776 979l-44 8 -42 -9 -2 3c-2,10 7,17 27,22l20 4 55 -10c0,-2 -1,-3 -1,-4 -3,-5 -8,-10 -13,-14z"/>
    <path class="fil15" d="M776 1013l-42 7 -24 -5 0 2c-3,11 4,18 21,22l9 2 48 -9c-1,-2 -2,-3 -3,-4 -2,-5 -5,-10 -9,-15z"/>
    <path class="fil15" d="M792 976c7,7 12,17 16,30l-18 4c7,8 13,19 15,31l-35 7c5,2 9,4 13,4l10 2c26,-7 49,-19 68,-34l36 8c9,-14 15,-28 19,-42 4,-17 5,-34 3,-51 -23,-5 -36,-9 -41,-13 -5,-4 -11,-15 -19,-32 -3,-7 -8,-17 -14,-30l-40 -66 0 -49c-18,2 -30,11 -33,27 -2,8 -2,18 2,29l2 6c9,25 10,47 6,67l-2 7 -9 -2c-28,-6 -49,-8 -65,-6 -15,2 -24,9 -26,20 -3,10 -1,19 5,27 5,8 13,14 24,16l16 4 52 -11c-5,-12 -13,-19 -25,-22 -3,-1 -7,-1 -12,-1 -6,1 -12,2 -19,3l-13 -3 -9 -15 21 5c7,-2 13,-2 18,-2 6,0 11,0 15,1 22,5 36,20 41,44l-10 2c10,8 16,19 19,33l-11 2z"/>
    <path class="fil16" d="M792 976c7,7 12,17 16,30l-18 4c7,8 13,19 15,31l-35 7c5,2 9,4 13,4l10 2c26,-7 49,-19 68,-34l36 8c9,-14 15,-28 19,-42 4,-17 5,-34 3,-51 -23,-5 -36,-9 -41,-13 -5,-4 -11,-15 -19,-32 -3,-7 -8,-17 -14,-30l-40 -66 0 -49c-18,2 -30,11 -33,27 -2,8 -2,18 2,29l2 6c9,25 10,47 6,67l-2 7 -9 -2c-28,-6 -49,-8 -65,-6 -15,2 -24,9 -26,20 -3,10 -1,19 5,27 5,8 13,14 24,16l16 4 52 -11c-5,-12 -13,-19 -25,-22 -3,-1 -7,-1 -12,-1 -6,1 -12,2 -19,3l-13 -3 -9 -15 21 5c7,-2 13,-2 18,-2 6,0 11,0 15,1 22,5 36,20 41,44l-10 2c10,8 16,19 19,33l-11 2z"/>
    <path class="fil16" d="M733 974l53 -9c-4,-10 -10,-16 -18,-20l-43 8 -14 -3c-13,-3 -23,-7 -29,-12 -2,2 -4,5 -5,8 -1,5 1,9 5,13 5,4 13,7 23,9l28 6z"/>
    <path class="fil16" d="M776 979l-44 8 -42 -9 -2 3c-2,10 7,17 27,22l20 4 55 -10c0,-2 -1,-3 -1,-4 -3,-5 -8,-10 -13,-14z"/>
    <path class="fil16" d="M776 1013l-42 7 -24 -5 0 2c-3,11 4,18 21,22l9 2 48 -9c-1,-2 -2,-3 -3,-4 -2,-5 -5,-10 -9,-15z"/>
   </g>
  </g>
  <g id="_1804713355072">
   <ellipse class="fil13" transform="matrix(0.0718124 -0.0287726 0.0293746 0.0685513 1272.62 1831.13)" rx="3268" ry="3310"/>
   <g>
    <g style="clip-path:url(#id6)">
     <image x="1077" y="1611" width="435" height="460" xlink:href="rating_Images\rating_ImgID7.png"/>
    </g>
   </g>
   <g>
    <path class="fil14" d="M1427 1926l-40 7c-14,23 -32,41 -51,54 -7,1 -12,2 -15,3 -9,1 -20,1 -32,0l-8 6 -12 2c-26,5 -40,-2 -43,-20 0,-1 0,-3 0,-5 -20,1 -31,-6 -34,-22 0,-2 0,-4 0,-7 -8,-1 -13,-3 -18,-7 -4,-3 -7,-8 -8,-15 -1,-5 0,-11 3,-17 -12,-9 -18,-19 -20,-31 -3,-14 3,-27 17,-38 14,-11 35,-19 60,-23l7 -1c-5,-15 -12,-29 -22,-42l-6 -7c-12,-15 -19,-27 -20,-37 -5,-25 7,-43 33,-54l7 -3 24 55 57 42c4,3 12,10 22,19l9 8c10,9 16,15 20,17 4,1 9,2 17,1l31 -6c12,19 20,38 24,59 3,20 3,41 -2,62zm-11 -11c3,-17 3,-32 0,-46 -2,-17 -8,-33 -17,-49 -23,4 -37,5 -43,3 -6,-1 -16,-9 -30,-22 -6,-5 -14,-13 -25,-22l-63 -46 -19 -46c-16,9 -23,21 -21,37 2,9 6,17 14,26l5 5c17,20 28,40 31,60l2 7 -10 2c-28,4 -48,10 -62,18 -13,8 -19,17 -17,28 2,10 7,18 16,23 8,6 18,8 29,6l16 -2 44 -29c-9,-10 -20,-14 -32,-12 -3,1 -7,2 -12,4 -4,3 -10,6 -16,10l-13 2 -14 -11 21 -3c6,-4 11,-7 16,-9 5,-2 10,-3 14,-4 23,-3 41,5 55,26l-8 5c12,4 22,11 31,23l-10 6c9,4 18,11 27,22l-15 11c10,4 19,12 26,23l-30 19c5,0 10,0 14,-1l10 -2c21,-16 38,-35 49,-56l37 -6zm-128 -18c-7,-7 -16,-11 -25,-12l-36 24 -14 2c-13,2 -24,2 -31,0 -2,3 -2,6 -2,9 1,5 4,8 10,10 6,2 14,2 25,0l28 -4 45 -29zm17 28c-1,-1 -2,-2 -3,-2 -5,-4 -11,-7 -17,-9l-38 24 -43 7 0 4c2,10 13,13 34,10l20 -4 47 -30zm11 34c-1,-2 -2,-3 -3,-3 -5,-4 -9,-8 -15,-11l-35 23 -25 4 0 1c2,11 12,16 29,13l9 -2 40 -25z"/>
    <path class="fil15" d="M1379 1921l37 -6c3,-17 3,-32 0,-46 -2,-17 -8,-33 -17,-49 -23,4 -37,5 -43,3 -6,-1 -16,-9 -30,-22 -6,-5 -14,-13 -25,-22l-63 -46 -19 -46c-16,9 -23,21 -21,37 2,9 6,17 14,26l5 5c17,20 28,40 31,60l2 7 -10 2c-28,4 -48,10 -62,18 -13,8 -19,17 -17,28 2,10 7,18 16,23 8,6 18,8 29,6l16 -2 44 -29c-9,-10 -20,-14 -32,-12 -3,1 -7,2 -12,4 -4,3 -10,6 -16,10l-13 2 -14 -11 21 -3c6,-4 11,-7 16,-9 5,-2 10,-3 14,-4 23,-3 41,5 55,26l-8 5c12,4 22,11 31,23l-10 6c9,4 18,11 27,22l-15 11c10,4 19,12 26,23l-30 19c5,0 10,0 14,-1l10 -2c21,-16 38,-35 49,-56z"/>
    <path class="fil15" d="M1243 1926l45 -29c-7,-7 -16,-11 -25,-12l-36 24 -14 2c-13,2 -24,2 -31,0 -2,3 -2,6 -2,9 1,5 4,8 10,10 6,2 14,2 25,0l28 -4z"/>
    <path class="fil15" d="M1285 1914l-38 24 -43 7 0 4c2,10 13,13 34,10l20 -4 47 -30c-1,-1 -2,-2 -3,-2 -5,-4 -11,-7 -17,-9z"/>
    <path class="fil15" d="M1298 1945l-35 23 -25 4 0 1c2,11 12,16 29,13l9 -2 40 -25c-1,-2 -2,-3 -3,-3 -5,-4 -9,-8 -15,-11z"/>
    <path class="fil15" d="M1298 1905c9,4 18,11 27,22l-15 11c10,4 19,12 26,23l-30 19c5,0 10,0 14,-1l10 -2c21,-16 38,-35 49,-56l37 -6c3,-17 3,-32 0,-46 -2,-17 -8,-33 -17,-49 -23,4 -37,5 -43,3 -6,-1 -16,-9 -30,-22 -6,-5 -14,-13 -25,-22l-63 -46 -19 -46c-16,9 -23,21 -21,37 2,9 6,17 14,26l5 5c17,20 28,40 31,60l2 7 -10 2c-28,4 -48,10 -62,18 -13,8 -19,17 -17,28 2,10 7,18 16,23 8,6 18,8 29,6l16 -2 44 -29c-9,-10 -20,-14 -32,-12 -3,1 -7,2 -12,4 -4,3 -10,6 -16,10l-13 2 -14 -11 21 -3c6,-4 11,-7 16,-9 5,-2 10,-3 14,-4 23,-3 41,5 55,26l-8 5c12,4 22,11 31,23l-10 6z"/>
    <path class="fil16" d="M1298 1905c9,4 18,11 27,22l-15 11c10,4 19,12 26,23l-30 19c5,0 10,0 14,-1l10 -2c21,-16 38,-35 49,-56l37 -6c3,-17 3,-32 0,-46 -2,-17 -8,-33 -17,-49 -23,4 -37,5 -43,3 -6,-1 -16,-9 -30,-22 -6,-5 -14,-13 -25,-22l-63 -46 -19 -46c-16,9 -23,21 -21,37 2,9 6,17 14,26l5 5c17,20 28,40 31,60l2 7 -10 2c-28,4 -48,10 -62,18 -13,8 -19,17 -17,28 2,10 7,18 16,23 8,6 18,8 29,6l16 -2 44 -29c-9,-10 -20,-14 -32,-12 -3,1 -7,2 -12,4 -4,3 -10,6 -16,10l-13 2 -14 -11 21 -3c6,-4 11,-7 16,-9 5,-2 10,-3 14,-4 23,-3 41,5 55,26l-8 5c12,4 22,11 31,23l-10 6z"/>
    <path class="fil16" d="M1243 1926l45 -29c-7,-7 -16,-11 -25,-12l-36 24 -14 2c-13,2 -24,2 -31,0 -2,3 -2,6 -2,9 1,5 4,8 10,10 6,2 14,2 25,0l28 -4z"/>
    <path class="fil16" d="M1285 1914l-38 24 -43 7 0 4c2,10 13,13 34,10l20 -4 47 -30c-1,-1 -2,-2 -3,-2 -5,-4 -11,-7 -17,-9z"/>
    <path class="fil16" d="M1298 1945l-35 23 -25 4 0 1c2,11 12,16 29,13l9 -2 40 -25c-1,-2 -2,-3 -3,-3 -5,-4 -9,-8 -15,-11z"/>
   </g>
  </g>
  <g id="_1804750531232">
   <ellipse class="fil13" cx="701" cy="328" rx="254" ry="246"/>
   <g>
    <g style="clip-path:url(#id7)">
     <image x="561" y="159" width="311" height="374" xlink:href="rating_Images\rating_ImgID8.png"/>
    </g>
   </g>
   <g>
    <path class="fil14" d="M806 473l-39 -9c-23,16 -46,26 -69,31 -7,-1 -12,-2 -15,-2 -9,-2 -19,-6 -30,-12l-10 3 -11 -3c-26,-6 -37,-17 -32,-35 0,-1 0,-3 1,-5 -18,-5 -26,-16 -22,-32 0,-2 1,-4 2,-7 -6,-3 -11,-7 -13,-12 -3,-5 -3,-11 -2,-17 1,-6 5,-11 10,-16 -7,-12 -9,-24 -7,-36 4,-14 14,-23 32,-28 17,-5 39,-5 64,1l7 1c1,-15 0,-31 -4,-47l-3 -8c-5,-18 -6,-32 -4,-41 6,-25 23,-38 52,-38l8 0 0 59 37 60c2,5 6,13 12,26l5 11c6,12 10,19 12,22 3,3 8,6 15,7l31 7c4,21 4,42 -1,63 -4,20 -13,39 -26,57zm-6 -15c9,-14 15,-28 19,-42 4,-17 5,-34 3,-51 -22,-5 -36,-10 -41,-13 -5,-4 -11,-15 -19,-32 -3,-7 -8,-17 -14,-30l-40 -66 0 -49c-18,2 -30,11 -33,27 -2,8 -2,17 2,28l2 7c9,25 10,47 6,67l-2 7 -9 -2c-28,-6 -49,-8 -65,-6 -15,2 -24,9 -26,20 -3,9 -1,19 5,27 5,8 13,14 24,16l16 4 52 -11c-5,-12 -13,-19 -25,-22 -3,-1 -7,-1 -12,-1 -6,1 -12,1 -19,3l-13 -3 -9 -15 21 5c7,-2 13,-2 18,-2 6,0 11,0 15,1 22,5 36,20 41,44l-10 2c10,8 16,19 19,33l-11 2c7,7 12,17 16,30l-18 4c7,8 13,19 15,31l-35 6c5,3 9,4 13,5l10 2c26,-7 49,-19 68,-34l36 8zm-111 -64c-4,-9 -10,-15 -18,-20l-43 9 -14 -3c-13,-3 -23,-7 -29,-12 -2,2 -4,5 -5,7 -1,6 1,10 5,14 5,4 13,7 23,9l28 6 53 -10zm4 32c0,-1 -1,-2 -1,-3 -3,-5 -7,-10 -13,-14l-44 8 -42 -9 -2 3c-2,10 7,17 27,22l20 4 55 -11zm-2 36c-1,-2 -2,-3 -2,-4 -3,-6 -6,-11 -10,-15l-42 7 -24 -5 0 1c-3,12 5,19 21,23l9 2 48 -9z"/>
    <path class="fil15" d="M764 450l36 8c9,-14 15,-28 19,-42 4,-17 5,-34 3,-51 -22,-5 -36,-10 -41,-13 -5,-4 -11,-15 -19,-32 -3,-7 -8,-17 -14,-30l-40 -66 0 -49c-18,2 -30,11 -33,27 -2,8 -2,17 2,28l2 7c9,25 10,47 6,67l-2 7 -9 -2c-28,-6 -49,-8 -65,-6 -15,2 -24,9 -26,20 -3,9 -1,19 5,27 5,8 13,14 24,16l16 4 52 -11c-5,-12 -13,-19 -25,-22 -3,-1 -7,-1 -12,-1 -6,1 -12,1 -19,3l-13 -3 -9 -15 21 5c7,-2 13,-2 18,-2 6,0 11,0 15,1 22,5 36,20 41,44l-10 2c10,8 16,19 19,33l-11 2c7,7 12,17 16,30l-18 4c7,8 13,19 15,31l-35 6c5,3 9,4 13,5l10 2c26,-7 49,-19 68,-34z"/>
    <path class="fil15" d="M636 404l53 -10c-4,-9 -10,-15 -18,-20l-43 9 -14 -3c-13,-3 -23,-7 -29,-12 -2,2 -4,5 -5,7 -1,6 1,10 5,14 5,4 13,7 23,9l28 6z"/>
    <path class="fil15" d="M679 409l-44 8 -42 -9 -2 3c-2,10 7,17 27,22l20 4 55 -11c0,-1 -1,-2 -1,-3 -3,-5 -7,-10 -13,-14z"/>
    <path class="fil15" d="M679 443l-42 7 -24 -5 0 1c-3,12 5,19 21,23l9 2 48 -9c-1,-2 -2,-3 -2,-4 -3,-6 -6,-11 -10,-15z"/>
    <path class="fil15" d="M695 406c7,7 12,17 16,30l-18 4c7,8 13,19 15,31l-35 6c5,3 9,4 13,5l10 2c26,-7 49,-19 68,-34l36 8c9,-14 15,-28 19,-42 4,-17 5,-34 3,-51 -22,-5 -36,-10 -41,-13 -5,-4 -11,-15 -19,-32 -3,-7 -8,-17 -14,-30l-40 -66 0 -49c-18,2 -30,11 -33,27 -2,8 -2,17 2,28l2 7c9,25 10,47 6,67l-2 7 -9 -2c-28,-6 -49,-8 -65,-6 -15,2 -24,9 -26,20 -3,9 -1,19 5,27 5,8 13,14 24,16l16 4 52 -11c-5,-12 -13,-19 -25,-22 -3,-1 -7,-1 -12,-1 -6,1 -12,1 -19,3l-13 -3 -9 -15 21 5c7,-2 13,-2 18,-2 6,0 11,0 15,1 22,5 36,20 41,44l-10 2c10,8 16,19 19,33l-11 2z"/>
    <path class="fil16" d="M695 406c7,7 12,17 16,30l-18 4c7,8 13,19 15,31l-35 6c5,3 9,4 13,5l10 2c26,-7 49,-19 68,-34l36 8c9,-14 15,-28 19,-42 4,-17 5,-34 3,-51 -22,-5 -36,-10 -41,-13 -5,-4 -11,-15 -19,-32 -3,-7 -8,-17 -14,-30l-40 -66 0 -49c-18,2 -30,11 -33,27 -2,8 -2,17 2,28l2 7c9,25 10,47 6,67l-2 7 -9 -2c-28,-6 -49,-8 -65,-6 -15,2 -24,9 -26,20 -3,9 -1,19 5,27 5,8 13,14 24,16l16 4 52 -11c-5,-12 -13,-19 -25,-22 -3,-1 -7,-1 -12,-1 -6,1 -12,1 -19,3l-13 -3 -9 -15 21 5c7,-2 13,-2 18,-2 6,0 11,0 15,1 22,5 36,20 41,44l-10 2c10,8 16,19 19,33l-11 2z"/>
    <path class="fil16" d="M636 404l53 -10c-4,-9 -10,-15 -18,-20l-43 9 -14 -3c-13,-3 -23,-7 -29,-12 -2,2 -4,5 -5,7 -1,6 1,10 5,14 5,4 13,7 23,9l28 6z"/>
    <path class="fil16" d="M679 409l-44 8 -42 -9 -2 3c-2,10 7,17 27,22l20 4 55 -11c0,-1 -1,-2 -1,-3 -3,-5 -7,-10 -13,-14z"/>
    <path class="fil16" d="M679 443l-42 7 -24 -5 0 1c-3,12 5,19 21,23l9 2 48 -9c-1,-2 -2,-3 -2,-4 -3,-6 -6,-11 -10,-15z"/>
   </g>
  </g>
  <g id="_1804893334800">
   <ellipse class="fil13" cx="2264" cy="2287" rx="254" ry="246"/>
   <g>
    <g style="clip-path:url(#id8)">
     <image x="2125" y="2118" width="311" height="374" xlink:href="rating_Images\rating_ImgID9.png"/>
    </g>
   </g>
   <g>
    <path class="fil14" d="M2369 2432l-39 -9c-23,16 -46,26 -69,31 -7,-1 -11,-2 -15,-3 -9,-2 -18,-5 -29,-11l-11 3 -11 -3c-25,-6 -36,-17 -32,-35 0,-1 1,-3 2,-5 -19,-5 -26,-16 -22,-32 0,-2 1,-4 2,-7 -7,-3 -11,-8 -14,-13 -2,-4 -3,-10 -1,-17 1,-5 4,-10 9,-15 -7,-12 -9,-24 -6,-36 3,-14 14,-23 31,-28 18,-5 39,-5 65,1l6 1c2,-15 1,-31 -3,-47l-3 -8c-5,-18 -6,-32 -4,-41 6,-25 23,-38 52,-38l8 0 0 59 36 60c3,5 7,13 13,26l5 11c5,12 9,19 12,22 3,3 8,5 15,7l30 7c5,21 5,42 0,63 -5,20 -14,39 -27,57zm-5 -15c9,-14 15,-28 18,-42 4,-17 5,-34 3,-51 -22,-5 -35,-10 -40,-13 -5,-4 -12,-15 -19,-33 -4,-6 -8,-16 -15,-29l-40 -66 1 -49c-19,2 -30,11 -34,27 -2,8 -1,17 3,28l2 7c8,25 10,47 5,67l-1 7 -10 -2c-27,-6 -49,-8 -64,-6 -15,2 -24,9 -27,20 -2,9 0,19 5,27 6,8 14,14 24,16l16 4 53 -11c-5,-12 -13,-19 -25,-22 -3,-1 -8,-1 -13,-1 -5,1 -11,1 -18,3l-13 -3 -9 -15 21 4c7,-1 13,-1 18,-1 5,0 10,0 14,1 23,5 36,20 41,44l-9 2c9,8 16,19 19,33l-12 2c7,7 13,17 17,30l-18 4c7,8 12,18 15,31l-36 6c5,3 10,4 13,5l11 2c26,-7 49,-19 68,-34l36 8zm-111 -64c-5,-9 -11,-16 -19,-20l-43 9 -14 -3c-13,-3 -22,-7 -28,-12 -3,2 -5,5 -5,7 -1,5 0,10 5,14 5,3 12,7 23,9l27 6 54 -10zm4 32c-1,-1 -1,-2 -2,-3 -3,-5 -7,-10 -12,-14l-44 8 -43 -9 -1 3c-3,10 6,17 27,22l19 4 56 -11zm-3 36c-1,-2 -1,-3 -2,-4 -2,-6 -5,-11 -10,-15l-41 7 -24 -5 0 1c-3,11 4,19 21,23l9 2 47 -9z"/>
    <path class="fil15" d="M2328 2409l36 8c9,-14 15,-28 18,-42 4,-17 5,-34 3,-51 -22,-5 -35,-10 -40,-13 -5,-4 -12,-15 -19,-33 -4,-6 -8,-16 -15,-29l-40 -66 1 -49c-19,2 -30,11 -34,27 -2,8 -1,17 3,28l2 7c8,25 10,47 5,67l-1 7 -10 -2c-27,-6 -49,-8 -64,-6 -15,2 -24,9 -27,20 -2,9 0,19 5,27 6,8 14,14 24,16l16 4 53 -11c-5,-12 -13,-19 -25,-22 -3,-1 -8,-1 -13,-1 -5,1 -11,1 -18,3l-13 -3 -9 -15 21 4c7,-1 13,-1 18,-1 5,0 10,0 14,1 23,5 36,20 41,44l-9 2c9,8 16,19 19,33l-12 2c7,7 13,17 17,30l-18 4c7,8 12,18 15,31l-36 6c5,3 10,4 13,5l11 2c26,-7 49,-19 68,-34z"/>
    <path class="fil15" d="M2199 2363l54 -10c-5,-9 -11,-16 -19,-20l-43 9 -14 -3c-13,-3 -22,-7 -28,-12 -3,2 -5,5 -5,7 -1,5 0,10 5,14 5,3 12,7 23,9l27 6z"/>
    <path class="fil15" d="M2243 2368l-44 8 -43 -9 -1 3c-3,10 6,17 27,22l19 4 56 -11c-1,-1 -1,-2 -2,-3 -3,-5 -7,-10 -12,-14z"/>
    <path class="fil15" d="M2242 2402l-41 7 -24 -5 0 1c-3,11 4,19 21,23l9 2 47 -9c-1,-2 -1,-3 -2,-4 -2,-6 -5,-11 -10,-15z"/>
    <path class="fil15" d="M2258 2365c7,7 13,17 17,30l-18 4c7,8 12,18 15,31l-36 6c5,3 10,4 13,5l11 2c26,-7 49,-19 68,-34l36 8c9,-14 15,-28 18,-42 4,-17 5,-34 3,-51 -22,-5 -35,-10 -40,-13 -5,-4 -12,-15 -19,-33 -4,-6 -8,-16 -15,-29l-40 -66 1 -49c-19,2 -30,11 -34,27 -2,8 -1,17 3,28l2 7c8,25 10,47 5,67l-1 7 -10 -2c-27,-6 -49,-8 -64,-6 -15,2 -24,9 -27,20 -2,9 0,19 5,27 6,8 14,14 24,16l16 4 53 -11c-5,-12 -13,-19 -25,-22 -3,-1 -8,-1 -13,-1 -5,1 -11,1 -18,3l-13 -3 -9 -15 21 4c7,-1 13,-1 18,-1 5,0 10,0 14,1 23,5 36,20 41,44l-9 2c9,8 16,19 19,33l-12 2z"/>
    <path class="fil16" d="M2258 2365c7,7 13,17 17,30l-18 4c7,8 12,18 15,31l-36 6c5,3 10,4 13,5l11 2c26,-7 49,-19 68,-34l36 8c9,-14 15,-28 18,-42 4,-17 5,-34 3,-51 -22,-5 -35,-10 -40,-13 -5,-4 -12,-15 -19,-33 -4,-6 -8,-16 -15,-29l-40 -66 1 -49c-19,2 -30,11 -34,27 -2,8 -1,17 3,28l2 7c8,25 10,47 5,67l-1 7 -10 -2c-27,-6 -49,-8 -64,-6 -15,2 -24,9 -27,20 -2,9 0,19 5,27 6,8 14,14 24,16l16 4 53 -11c-5,-12 -13,-19 -25,-22 -3,-1 -8,-1 -13,-1 -5,1 -11,1 -18,3l-13 -3 -9 -15 21 4c7,-1 13,-1 18,-1 5,0 10,0 14,1 23,5 36,20 41,44l-9 2c9,8 16,19 19,33l-12 2z"/>
    <path class="fil16" d="M2199 2363l54 -10c-5,-9 -11,-16 -19,-20l-43 9 -14 -3c-13,-3 -22,-7 -28,-12 -3,2 -5,5 -5,7 -1,5 0,10 5,14 5,3 12,7 23,9l27 6z"/>
    <path class="fil16" d="M2243 2368l-44 8 -43 -9 -1 3c-3,10 6,17 27,22l19 4 56 -11c-1,-1 -1,-2 -2,-3 -3,-5 -7,-10 -12,-14z"/>
    <path class="fil16" d="M2242 2402l-41 7 -24 -5 0 1c-3,11 4,19 21,23l9 2 47 -9c-1,-2 -1,-3 -2,-4 -2,-6 -5,-11 -10,-15z"/>
   </g>
  </g>
  <g id="_1804893331632">
   <ellipse class="fil17" transform="matrix(0.0578773 -0.0501764 0.0512262 0.0552491 250.337 245.611)" rx="3268" ry="3310"/>
   <g>
    <g style="clip-path:url(#id9)">
     <image x="54" y="41" width="437" height="426" xlink:href="rating_Images\rating_ImgID10.png"/>
    </g>
   </g>
   <polygon class="fil18 str0" points="250,80 288,199 411,199 311,272 349,391 250,317 151,391 189,272 90,199 213,199 "/>
  </g>
  <g id="_1804893329712">
   <ellipse class="fil17" transform="matrix(0.0350649 -0.0681022 0.0680993 0.0322347 1277.38 770.932)" rx="3268" ry="3310"/>
   <g>
    <g style="clip-path:url(#id10)">
     <image x="1019" y="491" width="565" height="559" xlink:href="rating_Images\rating_ImgID11.png"/>
    </g>
   </g>
   <polygon class="fil18 str0" points="1216,617 1295,714 1409,668 1344,773 1424,869 1304,838 1239,943 1231,818 1111,787 1225,742 "/>
  </g>
  <g id="_1804893328016">
   <ellipse class="fil17" transform="matrix(0.0350649 -0.0681022 0.0680993 0.0322347 1064.65 1306.6)" rx="3268" ry="3310"/>
   <g>
    <g style="clip-path:url(#id11)">
     <image x="806" y="1027" width="565" height="559" xlink:href="rating_Images\rating_ImgID12.png"/>
    </g>
   </g>
   <polygon class="fil18 str0" points="1003,1153 1082,1249 1196,1204 1131,1309 1211,1405 1091,1373 1027,1479 1018,1354 898,1323 1012,1277 "/>
  </g>
  <g id="_1804893328176">
   <ellipse class="fil17" transform="matrix(0.0350649 -0.0681022 0.0680993 0.0322347 1785.51 2232.29)" rx="3268" ry="3310"/>
   <g>
    <g style="clip-path:url(#id12)">
     <image x="1527" y="1953" width="565" height="559" xlink:href="rating_Images\rating_ImgID13.png"/>
    </g>
   </g>
   <polygon class="fil18 str0" points="1724,2079 1803,2175 1917,2129 1852,2234 1932,2331 1812,2299 1748,2404 1739,2280 1619,2249 1733,2203 "/>
  </g>
  <g id="_1804893343696">
   <ellipse class="fil17" transform="matrix(0.0578773 -0.0501764 0.0512262 0.0552491 335.147 736.841)" rx="3268" ry="3310"/>
   <g>
    <g style="clip-path:url(#id13)">
     <image x="138" y="532" width="437" height="426" xlink:href="rating_Images\rating_ImgID14.png"/>
    </g>
   </g>
   <polygon class="fil18 str0" points="335,571 373,690 496,690 396,763 434,882 335,809 236,882 274,763 175,690 297,690 "/>
  </g>
  <g id="_1804893341968">
   <ellipse class="fil17" transform="matrix(0.0578773 -0.0501764 0.0512262 0.0552491 256.547 1732.41)" rx="3268" ry="3310"/>
   <g>
    <g style="clip-path:url(#id14)">
     <image x="60" y="1528" width="437" height="426" xlink:href="rating_Images\rating_ImgID15.png"/>
    </g>
   </g>
   <polygon class="fil18 str0" points="257,1567 294,1686 417,1686 318,1759 356,1878 257,1804 157,1878 196,1759 96,1686 219,1686 "/>
  </g>
  <g id="_1804893340752">
   <ellipse class="fil17" transform="matrix(0.0578773 -0.0501764 0.0512262 0.0552491 882.267 2223.64)" rx="3268" ry="3310"/>
   <g>
    <g style="clip-path:url(#id15)">
     <image x="686" y="2019" width="437" height="426" xlink:href="rating_Images\rating_ImgID16.png"/>
    </g>
   </g>
   <polygon class="fil18 str0" points="882,2058 920,2177 1043,2177 943,2250 981,2369 882,2295 783,2369 821,2250 722,2177 845,2177 "/>
  </g>
  <g id="_1804893340592">
   <ellipse class="fil17" transform="matrix(0.0578773 -0.0501764 0.0512262 0.0552491 1208.77 258.851)" rx="3268" ry="3310"/>
   <g>
    <g style="clip-path:url(#id16)">
     <image x="1012" y="54" width="437" height="426" xlink:href="rating_Images\rating_ImgID17.png"/>
    </g>
   </g>
   <polygon class="fil18 str0" points="1209,93 1246,212 1369,212 1270,285 1308,404 1209,331 1110,404 1148,285 1048,212 1171,212 "/>
  </g>
  <g id="_1804893339792">
   <ellipse class="fil17" transform="matrix(0.0578773 -0.0501764 0.0512262 0.0552491 2224.84 245.601)" rx="3268" ry="3310"/>
   <g>
    <g style="clip-path:url(#id17)">
     <image x="2028" y="41" width="437" height="426" xlink:href="rating_Images\rating_ImgID18.png"/>
    </g>
   </g>
   <polygon class="fil18 str0" points="2225,80 2263,199 2385,199 2286,272 2324,391 2225,317 2126,391 2164,272 2064,199 2187,199 "/>
  </g>
 </g>
</svg>
